STARTFONT 2.3
FONT -FontForge-Rajdhani-Book-R-Normal--18-180-72-72-P-110-ISO10646-1
SIZE 18 72 72  4
FONTBOUNDINGBOX 45 22 -8 -6
COMMENT "Generated by fontforge, http://fontforge.sourceforge.net"
COMMENT "Copyright (c) 2014 Indian Type Foundry (info@indiantypefoundry.com)"
STARTPROPERTIES 41
FOUNDRY "FontForge"
FAMILY_NAME "Rajdhani"
WEIGHT_NAME "Book"
SLANT "R"
SETWIDTH_NAME "Normal"
ADD_STYLE_NAME ""
PIXEL_SIZE 18
POINT_SIZE 180
RESOLUTION_X 72
RESOLUTION_Y 72
SPACING "P"
AVERAGE_WIDTH 110
CHARSET_REGISTRY "ISO10646"
CHARSET_ENCODING "1"
FONTNAME_REGISTRY ""
CHARSET_COLLECTIONS "ISO8859-2 ISO8859-9 ISO8859-4 ISO10646-1"
BITS_PER_PIXEL 4
FONT_NAME "Rajdhani-Regular"
FACE_NAME "Rajdhani Regular"
COPYRIGHT "Copyright (c) 2014 Indian Type Foundry (info@indiantypefoundry.com)"
FONT_VERSION "1.201;PS 1.0;hotconv 1.0.78;makeotf.lib2.5.61930; ttfautohint (v1.1) -l 7 -r 28 -G 50 -x 13 -D latn -f deva -w G"
FONT_ASCENT 14
FONT_DESCENT 4
UNDERLINE_POSITION -2
UNDERLINE_THICKNESS 1
X_HEIGHT 8
CAP_HEIGHT 10
DEFAULT_CHAR 3
RAW_ASCENT 800
RAW_DESCENT 200
NORM_SPACE 5
RELATIVE_WEIGHT 40
RELATIVE_SETWIDTH 50
SUPERSCRIPT_X 0
SUPERSCRIPT_Y 6
SUPERSCRIPT_SIZE 10
SUBSCRIPT_X 0
SUBSCRIPT_Y 1
SUBSCRIPT_SIZE 10
AVG_LOWERCASE_WIDTH 81
AVG_UPPERCASE_WIDTH 94
ENDPROPERTIES
CHARS 1043
STARTCHAR NULL.dup1
ENCODING 0
SWIDTH 0 0
DWIDTH 0 0
BBX 1 1 0 0
BITMAP
00
ENDCHAR
STARTCHAR CR
ENCODING 13
SWIDTH 0 0
DWIDTH 0 0
BBX 1 1 0 0
BITMAP
00
ENDCHAR
STARTCHAR space
ENCODING 32
SWIDTH 267 0
DWIDTH 5 0
BBX 1 1 0 0
BITMAP
00
ENDCHAR
STARTCHAR exclam
ENCODING 33
SWIDTH 237 0
DWIDTH 4 0
BBX 2 11 1 0
BITMAP
5A
6A
6A
59
59
58
48
37
47
59
59
ENDCHAR
STARTCHAR quotedbl
ENCODING 34
SWIDTH 330 0
DWIDTH 6 0
BBX 4 4 1 7
BITMAP
C01C
C01B
A00A
8007
ENDCHAR
STARTCHAR numbersign
ENCODING 35
SWIDTH 677 0
DWIDTH 12 0
BBX 11 11 1 0
BITMAP
0001B000B100
00066002A000
09CECCCDDC20
001C000C1000
0048001B0000
008400570000
00B000930000
CCECCCECC000
057002A00000
093006600000
0B0009200000
ENDCHAR
STARTCHAR dollar
ENCODING 36
SWIDTH 504 0
DWIDTH 9 0
BBX 7 15 1 -2
BITMAP
00092000
000A2000
1ACCCB10
87000690
B20002C0
B2000010
97000000
1ACCDA20
000007A0
100001C0
B20001C0
87000690
1ACCCB10
000A2000
00041000
ENDCHAR
STARTCHAR percent
ENCODING 37
SWIDTH 717 0
DWIDTH 13 0
BBX 12 11 0 0
BITMAP
07CCB1009200
0C0066029000
1A0047083000
0C00761A0000
06CCA1740000
000000B00000
000006619AA4
00000B07500B
00005708300B
0000B107500C
00038002CCC6
ENDCHAR
STARTCHAR ampersand
ENCODING 38
SWIDTH 597 0
DWIDTH 11 0
BBX 9 11 1 0
BITMAP
009CCB2000
079005A000
094001D000
0850005000
03C0000000
2BEA000000
970BECCC80
B300B70000
B3000A6000
870005E500
1ACCCB2B40
ENDCHAR
STARTCHAR quotesingle
ENCODING 39
SWIDTH 186 0
DWIDTH 3 0
BBX 2 3 1 8
BITMAP
B1
A0
80
ENDCHAR
STARTCHAR parenleft
ENCODING 40
SWIDTH 283 0
DWIDTH 5 0
BBX 3 13 1 -2
BITMAP
2BA0
B300
C000
C000
C000
C000
C000
C000
C000
C000
C000
A500
1AA0
ENDCHAR
STARTCHAR parenright
ENCODING 41
SWIDTH 283 0
DWIDTH 5 0
BBX 3 13 1 -2
BITMAP
BA10
0590
00C0
00C0
00C0
00C0
00C0
00C0
00C0
00C0
00C0
0690
B910
ENDCHAR
STARTCHAR asterisk
ENCODING 42
SWIDTH 406 0
DWIDTH 7 0
BBX 5 5 1 6
BITMAP
00A000
8876B0
027500
0B2B20
020210
ENDCHAR
STARTCHAR plus
ENCODING 43
SWIDTH 523 0
DWIDTH 9 0
BBX 8 7 1 2
BITMAP
000A2000
000B2000
000B2000
8CCEDCC1
000B2000
000B2000
000A2000
ENDCHAR
STARTCHAR comma
ENCODING 44
SWIDTH 191 0
DWIDTH 3 0
BBX 2 5 1 -2
BITMAP
C3
C3
C1
80
20
ENDCHAR
STARTCHAR hyphen
ENCODING 45
SWIDTH 312 0
DWIDTH 6 0
BBX 5 1 0 5
BITMAP
3CCCA0
ENDCHAR
STARTCHAR period
ENCODING 46
SWIDTH 191 0
DWIDTH 3 0
BBX 2 3 1 0
BITMAP
A2
C3
C3
ENDCHAR
STARTCHAR slash
ENCODING 47
SWIDTH 396 0
DWIDTH 7 0
BBX 5 11 1 0
BITMAP
0001D0
000680
000C30
002C00
008600
00D100
04A000
0A4000
1D0000
680000
B20000
ENDCHAR
STARTCHAR zero
ENCODING 48
SWIDTH 514 0
DWIDTH 9 0
BBX 8 11 1 0
BITMAP
1BCCCC30
960003D0
C20000D0
C20000D1
C20000D1
C20000D1
C20000D1
C20000D1
C20000D0
960003D0
1BCCCC30
ENDCHAR
STARTCHAR one
ENCODING 49
SWIDTH 317 0
DWIDTH 6 0
BBX 5 11 0 0
BITMAP
007E20
2C8B30
220B30
000B30
000B30
000B30
000B30
000B30
000B30
000B30
000B20
ENDCHAR
STARTCHAR two
ENCODING 50
SWIDTH 478 0
DWIDTH 9 0
BBX 7 11 1 0
BITMAP
3CCCD800
C3000A50
E0000680
50000770
00002D20
0005C300
01991000
2C500000
B4000000
E1000000
ECCCCC60
ENDCHAR
STARTCHAR three
ENCODING 51
SWIDTH 496 0
DWIDTH 9 0
BBX 7 11 1 0
BITMAP
2BCCCA10
A5000780
D10003B0
300003B0
00000870
001CEB00
00000870
400003B0
D10003B0
A5000780
2BCCCA10
ENDCHAR
STARTCHAR four
ENCODING 52
SWIDTH 520 0
DWIDTH 9 0
BBX 9 11 0 0
BITMAP
000007F300
00002CB300
0000A4A300
000590A300
001C10A300
008600A300
03B000A300
0B3000A300
2DCCCCED90
000000A300
000000A300
ENDCHAR
STARTCHAR five
ENCODING 53
SWIDTH 482 0
DWIDTH 9 0
BBX 7 11 1 0
BITMAP
CDCCCC50
C2000000
C2000000
C2000000
C8CCC900
95000970
000004A0
200004A0
C10004A0
A6000870
2BCCCA10
ENDCHAR
STARTCHAR six
ENCODING 54
SWIDTH 497 0
DWIDTH 9 0
BBX 7 11 1 0
BITMAP
2BCCCC20
B4000000
E0000000
E0000000
ECCCC910
E0000880
E00002B0
E00002C0
E00002C0
B5000780
2BCCCA10
ENDCHAR
STARTCHAR seven
ENCODING 55
SWIDTH 380 0
DWIDTH 7 0
BBX 7 11 0 0
BITMAP
8CCCCE70
00000B30
00002C00
00008600
0000D100
00059000
000B3000
002C0000
00860000
00D10000
05900000
ENDCHAR
STARTCHAR eight
ENCODING 56
SWIDTH 519 0
DWIDTH 9 0
BBX 8 11 1 0
BITMAP
1BCCCC40
960002D0
C20000B2
C20000C2
870003D0
1DDCDF40
970002D0
C20000C2
C20000B2
960001D0
1BCCCC40
ENDCHAR
STARTCHAR nine
ENCODING 57
SWIDTH 497 0
DWIDTH 9 0
BBX 7 11 1 0
BITMAP
2BCCCA10
B4000780
E00002B0
E00002C0
E00002C0
B50002C0
2ACCCDC0
000002C0
000002B0
00000780
5CCCCA10
ENDCHAR
STARTCHAR colon
ENCODING 58
SWIDTH 191 0
DWIDTH 3 0
BBX 2 9 1 0
BITMAP
C3
C3
A2
00
00
00
A2
C3
C3
ENDCHAR
STARTCHAR semicolon
ENCODING 59
SWIDTH 191 0
DWIDTH 3 0
BBX 2 12 1 -3
BITMAP
C3
C3
A2
00
00
00
20
C3
C3
B1
70
10
ENDCHAR
STARTCHAR less
ENCODING 60
SWIDTH 513 0
DWIDTH 9 0
BBX 8 7 1 2
BITMAP
000004A1
0028C830
5BA40000
AA400000
038C8200
00005AC0
00000010
ENDCHAR
STARTCHAR equal
ENCODING 61
SWIDTH 531 0
DWIDTH 10 0
BBX 8 4 1 4
BITMAP
8CCCCCC2
00000000
00000000
8CCCCCC2
ENDCHAR
STARTCHAR greater
ENCODING 62
SWIDTH 531 0
DWIDTH 10 0
BBX 8 7 1 2
BITMAP
76100000
16BA5000
00028C81
000027D2
016BA500
7C710000
10000000
ENDCHAR
STARTCHAR question
ENCODING 63
SWIDTH 473 0
DWIDTH 9 0
BBX 7 11 1 0
BITMAP
1ACCC500
87001D10
B3000A30
20001C10
0002B300
000C1000
001C0000
00010000
001B0000
002D0000
002D0000
ENDCHAR
STARTCHAR at
ENCODING 64
SWIDTH 753 0
DWIDTH 14 0
BBX 12 12 1 -1
BITMAP
003ACCCCCA10
05B3000004B0
1C00000000A1
6601ACCD4091
730A50085091
830D00085091
830D00085091
730D000850A1
660A502D52B0
1C01ACA6DB20
05B300000000
003ACCCC5000
ENDCHAR
STARTCHAR A
ENCODING 65
SWIDTH 533 0
DWIDTH 10 0
BBX 9 11 0 0
BITMAP
0000E80000
00059D0000
000A3A4000
001D059000
005800D000
00A300A400
01D0004900
05ECCCCE00
0A30000A40
1D00000590
58000000D0
ENDCHAR
STARTCHAR B
ENCODING 66
SWIDTH 546 0
DWIDTH 10 0
BBX 8 11 1 0
BITMAP
7ECCCD70
770000B4
77000076
77000076
770001C3
7ECCCE80
770001A5
77000058
77000058
77000096
7ECCCC90
ENDCHAR
STARTCHAR C
ENCODING 67
SWIDTH 542 0
DWIDTH 10 0
BBX 8 11 1 0
BITMAP
09CCCCA0
78000087
A400004A
A4000014
A4000000
A4000000
A4000000
A4000014
A400004A
78000087
1ACCCCA1
ENDCHAR
STARTCHAR D
ENCODING 68
SWIDTH 557 0
DWIDTH 10 0
BBX 8 11 1 0
BITMAP
7ECCCCA1
77000087
7700004A
7700003A
7700003A
7700003A
7700003A
7700003A
7700004A
77000087
7ECCCCA1
ENDCHAR
STARTCHAR E
ENCODING 69
SWIDTH 481 0
DWIDTH 9 0
BBX 7 11 1 0
BITMAP
7ECCCC50
77000000
77000000
77000000
77000000
7ECCCB00
77000000
77000000
77000000
77000000
7ECCCC50
ENDCHAR
STARTCHAR F
ENCODING 70
SWIDTH 459 0
DWIDTH 8 0
BBX 7 11 1 0
BITMAP
7ECCCC50
77000000
77000000
77000000
77000000
7ECCCB00
77000000
77000000
77000000
77000000
76000000
ENDCHAR
STARTCHAR G
ENCODING 71
SWIDTH 539 0
DWIDTH 10 0
BBX 8 11 1 0
BITMAP
09CCCC70
780001C3
A4000085
A4000021
A4000000
A400BCD5
A4000086
A4000086
A4000095
780001C2
1ACCCC60
ENDCHAR
STARTCHAR H
ENCODING 72
SWIDTH 570 0
DWIDTH 10 0
BBX 8 11 1 0
BITMAP
7600002B
7700003B
7700003B
7700003B
7700003B
7ECCCCDB
7700003B
7700003B
7700003B
7700003B
7600002B
ENDCHAR
STARTCHAR I
ENCODING 73
SWIDTH 230 0
DWIDTH 4 0
BBX 2 11 1 0
BITMAP
57
68
68
68
68
68
68
68
68
68
57
ENDCHAR
STARTCHAR J
ENCODING 74
SWIDTH 499 0
DWIDTH 9 0
BBX 8 11 0 0
BITMAP
00000058
00000058
00000058
00000058
00000058
00000058
00000058
59000058
49000068
2D1000A5
06CCCD80
ENDCHAR
STARTCHAR K
ENCODING 75
SWIDTH 530 0
DWIDTH 10 0
BBX 8 11 1 0
BITMAP
760001C4
77000970
77006B00
7703D100
771D3000
77BD4000
7D72D100
79005A00
77000960
770001C2
7600003B
ENDCHAR
STARTCHAR L
ENCODING 76
SWIDTH 451 0
DWIDTH 8 0
BBX 7 11 1 0
BITMAP
76000000
77000000
77000000
77000000
77000000
77000000
77000000
77000000
77000000
77000000
7ECCCC70
ENDCHAR
STARTCHAR M
ENCODING 77
SWIDTH 696 0
DWIDTH 13 0
BBX 10 11 1 0
BITMAP
7E1000007F
7D700000DE
77D000068E
7686000C2E
762C00490E
760A40B30E
7603B3B00E
7600BC400E
760038000E
760000000E
760000000D
ENDCHAR
STARTCHAR N
ENCODING 78
SWIDTH 579 0
DWIDTH 10 0
BBX 8 11 1 0
BITMAP
7A00000D
7F40000D
79C0000D
7787000D
771D200D
7705A00D
7700A50D
77002C1D
7700068D
770000CE
7600003D
ENDCHAR
STARTCHAR O
ENCODING 79
SWIDTH 553 0
DWIDTH 10 0
BBX 8 11 1 0
BITMAP
09CCCC90
78000096
A4000059
A4000049
A4000049
A4000049
A4000049
A4000049
A4000059
78000096
1ACCCC90
ENDCHAR
STARTCHAR P
ENCODING 80
SWIDTH 524 0
DWIDTH 9 0
BBX 8 11 1 0
BITMAP
7ECCCC60
770001C3
77000086
77000086
77000085
770001D2
7ECCCC50
77000000
77000000
77000000
76000000
ENDCHAR
STARTCHAR Q
ENCODING 81
SWIDTH 556 0
DWIDTH 10 0
BBX 8 13 1 -2
BITMAP
09CCCC90
69000096
94000049
9400004A
9400004A
9400004A
9400004A
9400004A
94000049
69000097
09CCCDA1
00005A00
00000950
ENDCHAR
STARTCHAR R
ENCODING 82
SWIDTH 534 0
DWIDTH 10 0
BBX 8 11 1 0
BITMAP
7ECCCD70
770001C3
77000085
77000085
770001C3
7ECCDD50
77004B00
77000D20
77000690
770001D1
76000087
ENDCHAR
STARTCHAR S
ENCODING 83
SWIDTH 562 0
DWIDTH 10 0
BBX 8 11 1 0
BITMAP
08DCCD90
5A000096
86000059
86000001
3D510000
028BC930
000004D3
21000059
8600004A
5A000097
08DCCDA0
ENDCHAR
STARTCHAR T
ENCODING 84
SWIDTH 420 0
DWIDTH 8 0
BBX 8 11 0 0
BITMAP
8CCEDCC2
000A4000
000A4000
000A4000
000A4000
000A4000
000A4000
000A4000
000A4000
000A4000
000A3000
ENDCHAR
STARTCHAR U
ENCODING 85
SWIDTH 552 0
DWIDTH 10 0
BBX 8 11 1 0
BITMAP
85000067
85000068
85000068
85000068
85000068
85000068
85000068
85000068
85000067
6A0000B4
09DCCD80
ENDCHAR
STARTCHAR V
ENCODING 86
SWIDTH 500 0
DWIDTH 9 0
BBX 9 11 0 0
BITMAP
6800000860
1D00000D10
0C20002C00
0770007700
02C000C200
00C101C000
0086068000
003B0B3000
000D1D0000
0008A80000
0003F30000
ENDCHAR
STARTCHAR W
ENCODING 87
SWIDTH 794 0
DWIDTH 14 0
BBX 14 11 0 0
BITMAP
5900008C00005A
2D0000CC100096
0D1001B75000C3
0A400673A001E0
06800A30C004B0
03B00D00A30770
00D03A00570A40
00B275001B0D10
0076B1000C2C00
004AC00008A800
001E700003F400
ENDCHAR
STARTCHAR X
ENCODING 88
SWIDTH 504 0
DWIDTH 9 0
BBX 9 11 0 0
BITMAP
1C10001C20
0690008700
00C302C000
003C0A4000
0008AA0000
0004F50000
000C5D0000
0069087000
01D101D200
0960005A00
3C00000B40
ENDCHAR
STARTCHAR Y
ENCODING 89
SWIDTH 493 0
DWIDTH 9 0
BBX 9 11 0 0
BITMAP
5A00000C30
0C30005B00
05A000C300
00C305A000
004A0C2000
000B890000
0003F20000
0000D00000
0000D00000
0000D00000
0000D00000
ENDCHAR
STARTCHAR Z
ENCODING 90
SWIDTH 482 0
DWIDTH 9 0
BBX 8 11 0 0
BITMAP
0CCCCCDB
000000B5
000005B0
00001D20
00009700
0004C000
001D3000
00880000
03D00000
0C400000
3FCCCCCB
ENDCHAR
STARTCHAR bracketleft
ENCODING 91
SWIDTH 287 0
DWIDTH 5 0
BBX 3 13 1 -2
BITMAP
CCB0
C000
C000
C000
C000
C000
C000
C000
C000
C000
C000
C000
BCB0
ENDCHAR
STARTCHAR backslash
ENCODING 92
SWIDTH 396 0
DWIDTH 7 0
BBX 5 11 1 0
BITMAP
B20000
680000
1D0000
0A5000
04A000
00D100
008600
002C00
000C30
000680
0001D0
ENDCHAR
STARTCHAR bracketright
ENCODING 93
SWIDTH 287 0
DWIDTH 5 0
BBX 3 13 1 -2
BITMAP
BCD0
00C0
00C0
00C0
00C0
00C0
00C0
00C0
00C0
00C0
00C0
00C0
BCC0
ENDCHAR
STARTCHAR asciicircum
ENCODING 94
SWIDTH 465 0
DWIDTH 8 0
BBX 7 5 1 6
BITMAP
00AD2000
03A59000
0B20C200
49004A00
B2000A20
ENDCHAR
STARTCHAR underscore
ENCODING 95
SWIDTH 372 0
DWIDTH 7 0
BBX 7 1 0 -2
BITMAP
BCCCCC80
ENDCHAR
STARTCHAR grave
ENCODING 96
SWIDTH 269 0
DWIDTH 5 0
BBX 3 3 1 9
BITMAP
8900
0B30
0140
ENDCHAR
STARTCHAR a
ENCODING 97
SWIDTH 502 0
DWIDTH 9 0
BBX 7 9 1 0
BITMAP
1BCCCDA0
960003A0
C10003A0
C10003A0
C10003A0
C10003A0
C10004A0
960009A0
1BCCC8A0
ENDCHAR
STARTCHAR b
ENCODING 98
SWIDTH 504 0
DWIDTH 9 0
BBX 7 12 1 0
BITMAP
A3000000
A4000000
A4000000
A7BCCB20
A90005A0
A40000D0
A40000E0
A40000E0
A40000E0
A40000D0
A40005A0
ADCCCB20
ENDCHAR
STARTCHAR c
ENCODING 99
SWIDTH 394 0
DWIDTH 7 0
BBX 6 9 1 0
BITMAP
1BCCC5
960000
C10000
C10000
C10000
C10000
C10000
960000
1BCCC5
ENDCHAR
STARTCHAR d
ENCODING 100
SWIDTH 504 0
DWIDTH 9 0
BBX 7 12 1 0
BITMAP
000002B0
000003B0
000003B0
1BCCB7B0
960008B0
C10003B0
C10003B0
C10003B0
C10003B0
C10003B0
960008B0
1BCCC7B0
ENDCHAR
STARTCHAR e
ENCODING 101
SWIDTH 492 0
DWIDTH 9 0
BBX 7 9 1 0
BITMAP
1BCCCA10
96000780
C10002B0
C10002C0
CDCCCDA0
C1000000
C1000000
96000000
1BCCCC70
ENDCHAR
STARTCHAR f
ENCODING 102
SWIDTH 303 0
DWIDTH 5 0
BBX 6 12 0 0
BITMAP
003CC1
00B400
00D100
4CFDC1
00D100
00D100
00D100
00D100
00D100
00D100
00D100
00C100
ENDCHAR
STARTCHAR g
ENCODING 103
SWIDTH 506 0
DWIDTH 9 0
BBX 7 11 1 -2
BITMAP
1BCCCDB0
970002C0
B20002C0
C20002C0
C20002C0
B20002C0
880008C0
19CCB6C0
000003C0
00000790
2CCCCA10
ENDCHAR
STARTCHAR h
ENCODING 104
SWIDTH 507 0
DWIDTH 9 0
BBX 7 12 1 0
BITMAP
A3000000
A4000000
A4000000
A8CCCB20
A90006A0
A40001D0
A40000D0
A40000D0
A40000D0
A40000D0
A40000D0
A30000C0
ENDCHAR
STARTCHAR i
ENCODING 105
SWIDTH 210 0
DWIDTH 4 0
BBX 2 12 1 0
BITMAP
85
85
10
85
85
85
85
85
85
85
85
85
ENDCHAR
STARTCHAR j
ENCODING 106
SWIDTH 210 0
DWIDTH 4 0
BBX 4 14 -1 -2
BITMAP
0085
0085
0010
0085
0085
0085
0085
0085
0085
0085
0085
0095
01D2
BD60
ENDCHAR
STARTCHAR k
ENCODING 107
SWIDTH 431 0
DWIDTH 8 0
BBX 7 12 1 0
BITMAP
A3000000
A4000000
A4000000
A4002D10
A400B500
A406A000
A42D1000
A4790000
A40C3000
A403C100
A4007900
A3000B40
ENDCHAR
STARTCHAR l
ENCODING 108
SWIDTH 210 0
DWIDTH 4 0
BBX 2 12 1 0
BITMAP
85
85
85
85
85
85
85
85
85
85
85
85
ENDCHAR
STARTCHAR m
ENCODING 109
SWIDTH 769 0
DWIDTH 14 0
BBX 12 9 1 0
BITMAP
A7CCD73BCD90
A9001CB100A5
A40008700058
A40007700059
A40007700059
A40007700059
A40007700059
A40007700059
A30007600058
ENDCHAR
STARTCHAR n
ENCODING 110
SWIDTH 507 0
DWIDTH 9 0
BBX 7 9 1 0
BITMAP
A7CCCB20
A90006A0
A40001D0
A40000D0
A40000D0
A40000D0
A40000D0
A40000D0
A30000C0
ENDCHAR
STARTCHAR o
ENCODING 111
SWIDTH 496 0
DWIDTH 9 0
BBX 7 9 1 0
BITMAP
1BCCCA10
96000780
C10002B0
C10002C0
C10002C0
C10002C0
C10002B0
96000780
1BCCCA10
ENDCHAR
STARTCHAR p
ENCODING 112
SWIDTH 504 0
DWIDTH 9 0
BBX 7 11 1 -2
BITMAP
A7BCCB20
A90005A0
A40000D0
A40000E0
A40000E0
A40000E0
A40000D0
A90005A0
A8CCCB20
A4000000
A3000000
ENDCHAR
STARTCHAR q
ENCODING 113
SWIDTH 502 0
DWIDTH 9 0
BBX 7 11 1 -2
BITMAP
1BCCCDA0
960003A0
C10003A0
C10003A0
C10003A0
C10003A0
C10004A0
960009A0
1BCCC8A0
000003A0
000003A0
ENDCHAR
STARTCHAR r
ENCODING 114
SWIDTH 313 0
DWIDTH 6 0
BBX 5 9 1 0
BITMAP
A7CC10
AA0000
A40000
A40000
A40000
A40000
A40000
A40000
A30000
ENDCHAR
STARTCHAR s
ENCODING 115
SWIDTH 431 0
DWIDTH 8 0
BBX 7 9 0 0
BITMAP
06DCCC40
0E100000
1D000000
08B40000
0028C700
00000980
000003B0
000005A0
0CCCCC30
ENDCHAR
STARTCHAR t
ENCODING 116
SWIDTH 347 0
DWIDTH 6 0
BBX 6 11 0 0
BITMAP
01C000
02D000
6DFCC3
01C000
01C000
01C000
01C000
01C000
01D000
00D300
003CC6
ENDCHAR
STARTCHAR u
ENCODING 117
SWIDTH 507 0
DWIDTH 9 0
BBX 7 9 1 0
BITMAP
B20002B0
B20002C0
B20002C0
B20002C0
B20002C0
B20002C0
B30002C0
870007C0
1ACCC7B0
ENDCHAR
STARTCHAR v
ENCODING 118
SWIDTH 416 0
DWIDTH 7 0
BBX 8 9 0 0
BITMAP
850000D1
4A0003B0
0D100860
09500C10
04902B00
00D07600
00A3B200
0059C000
001E7000
ENDCHAR
STARTCHAR w
ENCODING 119
SWIDTH 683 0
DWIDTH 12 0
BBX 12 9 0 0
BITMAP
860006B0002C
4A000BD00068
0D000B8400B3
0A40484800D0
0680840C04A0
01C0B00B1850
00C2B0075C10
007A7003BB00
003F3000D700
ENDCHAR
STARTCHAR x
ENCODING 120
SWIDTH 413 0
DWIDTH 7 0
BBX 7 9 0 0
BITMAP
3C000690
0A601D10
02D18600
0078C000
001F7000
0088C100
02C06900
0B400C30
5A0004C0
ENDCHAR
STARTCHAR y
ENCODING 121
SWIDTH 459 0
DWIDTH 8 0
BBX 8 11 0 -2
BITMAP
5800004A
1D0000A4
095001D0
04A00680
00D10C20
00762C00
002C8600
000AE100
0004A000
001C3000
1CC50000
ENDCHAR
STARTCHAR z
ENCODING 122
SWIDTH 405 0
DWIDTH 7 0
BBX 7 9 0 0
BITMAP
3CCCCE80
00001D20
0000A700
0004C000
001D3000
00880000
03D00000
0C400000
5FCCCC80
ENDCHAR
STARTCHAR braceleft
ENCODING 123
SWIDTH 298 0
DWIDTH 5 0
BBX 5 13 0 -2
BITMAP
005C30
00C100
00C000
00C000
00B000
03A000
4E3000
03A000
00B000
00C000
00C000
00C100
004C30
ENDCHAR
STARTCHAR bar
ENCODING 124
SWIDTH 207 0
DWIDTH 4 0
BBX 2 11 1 0
BITMAP
83
84
84
84
84
84
84
84
84
84
83
ENDCHAR
STARTCHAR braceright
ENCODING 125
SWIDTH 298 0
DWIDTH 5 0
BBX 5 13 0 -2
BITMAP
4C4000
01C000
00C000
00C000
00C000
00A200
003E30
00B300
00C000
00C000
00C000
02C000
4C3000
ENDCHAR
STARTCHAR asciitilde
ENCODING 126
SWIDTH 523 0
DWIDTH 9 0
BBX 8 1 1 5
BITMAP
6BCCCCA1
ENDCHAR
STARTCHAR uni00A0
ENCODING 160
SWIDTH 267 0
DWIDTH 5 0
BBX 1 1 0 0
BITMAP
00
ENDCHAR
STARTCHAR exclamdown
ENCODING 161
SWIDTH 237 0
DWIDTH 4 0
BBX 2 11 1 0
BITMAP
59
59
47
37
48
58
59
59
6A
6A
5A
ENDCHAR
STARTCHAR cent
ENCODING 162
SWIDTH 414 0
DWIDTH 7 0
BBX 6 13 1 -2
BITMAP
000B10
000B10
1BCCC9
960000
C10000
C10000
C10000
C10000
C10000
960000
1BCCC9
000B10
000500
ENDCHAR
STARTCHAR sterling
ENCODING 163
SWIDTH 528 0
DWIDTH 10 0
BBX 9 11 0 0
BITMAP
004CCCC500
00D2001D10
00D0000920
00D0000000
00D0000000
4CFCCC0000
00D0000000
00D0000000
00D0000000
03B0000000
4EDCCCCC30
ENDCHAR
STARTCHAR yen
ENCODING 165
SWIDTH 499 0
DWIDTH 9 0
BBX 9 11 0 0
BITMAP
4A00000B40
0C30004C00
04B000B400
00C304B000
004A0B4000
3BBE6EBB30
0002F20000
4CCCFCCC30
0000E00000
0000E00000
0000D00000
ENDCHAR
STARTCHAR brokenbar
ENCODING 166
SWIDTH 201 0
DWIDTH 4 0
BBX 2 11 1 0
BITMAP
93
93
93
93
93
00
93
93
93
93
93
ENDCHAR
STARTCHAR section
ENCODING 167
SWIDTH 454 0
DWIDTH 8 0
BBX 7 11 1 0
BITMAP
4CCCC600
C3000000
E1000000
EB741000
D158C800
D1000D10
5C752C10
0036AF10
00000D10
00001E00
9CCCC500
ENDCHAR
STARTCHAR dieresis
ENCODING 168
SWIDTH 345 0
DWIDTH 6 0
BBX 4 3 1 9
BITMAP
C10C
C10D
1001
ENDCHAR
STARTCHAR copyright
ENCODING 169
SWIDTH 723 0
DWIDTH 13 0
BBX 11 11 1 0
BITMAP
1ACCCCCCCA10
850000000580
A105CCC400A0
B00B001B00B0
B00B000600B0
B00B000000B0
B00B000800B0
B00B001B00B0
A103A99300A0
850000000580
1BCCCCCCCB10
ENDCHAR
STARTCHAR guillemotleft
ENCODING 171
SWIDTH 431 0
DWIDTH 8 0
BBX 6 7 1 1
BITMAP
004004
0590A3
591A40
B14800
3B1860
03B085
002002
ENDCHAR
STARTCHAR registered
ENCODING 174
SWIDTH 439 0
DWIDTH 8 0
BBX 6 6 1 6
BITMAP
3CCCC2
91DC18
807718
80DC08
924428
2BCCB2
ENDCHAR
STARTCHAR macron
ENCODING 175
SWIDTH 358 0
DWIDTH 6 0
BBX 5 1 1 10
BITMAP
9CCC20
ENDCHAR
STARTCHAR degree
ENCODING 176
SWIDTH 298 0
DWIDTH 5 0
BBX 3 4 1 8
BITMAP
6DA0
9090
9090
5D90
ENDCHAR
STARTCHAR plusminus
ENCODING 177
SWIDTH 523 0
DWIDTH 9 0
BBX 8 7 1 2
BITMAP
000A2000
000B2000
8CCEDCC1
000B2000
000A2000
00000000
8CCCCCC1
ENDCHAR
STARTCHAR acute
ENCODING 180
SWIDTH 269 0
DWIDTH 5 0
BBX 3 3 1 9
BITMAP
0B50
5900
5000
ENDCHAR
STARTCHAR paragraph
ENCODING 182
SWIDTH 513 0
DWIDTH 9 0
BBX 8 11 0 0
BITMAP
06EFCCDA
0FFD002A
1FFD002A
1FFD002A
0DFD002A
016D002A
000C002A
000C002A
000C002A
000C002A
000C002A
ENDCHAR
STARTCHAR periodcentered
ENCODING 183
SWIDTH 207 0
DWIDTH 4 0
BBX 2 3 1 4
BITMAP
84
A5
95
ENDCHAR
STARTCHAR cedilla
ENCODING 184
SWIDTH 257 0
DWIDTH 5 0
BBX 3 4 1 -3
BITMAP
3900
9A20
0560
8C20
ENDCHAR
STARTCHAR guillemotright
ENCODING 187
SWIDTH 431 0
DWIDTH 8 0
BBX 6 7 1 1
BITMAP
503200
781B20
0781B2
00B048
0953B1
952A10
202100
ENDCHAR
STARTCHAR questiondown
ENCODING 191
SWIDTH 473 0
DWIDTH 9 0
BBX 7 11 1 0
BITMAP
00590000
005A0000
00480000
00010000
00590000
00860000
09800000
77000200
B3000A30
87001D10
1ACCC500
ENDCHAR
STARTCHAR Agrave
ENCODING 192
SWIDTH 532 0
DWIDTH 10 0
BBX 9 15 0 0
BITMAP
003D100000
0006800000
0000500000
0000000000
0000E80000
00059D0000
000A3A4000
001D059000
005800D000
00A300A400
01D0004900
05ECCCCE00
0A30000A40
1D00000590
58000000D0
ENDCHAR
STARTCHAR Aacute
ENCODING 193
SWIDTH 532 0
DWIDTH 10 0
BBX 9 15 0 0
BITMAP
000006B000
00001C1000
0000330000
0000000000
0000E80000
00059D0000
000A3A4000
001D059000
005800D000
00A300A400
01D0004900
05ECCCCE00
0A30000A40
1D00000590
58000000D0
ENDCHAR
STARTCHAR Acircumflex
ENCODING 194
SWIDTH 532 0
DWIDTH 10 0
BBX 9 15 0 0
BITMAP
0001B70000
00074A1000
0006023000
0000000000
0000E80000
00059D0000
000A3A4000
001D059000
005800D000
00A300A400
01D0004900
05ECCCCE00
0A30000A40
1D00000590
58000000D0
ENDCHAR
STARTCHAR Atilde
ENCODING 195
SWIDTH 532 0
DWIDTH 10 0
BBX 9 15 0 0
BITMAP
00162C6000
0017729000
0008706000
0000000000
0000E80000
00059D0000
000A3A4000
001D059000
005800D000
00A300A400
01D0004900
05ECCCCE00
0A30000A40
1D00000590
58000000D0
ENDCHAR
STARTCHAR Adieresis
ENCODING 196
SWIDTH 532 0
DWIDTH 10 0
BBX 9 15 0 0
BITMAP
002B03A000
002B03B000
0001001000
0000000000
0000E80000
00059D0000
000A3A4000
001D059000
005800D000
00A300A400
01D0004900
05ECCCCE00
0A30000A40
1D00000590
58000000D0
ENDCHAR
STARTCHAR Aring
ENCODING 197
SWIDTH 532 0
DWIDTH 10 0
BBX 9 16 0 0
BITMAP
0004CA0000
0009173000
0008054000
0009173000
0003C90000
0000E80000
00059D0000
000A3A4000
001D059000
005800D000
00A300A400
01D0004900
05ECCCCE00
0A30000A40
1D00000590
58000000D0
ENDCHAR
STARTCHAR AE
ENCODING 198
SWIDTH 773 0
DWIDTH 14 0
BBX 13 11 0 0
BITMAP
000001EECCCC90
0000099B000000
00003C3B000000
0000B33B000000
0005903B000000
001C103ECCCC20
0076003B000000
02ECCCDB000000
0A50003B000000
3B00003B000000
B300003ECCCC90
ENDCHAR
STARTCHAR Ccedilla
ENCODING 199
SWIDTH 542 0
DWIDTH 10 0
BBX 8 14 1 -3
BITMAP
09CCCCA0
78000087
A400004A
A4000014
A4000000
A4000000
A4000000
A4000014
A400004A
78000087
1ACCCCA1
00087000
00028400
0009C200
ENDCHAR
STARTCHAR Egrave
ENCODING 200
SWIDTH 481 0
DWIDTH 9 0
BBX 7 15 1 0
BITMAP
03D10000
00680000
00050000
00000000
7ECCCC50
77000000
77000000
77000000
77000000
7ECCCB00
77000000
77000000
77000000
77000000
7ECCCC50
ENDCHAR
STARTCHAR Eacute
ENCODING 201
SWIDTH 481 0
DWIDTH 9 0
BBX 7 15 1 0
BITMAP
0001D300
00077000
00050000
00000000
7ECCCC50
77000000
77000000
77000000
77000000
7ECCCB00
77000000
77000000
77000000
77000000
7ECCCC50
ENDCHAR
STARTCHAR Ecircumflex
ENCODING 202
SWIDTH 481 0
DWIDTH 9 0
BBX 7 15 1 0
BITMAP
004C3000
00B2A000
01404100
00000000
7ECCCC50
77000000
77000000
77000000
77000000
7ECCCB00
77000000
77000000
77000000
77000000
7ECCCC50
ENDCHAR
STARTCHAR Edieresis
ENCODING 203
SWIDTH 481 0
DWIDTH 9 0
BBX 7 15 1 0
BITMAP
06707600
06707600
01101100
00000000
7ECCCC50
77000000
77000000
77000000
77000000
7ECCCB00
77000000
77000000
77000000
77000000
7ECCCC50
ENDCHAR
STARTCHAR Igrave
ENCODING 204
SWIDTH 230 0
DWIDTH 4 0
BBX 3 15 0 0
BITMAP
B500
2C00
0320
0000
0570
0680
0680
0680
0680
0680
0680
0680
0680
0680
0570
ENDCHAR
STARTCHAR Iacute
ENCODING 205
SWIDTH 231 0
DWIDTH 4 0
BBX 4 15 1 0
BITMAP
03D1
0B30
1400
0000
5700
6800
6800
6800
6800
6800
6800
6800
6800
6800
5700
ENDCHAR
STARTCHAR Icircumflex
ENCODING 206
SWIDTH 229 0
DWIDTH 4 0
BBX 4 15 0 0
BITMAP
09A0
3865
4105
0000
0570
0680
0680
0680
0680
0680
0680
0680
0680
0680
0570
ENDCHAR
STARTCHAR Idieresis
ENCODING 207
SWIDTH 230 0
DWIDTH 4 0
BBX 4 15 0 0
BITMAP
C10D
D10D
2002
0000
0570
0680
0680
0680
0680
0680
0680
0680
0680
0680
0570
ENDCHAR
STARTCHAR Eth
ENCODING 208
SWIDTH 514 0
DWIDTH 9 0
BBX 9 11 0 0
BITMAP
06ECCCCA10
0670000780
06700003B0
06700003B0
06700003B0
6EECC603B0
06700003B0
06700003B0
06700003B0
0670000780
06ECCCCA10
ENDCHAR
STARTCHAR Ntilde
ENCODING 209
SWIDTH 579 0
DWIDTH 10 0
BBX 8 15 1 0
BITMAP
00709B00
00928720
006C2520
00000000
7A00000D
7F40000D
79C0000D
7787000D
771D200D
7705A00D
7700A50D
77002C1D
7700068D
770000CE
7600003D
ENDCHAR
STARTCHAR Ograve
ENCODING 210
SWIDTH 553 0
DWIDTH 10 0
BBX 8 15 1 0
BITMAP
00C50000
002C0000
00032000
00000000
09CCCC90
78000096
A4000059
A4000049
A4000049
A4000049
A4000049
A4000049
A4000059
78000096
1ACCCC90
ENDCHAR
STARTCHAR Oacute
ENCODING 211
SWIDTH 553 0
DWIDTH 10 0
BBX 8 15 1 0
BITMAP
00006B00
0001C100
00033000
00000000
09CCCC90
78000096
A4000059
A4000049
A4000049
A4000049
A4000049
A4000049
A4000059
78000096
1ACCCC90
ENDCHAR
STARTCHAR Ocircumflex
ENCODING 212
SWIDTH 553 0
DWIDTH 10 0
BBX 8 15 1 0
BITMAP
000A9000
00478400
00511500
00000000
09CCCC90
78000096
A4000059
A4000049
A4000049
A4000049
A4000049
A4000049
A4000059
78000096
1ACCCC90
ENDCHAR
STARTCHAR Otilde
ENCODING 213
SWIDTH 553 0
DWIDTH 10 0
BBX 8 15 1 0
BITMAP
0070C800
00954900
009B0700
00000000
09CCCC90
78000096
A4000059
A4000049
A4000049
A4000049
A4000049
A4000049
A4000059
78000096
1ACCCC90
ENDCHAR
STARTCHAR Odieresis
ENCODING 214
SWIDTH 553 0
DWIDTH 10 0
BBX 8 15 1 0
BITMAP
00D00D00
00D00D00
00100200
00000000
09CCCC90
78000096
A4000059
A4000049
A4000049
A4000049
A4000049
A4000049
A4000059
78000096
1ACCCC90
ENDCHAR
STARTCHAR multiply
ENCODING 215
SWIDTH 493 0
DWIDTH 9 0
BBX 7 6 1 3
BITMAP
14000400
1C507B00
01CAB000
008F5000
07B2C500
2A001B10
ENDCHAR
STARTCHAR Oslash
ENCODING 216
SWIDTH 559 0
DWIDTH 10 0
BBX 10 11 0 0
BITMAP
009CCCC971
0690000AA0
0940002DA0
094001B5A0
09400944A0
09406704A0
0943A004A0
095B1004A0
09D30004A0
08B0000870
199DCCCA10
ENDCHAR
STARTCHAR Ugrave
ENCODING 217
SWIDTH 552 0
DWIDTH 10 0
BBX 8 15 1 0
BITMAP
00B60000
001C1000
00033000
00000000
85000067
85000068
85000068
85000068
85000068
85000068
85000068
85000068
85000067
6A0000B4
09DCCD80
ENDCHAR
STARTCHAR Uacute
ENCODING 218
SWIDTH 552 0
DWIDTH 10 0
BBX 8 15 1 0
BITMAP
00006B00
0001C100
00033000
00000000
85000067
85000068
85000068
85000068
85000068
85000068
85000068
85000068
85000067
6A0000B4
09DCCD80
ENDCHAR
STARTCHAR Ucircumflex
ENCODING 219
SWIDTH 552 0
DWIDTH 10 0
BBX 8 15 1 0
BITMAP
000AA000
00478400
00511500
00000000
85000067
85000068
85000068
85000068
85000068
85000068
85000068
85000068
85000067
6A0000B4
09DCCD80
ENDCHAR
STARTCHAR Udieresis
ENCODING 220
SWIDTH 552 0
DWIDTH 10 0
BBX 8 15 1 0
BITMAP
00D00D00
00D00D00
00100200
00000000
85000067
85000068
85000068
85000068
85000068
85000068
85000068
85000068
85000067
6A0000B4
09DCCD80
ENDCHAR
STARTCHAR Yacute
ENCODING 221
SWIDTH 493 0
DWIDTH 9 0
BBX 9 15 0 0
BITMAP
00001D3000
0000770000
0000500000
0000000000
5A00000C30
0C30005B00
05A000C300
00C305A000
004A0C2000
000B890000
0003F20000
0000D00000
0000D00000
0000D00000
0000D00000
ENDCHAR
STARTCHAR Thorn
ENCODING 222
SWIDTH 501 0
DWIDTH 9 0
BBX 6 11 2 0
BITMAP
D00000
E00000
ECCCA1
E00088
E0003B
E0002C
E0003B
E00097
ECCC90
E00000
D00000
ENDCHAR
STARTCHAR germandbls
ENCODING 223
SWIDTH 540 0
DWIDTH 10 0
BBX 8 11 1 0
BITMAP
09DCCC50
6A0001D1
850000A4
950000A4
950002D1
9507DF60
950002C3
95000076
95000077
950000B4
850BCD80
ENDCHAR
STARTCHAR agrave
ENCODING 224
SWIDTH 502 0
DWIDTH 9 0
BBX 7 12 1 0
BITMAP
00A60000
000A2000
00000000
1BCCCDA0
960003A0
C10003A0
C10003A0
C10003A0
C10003A0
C10004A0
960009A0
1BCCC8A0
ENDCHAR
STARTCHAR aacute
ENCODING 225
SWIDTH 502 0
DWIDTH 9 0
BBX 7 12 1 0
BITMAP
0000B600
00066000
00000000
1BCCCDA0
960003A0
C10003A0
C10003A0
C10003A0
C10003A0
C10004A0
960009A0
1BCCC8A0
ENDCHAR
STARTCHAR acircumflex
ENCODING 226
SWIDTH 502 0
DWIDTH 9 0
BBX 7 12 1 0
BITMAP
002B7000
00A18300
00000000
1BCCCDA0
960003A0
C10003A0
C10003A0
C10003A0
C10003A0
C10004A0
960009A0
1BCCC8A0
ENDCHAR
STARTCHAR atilde
ENCODING 227
SWIDTH 504 0
DWIDTH 9 0
BBX 7 12 1 0
BITMAP
0083D900
00881600
00000000
1BCCCDA0
960003A0
C10003A0
C10003A0
C10003A0
C10003A0
C10004A0
960009A0
1BCCC8A0
ENDCHAR
STARTCHAR adieresis
ENCODING 228
SWIDTH 502 0
DWIDTH 9 0
BBX 7 12 1 0
BITMAP
01B02B00
02C03B00
00100100
1BCCCDA0
960003A0
C10003A0
C10003A0
C10003A0
C10003A0
C10004A0
960009A0
1BCCC8A0
ENDCHAR
STARTCHAR aring
ENCODING 229
SWIDTH 502 0
DWIDTH 9 0
BBX 7 13 1 0
BITMAP
008CA000
00908100
008CA000
00000000
1BCCCDA0
960003A0
C10003A0
C10003A0
C10003A0
C10003A0
C10004A0
960009A0
1BCCC8A0
ENDCHAR
STARTCHAR ae
ENCODING 230
SWIDTH 795 0
DWIDTH 14 0
BBX 13 9 1 0
BITMAP
0BCCC94CCCC400
000008D1001D00
000004A0000A20
19CCCDA0000A20
870004ECCCCD20
C10004A0000000
C10004A0000000
96000AE2000000
1ACCC75DCCCC10
ENDCHAR
STARTCHAR ccedilla
ENCODING 231
SWIDTH 394 0
DWIDTH 7 0
BBX 6 12 1 -3
BITMAP
1BCCC5
960000
C10000
C10000
C10000
C10000
C10000
960000
1BCCC5
004A10
001490
005D50
ENDCHAR
STARTCHAR egrave
ENCODING 232
SWIDTH 492 0
DWIDTH 9 0
BBX 7 12 1 0
BITMAP
03D10000
00390000
00000000
1BCCCA10
96000780
C10002B0
C10002C0
CDCCCDA0
C1000000
C1000000
96000000
1BCCCC70
ENDCHAR
STARTCHAR eacute
ENCODING 233
SWIDTH 492 0
DWIDTH 9 0
BBX 7 12 1 0
BITMAP
0003C100
000B2000
00000000
1BCCCA10
96000780
C10002B0
C10002C0
CDCCCDA0
C1000000
C1000000
96000000
1BCCCC70
ENDCHAR
STARTCHAR ecircumflex
ENCODING 234
SWIDTH 492 0
DWIDTH 9 0
BBX 7 12 1 0
BITMAP
005B4000
01A0A100
00000000
1BCCCA10
96000780
C10002B0
C10002C0
CDCCCDA0
C1000000
C1000000
96000000
1BCCCC70
ENDCHAR
STARTCHAR edieresis
ENCODING 235
SWIDTH 492 0
DWIDTH 9 0
BBX 7 12 1 0
BITMAP
06707600
06707600
01101100
1BCCCA10
96000780
C10002B0
C10002C0
CDCCCDA0
C1000000
C1000000
96000000
1BCCCC70
ENDCHAR
STARTCHAR igrave
ENCODING 236
SWIDTH 210 0
DWIDTH 4 0
BBX 4 12 -1 0
BITMAP
1C40
01B1
0000
0085
0085
0085
0085
0085
0085
0085
0085
0085
ENDCHAR
STARTCHAR iacute
ENCODING 237
SWIDTH 208 0
DWIDTH 4 0
BBX 3 12 1 0
BITMAP
0790
3A00
0000
8500
8500
8500
8500
8500
8500
8500
8500
8500
ENDCHAR
STARTCHAR icircumflex
ENCODING 238
SWIDTH 210 0
DWIDTH 4 0
BBX 4 12 0 0
BITMAP
1A90
8365
0000
0850
0850
0850
0850
0850
0850
0850
0850
0850
ENDCHAR
STARTCHAR idieresis
ENCODING 239
SWIDTH 210 0
DWIDTH 4 0
BBX 4 12 0 0
BITMAP
C01C
D01C
2001
0850
0850
0850
0850
0850
0850
0850
0850
0850
ENDCHAR
STARTCHAR eth
ENCODING 240
SWIDTH 488 0
DWIDTH 9 0
BBX 7 12 1 0
BITMAP
05803900
0099A100
007D6000
0860B500
01001D30
19CCC990
97000AA0
C10004A0
C10004A0
C10004A0
A6000870
2BCCCA10
ENDCHAR
STARTCHAR ntilde
ENCODING 241
SWIDTH 507 0
DWIDTH 9 0
BBX 7 12 1 0
BITMAP
0538D500
03D91700
00000000
A7CCCB20
A90006A0
A40001D0
A40000D0
A40000D0
A40000D0
A40000D0
A40000D0
A30000C0
ENDCHAR
STARTCHAR ograve
ENCODING 242
SWIDTH 496 0
DWIDTH 9 0
BBX 7 12 1 0
BITMAP
04C10000
00580000
00000000
1BCCCA10
96000780
C10002B0
C10002C0
C10002C0
C10002C0
C10002B0
96000780
1BCCCA10
ENDCHAR
STARTCHAR oacute
ENCODING 243
SWIDTH 496 0
DWIDTH 9 0
BBX 7 12 1 0
BITMAP
0001C400
00094000
00000000
1BCCCA10
96000780
C10002B0
C10002C0
C10002C0
C10002C0
C10002B0
96000780
1BCCCA10
ENDCHAR
STARTCHAR ocircumflex
ENCODING 244
SWIDTH 496 0
DWIDTH 9 0
BBX 7 12 1 0
BITMAP
005B4000
01A0A100
00000000
1BCCCA10
96000780
C10002B0
C10002C0
C10002C0
C10002C0
C10002B0
96000780
1BCCCA10
ENDCHAR
STARTCHAR otilde
ENCODING 245
SWIDTH 496 0
DWIDTH 9 0
BBX 7 12 1 0
BITMAP
071AD300
04D73500
00000000
1BCCCA10
96000780
C10002B0
C10002C0
C10002C0
C10002C0
C10002B0
96000780
1BCCCA10
ENDCHAR
STARTCHAR odieresis
ENCODING 246
SWIDTH 496 0
DWIDTH 9 0
BBX 7 12 1 0
BITMAP
06607500
07708600
01101100
1BCCCA10
96000780
C10002B0
C10002C0
C10002C0
C10002C0
C10002B0
96000780
1BCCCA10
ENDCHAR
STARTCHAR divide
ENCODING 247
SWIDTH 510 0
DWIDTH 9 0
BBX 7 8 1 1
BITMAP
000B0000
00090000
00000000
7CCCCCA0
00000000
00000000
000B0000
00010000
ENDCHAR
STARTCHAR oslash
ENCODING 248
SWIDTH 521 0
DWIDTH 9 0
BBX 9 9 0 0
BITMAP
009CCCC250
0690004E50
095000AE00
09400A4E00
0941A40E00
095B400E00
09D3000E00
1CA0004C00
439DCCB200
ENDCHAR
STARTCHAR ugrave
ENCODING 249
SWIDTH 507 0
DWIDTH 9 0
BBX 7 12 1 0
BITMAP
03C10000
00490000
00000000
B20002B0
B20002C0
B20002C0
B20002C0
B20002C0
B20002C0
B30002C0
870007C0
1ACCC7B0
ENDCHAR
STARTCHAR uacute
ENCODING 250
SWIDTH 507 0
DWIDTH 9 0
BBX 7 12 1 0
BITMAP
0001C400
00085000
00000000
B20002B0
B20002C0
B20002C0
B20002C0
B20002C0
B20002C0
B30002C0
870007C0
1ACCC7B0
ENDCHAR
STARTCHAR ucircumflex
ENCODING 251
SWIDTH 507 0
DWIDTH 9 0
BBX 7 12 1 0
BITMAP
004B5000
01A0A100
00000000
B20002B0
B20002C0
B20002C0
B20002C0
B20002C0
B20002C0
B30002C0
870007C0
1ACCC7B0
ENDCHAR
STARTCHAR udieresis
ENCODING 252
SWIDTH 507 0
DWIDTH 9 0
BBX 7 12 1 0
BITMAP
06707600
06707600
01101100
B20002B0
B20002C0
B20002C0
B20002C0
B20002C0
B20002C0
B30002C0
870007C0
1ACCC7B0
ENDCHAR
STARTCHAR yacute
ENCODING 253
SWIDTH 459 0
DWIDTH 8 0
BBX 8 14 0 -2
BITMAP
00004C10
0001B100
00000000
5800004A
1D0000A4
095001D0
04A00680
00D10C20
00762C00
002C8600
000AE100
0004A000
001C3000
1CC50000
ENDCHAR
STARTCHAR thorn
ENCODING 254
SWIDTH 508 0
DWIDTH 9 0
BBX 7 14 1 -2
BITMAP
85000000
95000000
95000000
98BCCB20
9A0004B0
950000D0
950000D0
950000D0
950000D0
950000D0
9A0004B0
98BCCB20
95000000
85000000
ENDCHAR
STARTCHAR ydieresis
ENCODING 255
SWIDTH 459 0
DWIDTH 8 0
BBX 8 14 0 -2
BITMAP
00B10C10
00B20C10
00100100
5800004A
1D0000A4
095001D0
04A00680
00D10C20
00762C00
002C8600
000AE100
0004A000
001C3000
1CC50000
ENDCHAR
STARTCHAR Amacron
ENCODING 256
SWIDTH 532 0
DWIDTH 10 0
BBX 9 14 0 0
BITMAP
002CCC9000
0000000000
0000000000
0000E80000
00059D0000
000A3A4000
001D059000
005800D000
00A300A400
01D0004900
05ECCCCE00
0A30000A40
1D00000590
58000000D0
ENDCHAR
STARTCHAR amacron
ENCODING 257
SWIDTH 502 0
DWIDTH 9 0
BBX 7 11 1 0
BITMAP
00CCCB00
00000000
1BCCCDA0
960003A0
C10003A0
C10003A0
C10003A0
C10003A0
C10004A0
960009A0
1BCCC8A0
ENDCHAR
STARTCHAR Abreve
ENCODING 258
SWIDTH 532 0
DWIDTH 10 0
BBX 9 15 0 0
BITMAP
0009018000
000A037000
0004981000
0000000000
0000E80000
00059D0000
000A3A4000
001D059000
005800D000
00A300A400
01D0004900
05ECCCCE00
0A30000A40
1D00000590
58000000D0
ENDCHAR
STARTCHAR abreve
ENCODING 259
SWIDTH 502 0
DWIDTH 9 0
BBX 7 12 1 0
BITMAP
00A01900
00589200
00000000
1BCCCDA0
960003A0
C10003A0
C10003A0
C10003A0
C10003A0
C10004A0
960009A0
1BCCC8A0
ENDCHAR
STARTCHAR Aogonek
ENCODING 260
SWIDTH 532 0
DWIDTH 10 0
BBX 9 13 0 -2
BITMAP
0000E80000
00059D0000
000A3A4000
001D059000
005800D000
00A300A400
01D0004900
05ECCCCE00
0A30000A40
1D00000590
58000001E0
0000000720
0000001C60
ENDCHAR
STARTCHAR aogonek
ENCODING 261
SWIDTH 502 0
DWIDTH 9 0
BBX 7 11 1 -2
BITMAP
1BCCCDA0
960003A0
C10003A0
C10003A0
C10003A0
C10003A0
C10004A0
960009A0
1BCCC9A0
00001800
00005B30
ENDCHAR
STARTCHAR Cacute
ENCODING 262
SWIDTH 542 0
DWIDTH 10 0
BBX 8 15 1 0
BITMAP
00006B00
0001C100
00033000
00000000
09CCCCA0
78000087
A400004A
A4000014
A4000000
A4000000
A4000000
A4000014
A400004A
78000087
1ACCCCA1
ENDCHAR
STARTCHAR cacute
ENCODING 263
SWIDTH 394 0
DWIDTH 7 0
BBX 6 12 1 0
BITMAP
0006B0
002A10
000000
1BCCC5
960000
C10000
C10000
C10000
C10000
C10000
960000
1BCCC5
ENDCHAR
STARTCHAR Cdotaccent
ENCODING 266
SWIDTH 542 0
DWIDTH 10 0
BBX 8 15 1 0
BITMAP
00067000
00077000
00011000
00000000
09CCCCA0
78000087
A400004A
A4000014
A4000000
A4000000
A4000000
A4000014
A400004A
78000087
1ACCCCA1
ENDCHAR
STARTCHAR cdotaccent
ENCODING 267
SWIDTH 394 0
DWIDTH 7 0
BBX 6 12 1 0
BITMAP
004900
005900
000100
1BCCC5
960000
C10000
C10000
C10000
C10000
C10000
960000
1BCCC5
ENDCHAR
STARTCHAR Ccaron
ENCODING 268
SWIDTH 542 0
DWIDTH 10 0
BBX 8 15 1 0
BITMAP
00843800
001AA100
00044000
00000000
09CCCCA0
78000087
A400004A
A4000014
A4000000
A4000000
A4000000
A4000014
A400004A
78000087
1ACCCCA1
ENDCHAR
STARTCHAR ccaron
ENCODING 269
SWIDTH 394 0
DWIDTH 7 0
BBX 6 12 1 0
BITMAP
0482A0
008A10
000000
1BCCC5
960000
C10000
C10000
C10000
C10000
C10000
960000
1BCCC5
ENDCHAR
STARTCHAR Dcaron
ENCODING 270
SWIDTH 557 0
DWIDTH 10 0
BBX 8 15 1 0
BITMAP
00934700
002AB100
00054000
00000000
7ECCCCA1
77000087
7700004A
7700003A
7700003A
7700003A
7700003A
7700003A
7700004A
77000087
7ECCCCA1
ENDCHAR
STARTCHAR dcaron
ENCODING 271
SWIDTH 534 0
DWIDTH 10 0
BBX 9 12 1 0
BITMAP
000002B3B0
000003B3A0
000003B370
1BEFD7B330
98101AB000
C10003B000
C10003B000
C10003B000
C10003B000
C10003B000
960008B000
1BCCC7B000
ENDCHAR
STARTCHAR Dcroat
ENCODING 272
SWIDTH 514 0
DWIDTH 9 0
BBX 9 11 0 0
BITMAP
06ECCCCA10
0670000780
06700003B0
06700003B0
6EECC603B0
06700003B0
06700003B0
06700003B0
06700003B0
0670000780
06ECCCCA10
ENDCHAR
STARTCHAR dcroat
ENCODING 273
SWIDTH 539 0
DWIDTH 10 0
BBX 9 12 1 0
BITMAP
000002B000
005CCDFC20
000003B000
000003B000
19CCB6B000
970009B000
C10003B000
C10003B000
C10003B000
C10003B000
960008B000
1BCCC7A000
ENDCHAR
STARTCHAR Emacron
ENCODING 274
SWIDTH 481 0
DWIDTH 9 0
BBX 7 14 1 0
BITMAP
06CCC600
00000000
00000000
7ECCCC50
77000000
77000000
77000000
77000000
7ECCCB00
77000000
77000000
77000000
77000000
7ECCCC50
ENDCHAR
STARTCHAR emacron
ENCODING 275
SWIDTH 492 0
DWIDTH 9 0
BBX 7 11 1 0
BITMAP
06CCC600
00000000
1BCCCA10
96000780
C10002B0
C10002C0
CDCCCDA0
C1000000
C1000000
96000000
1BCCCC70
ENDCHAR
STARTCHAR Ebreve
ENCODING 276
SWIDTH 481 0
DWIDTH 9 0
BBX 7 15 1 0
BITMAP
05406200
04609100
00796000
00000000
7ECCCC50
77000000
77000000
77000000
77000000
7ECCCB00
77000000
77000000
77000000
77000000
7ECCCC50
ENDCHAR
STARTCHAR ebreve
ENCODING 277
SWIDTH 492 0
DWIDTH 9 0
BBX 7 12 1 0
BITMAP
05507300
01887000
00000000
1BCCCA10
96000780
C10002B0
C10002C0
CDCCCDA0
C1000000
C1000000
96000000
1BCCCC70
ENDCHAR
STARTCHAR Edotaccent
ENCODING 278
SWIDTH 496 0
DWIDTH 9 0
BBX 7 15 1 0
BITMAP
000D0000
000E0000
00020000
00000000
7ECCCC50
77000000
77000000
77000000
77000000
7ECCCB00
77000000
77000000
77000000
77000000
7ECCCC50
ENDCHAR
STARTCHAR edotaccent
ENCODING 279
SWIDTH 492 0
DWIDTH 9 0
BBX 7 12 1 0
BITMAP
000D0000
000E0000
00010000
1BCCCA10
96000780
C10002B0
C10002C0
CDCCCDA0
C1000000
C1000000
96000000
1BCCCC70
ENDCHAR
STARTCHAR Eogonek
ENCODING 280
SWIDTH 481 0
DWIDTH 9 0
BBX 7 13 1 -2
BITMAP
7ECCCC50
77000000
77000000
77000000
77000000
7ECCCB00
77000000
77000000
77000000
77000000
7ECCCC50
00008100
0003C500
ENDCHAR
STARTCHAR eogonek
ENCODING 281
SWIDTH 492 0
DWIDTH 9 0
BBX 7 11 1 -2
BITMAP
1BCCCA10
96000780
C10002B0
C10002C0
CDCCCDA0
C1000000
C1000000
96000000
1BCCCC70
00007100
0002C500
ENDCHAR
STARTCHAR Ecaron
ENCODING 282
SWIDTH 481 0
DWIDTH 9 0
BBX 7 15 1 0
BITMAP
01A0A100
00788000
00171000
00000000
7ECCCC50
77000000
77000000
77000000
77000000
7ECCCB00
77000000
77000000
77000000
77000000
7ECCCC50
ENDCHAR
STARTCHAR ecaron
ENCODING 283
SWIDTH 492 0
DWIDTH 9 0
BBX 7 12 1 0
BITMAP
01A0A100
005B4000
00000000
1BCCCA10
96000780
C10002B0
C10002C0
CDCCCDA0
C1000000
C1000000
96000000
1BCCCC70
ENDCHAR
STARTCHAR Gcircumflex
ENCODING 284
SWIDTH 539 0
DWIDTH 10 0
BBX 8 15 1 0
BITMAP
000B8000
00659200
00502400
00000000
09CCCC70
780001C3
A4000085
A4000021
A4000000
A400BCD5
A4000086
A4000086
A4000095
780001C2
1ACCCC60
ENDCHAR
STARTCHAR gcircumflex
ENCODING 285
SWIDTH 506 0
DWIDTH 9 0
BBX 7 14 1 -2
BITMAP
001A9000
00927400
00000000
1BCCCDB0
970002C0
B20002C0
C20002C0
C20002C0
B20002C0
880008C0
19CCB6C0
000003C0
00000790
2CCCCA10
ENDCHAR
STARTCHAR Gbreve
ENCODING 286
SWIDTH 539 0
DWIDTH 10 0
BBX 8 15 1 0
BITMAP
00900900
00A02700
00399100
00000000
09CCCC70
780001C3
A4000085
A4000021
A4000000
A400BCD5
A4000086
A4000086
A4000095
780001C2
1ACCCC60
ENDCHAR
STARTCHAR gbreve
ENCODING 287
SWIDTH 506 0
DWIDTH 9 0
BBX 7 14 1 -2
BITMAP
00A00900
00499400
00000000
1BCCCDB0
970002C0
B20002C0
C20002C0
C20002C0
B20002C0
880008C0
19CCB6C0
000003C0
00000790
2CCCCA10
ENDCHAR
STARTCHAR Gdotaccent
ENCODING 288
SWIDTH 539 0
DWIDTH 10 0
BBX 8 15 1 0
BITMAP
00094000
00094000
00010000
00000000
09CCCC70
780001C3
A4000085
A4000021
A4000000
A400BCD5
A4000086
A4000086
A4000095
780001C2
1ACCCC60
ENDCHAR
STARTCHAR gdotaccent
ENCODING 289
SWIDTH 506 0
DWIDTH 9 0
BBX 7 14 1 -2
BITMAP
00076000
00076000
00011000
1BCCCDB0
970002C0
B20002C0
C20002C0
C20002C0
B20002C0
880008C0
19CCB6C0
000003C0
00000790
2CCCCA10
ENDCHAR
STARTCHAR uni0122
ENCODING 290
SWIDTH 539 0
DWIDTH 10 0
BBX 8 15 1 -4
BITMAP
09CCCC70
780001C3
A4000085
A4000021
A4000000
A400BCD5
A4000086
A4000086
A4000095
780001C2
1ACCCC60
00049000
00059000
00055000
00041000
ENDCHAR
STARTCHAR uni0123
ENCODING 291
SWIDTH 506 0
DWIDTH 9 0
BBX 7 16 1 -2
BITMAP
00015000
00055000
00085000
00095000
00000000
1BCCCDB0
970002C0
B20002C0
C20002C0
C20002C0
B20002C0
880008C0
19CCB6C0
000003C0
00000790
2CCCCA10
ENDCHAR
STARTCHAR hcircumflex
ENCODING 293
SWIDTH 507 0
DWIDTH 9 0
BBX 7 14 1 0
BITMAP
00053000
002AB000
A3935700
A4000000
A4000000
A8CCCB20
A90006A0
A40001D0
A40000D0
A40000D0
A40000D0
A40000D0
A40000D0
A30000C0
ENDCHAR
STARTCHAR Hbar
ENCODING 294
SWIDTH 523 0
DWIDTH 9 0
BBX 10 11 0 0
BITMAP
06700001C0
06800002C0
6EECCCCDFB
06800001C0
06800001C0
06ECCCCDC0
06800001C0
06800001C0
06800001C0
06800001C0
06700001C0
ENDCHAR
STARTCHAR hbar
ENCODING 295
SWIDTH 544 0
DWIDTH 10 0
BBX 9 12 0 0
BITMAP
00D0000000
6DFCCC1000
00D0000000
00D0000000
00D7CCC700
00F5001B40
00E0000680
00D0000680
00D0000680
00D0000680
00D0000680
00D0000680
ENDCHAR
STARTCHAR Itilde
ENCODING 296
SWIDTH 230 0
DWIDTH 4 0
BBX 4 15 0 0
BITMAP
70BA
9469
8C17
0000
0570
0680
0680
0680
0680
0680
0680
0680
0680
0680
0570
ENDCHAR
STARTCHAR itilde
ENCODING 297
SWIDTH 210 0
DWIDTH 4 0
BBX 4 12 0 0
BITMAP
84D9
BC17
0000
0850
0850
0850
0850
0850
0850
0850
0850
0850
ENDCHAR
STARTCHAR Imacron
ENCODING 298
SWIDTH 230 0
DWIDTH 4 0
BBX 5 14 0 0
BITMAP
BCCC10
000000
000000
057000
068000
068000
068000
068000
068000
068000
068000
068000
068000
057000
ENDCHAR
STARTCHAR imacron
ENCODING 299
SWIDTH 208 0
DWIDTH 4 0
BBX 5 11 -1 0
BITMAP
1CCCA0
000000
008500
008500
008500
008500
008500
008500
008500
008500
008500
ENDCHAR
STARTCHAR Ibreve
ENCODING 300
SWIDTH 231 0
DWIDTH 4 0
BBX 4 15 0 0
BITMAP
9009
8109
2993
0000
0570
0680
0680
0680
0680
0680
0680
0680
0680
0680
0570
ENDCHAR
STARTCHAR ibreve
ENCODING 301
SWIDTH 211 0
DWIDTH 4 0
BBX 4 12 0 0
BITMAP
A009
4993
0000
0850
0850
0850
0850
0850
0850
0850
0850
0850
ENDCHAR
STARTCHAR Iogonek
ENCODING 302
SWIDTH 230 0
DWIDTH 4 0
BBX 3 13 0 -2
BITMAP
0570
0680
0680
0680
0680
0680
0680
0680
0680
0680
0670
0800
5C30
ENDCHAR
STARTCHAR iogonek
ENCODING 303
SWIDTH 210 0
DWIDTH 4 0
BBX 3 14 0 -2
BITMAP
0850
0850
0100
0850
0850
0850
0850
0850
0850
0850
0850
0850
2700
7B10
ENDCHAR
STARTCHAR Idotaccent
ENCODING 304
SWIDTH 230 0
DWIDTH 4 0
BBX 2 15 1 0
BITMAP
01
68
57
00
57
68
68
68
68
68
68
68
68
68
57
ENDCHAR
STARTCHAR dotlessi
ENCODING 305
SWIDTH 212 0
DWIDTH 4 0
BBX 2 9 1 0
BITMAP
85
85
85
85
85
85
85
85
85
ENDCHAR
STARTCHAR IJ
ENCODING 306
SWIDTH 721 0
DWIDTH 13 0
BBX 11 11 1 0
BITMAP
580000000490
580000000590
580000000590
580000000590
580000000590
580000000590
580000000590
5804A0000590
5804A0000590
5801D1000960
58005CCCD900
ENDCHAR
STARTCHAR ij
ENCODING 307
SWIDTH 419 0
DWIDTH 8 0
BBX 6 14 1 -2
BITMAP
8500C1
8500C2
100010
8500C1
8500C2
8500C2
8500C2
8500C2
8500C2
8500C2
8500C2
8500C1
0002D0
01CC40
ENDCHAR
STARTCHAR Jcircumflex
ENCODING 308
SWIDTH 494 0
DWIDTH 9 0
BBX 9 15 0 0
BITMAP
0000009A00
0000048750
0000051150
0000000000
0000005800
0000005800
0000005800
0000005800
0000005800
0000005800
0000005800
5900005800
4900006800
2D1000A500
06CCCD8000
ENDCHAR
STARTCHAR jcircumflex
ENCODING 309
SWIDTH 209 0
DWIDTH 4 0
BBX 5 14 -1 -2
BITMAP
01A900
083650
000000
008500
008500
008500
008500
008500
008500
008500
008500
009500
01D200
BD6000
ENDCHAR
STARTCHAR uni0136
ENCODING 310
SWIDTH 530 0
DWIDTH 10 0
BBX 8 15 1 -4
BITMAP
760001C4
77000970
77006B00
7703D100
771D3000
77BD4000
7D72D100
79005A00
77000960
770001C2
7600003B
00016000
0003B000
00039000
00034000
ENDCHAR
STARTCHAR uni0137
ENCODING 311
SWIDTH 431 0
DWIDTH 8 0
BBX 7 16 1 -4
BITMAP
A3000000
A4000000
A4000000
A4002D10
A400B500
A406A000
A42D1000
A4790000
A40C3000
A403C100
A4007900
A3000B40
002B0000
003B0000
00370000
00330000
ENDCHAR
STARTCHAR Lacute
ENCODING 313
SWIDTH 451 0
DWIDTH 8 0
BBX 7 15 1 0
BITMAP
05C00000
0C200000
24000000
00000000
76000000
77000000
77000000
77000000
77000000
77000000
77000000
77000000
77000000
77000000
7ECCCC70
ENDCHAR
STARTCHAR lacute
ENCODING 314
SWIDTH 207 0
DWIDTH 4 0
BBX 3 16 1 0
BITMAP
0270
0B50
4800
0000
8500
8500
8500
8500
8500
8500
8500
8500
8500
8500
8500
8500
ENDCHAR
STARTCHAR uni013B
ENCODING 315
SWIDTH 451 0
DWIDTH 8 0
BBX 7 15 1 -4
BITMAP
76000000
77000000
77000000
77000000
77000000
77000000
77000000
77000000
77000000
77000000
7ECCCC70
000D1000
000D0000
000A0000
00050000
ENDCHAR
STARTCHAR uni013C
ENCODING 316
SWIDTH 211 0
DWIDTH 4 0
BBX 2 16 1 -4
BITMAP
85
85
85
85
85
85
85
85
85
85
85
85
85
95
91
60
ENDCHAR
STARTCHAR Lcaron
ENCODING 317
SWIDTH 451 0
DWIDTH 8 0
BBX 7 11 1 0
BITMAP
76006700
77007700
77007400
77005000
77000000
77000000
77000000
77000000
77000000
77000000
7ECCCC70
ENDCHAR
STARTCHAR lcaron
ENCODING 318
SWIDTH 274 0
DWIDTH 5 0
BBX 4 12 1 0
BITMAP
8549
8559
8556
8541
8500
8500
8500
8500
8500
8500
8500
8500
ENDCHAR
STARTCHAR Ldot
ENCODING 319
SWIDTH 500 0
DWIDTH 9 0
BBX 7 11 1 0
BITMAP
67000000
77000000
77000000
77000000
7700F000
7700F000
77002000
77000000
77000000
77000000
6ECCCC80
ENDCHAR
STARTCHAR ldot
ENCODING 320
SWIDTH 314 0
DWIDTH 6 0
BBX 4 12 1 0
BITMAP
8500
8600
8600
8600
8600
862D
862D
8602
8600
8600
8600
8500
ENDCHAR
STARTCHAR Lslash
ENCODING 321
SWIDTH 504 0
DWIDTH 9 0
BBX 8 11 0 0
BITMAP
05800000
05900000
05935000
05DA2000
7D900000
35900000
05900000
05900000
05900000
05900000
05ECCCC9
ENDCHAR
STARTCHAR lslash
ENCODING 322
SWIDTH 296 0
DWIDTH 5 0
BBX 5 12 0 0
BITMAP
00C100
00C200
00C200
00C370
00DC40
4CE200
31C200
00C200
00C200
00C200
00C200
00C100
ENDCHAR
STARTCHAR Nacute
ENCODING 323
SWIDTH 579 0
DWIDTH 10 0
BBX 8 15 1 0
BITMAP
00001D30
00008700
00005000
00000000
7A00000D
7F40000D
79C0000D
7787000D
771D200D
7705A00D
7700A50D
77002C1D
7700068D
770000CE
7600003D
ENDCHAR
STARTCHAR nacute
ENCODING 324
SWIDTH 507 0
DWIDTH 9 0
BBX 7 12 1 0
BITMAP
0000B500
00076000
00000000
A7CCCB20
A90006A0
A40001D0
A40000D0
A40000D0
A40000D0
A40000D0
A40000D0
A30000C0
ENDCHAR
STARTCHAR uni0145
ENCODING 325
SWIDTH 579 0
DWIDTH 10 0
BBX 8 15 1 -4
BITMAP
7A00000D
7F40000D
79C0000D
7787000D
771D200D
7705A00D
7700A50D
77002C1D
7700068D
770000CE
7600003D
0003B000
0003A000
00037000
00033000
ENDCHAR
STARTCHAR uni0146
ENCODING 326
SWIDTH 505 0
DWIDTH 9 0
BBX 7 13 1 -4
BITMAP
A7CCCB20
A90006A0
A40001D0
A40000D0
A40000D0
A40000D0
A40000D0
A40000D0
A30000C0
000D1000
000D1000
000A0000
00060000
ENDCHAR
STARTCHAR Ncaron
ENCODING 327
SWIDTH 579 0
DWIDTH 10 0
BBX 8 15 1 0
BITMAP
00471B00
000A9400
00026000
00000000
7A00000D
7F40000D
79C0000D
7787000D
771D200D
7705A00D
7700A50D
77002C1D
7700068D
770000CE
7600003D
ENDCHAR
STARTCHAR ncaron
ENCODING 328
SWIDTH 507 0
DWIDTH 9 0
BBX 7 12 1 0
BITMAP
00A1A200
003B6000
00000000
A7CCCB20
A90006A0
A40001D0
A40000D0
A40000D0
A40000D0
A40000D0
A40000D0
A30000C0
ENDCHAR
STARTCHAR Eng
ENCODING 330
SWIDTH 519 0
DWIDTH 9 0
BBX 8 13 1 -2
BITMAP
6A00000D
7F40000D
7AD1000D
7788000D
771D200D
7704B00D
7700A50D
77001D1D
7700068D
770000CE
6700003E
0000003B
00003CB2
ENDCHAR
STARTCHAR eng
ENCODING 331
SWIDTH 507 0
DWIDTH 9 0
BBX 7 11 1 -2
BITMAP
A7CCCB20
A90005A0
A40001D0
A40000D0
A40000D0
A40000D0
A40000D0
A40000D0
A30001D0
000005A0
0004CB20
ENDCHAR
STARTCHAR Omacron
ENCODING 332
SWIDTH 553 0
DWIDTH 10 0
BBX 8 14 1 0
BITMAP
00CCCC00
00000000
00000000
09CCCC90
78000096
A4000059
A4000049
A4000049
A4000049
A4000049
A4000049
A4000059
78000096
1ACCCC90
ENDCHAR
STARTCHAR omacron
ENCODING 333
SWIDTH 496 0
DWIDTH 9 0
BBX 7 11 1 0
BITMAP
06CCC500
00000000
1BCCCA10
96000780
C10002B0
C10002C0
C10002C0
C10002C0
C10002B0
96000780
1BCCCA10
ENDCHAR
STARTCHAR Obreve
ENCODING 334
SWIDTH 553 0
DWIDTH 10 0
BBX 8 15 1 0
BITMAP
00900900
00911900
00299200
00000000
09CCCC90
78000096
A4000059
A4000049
A4000049
A4000049
A4000049
A4000049
A4000059
78000096
1ACCCC90
ENDCHAR
STARTCHAR obreve
ENCODING 335
SWIDTH 496 0
DWIDTH 9 0
BBX 7 12 1 0
BITMAP
04606300
00888000
00000000
1BCCCA10
96000780
C10002B0
C10002C0
C10002C0
C10002C0
C10002B0
96000780
1BCCCA10
ENDCHAR
STARTCHAR Ohungarumlaut
ENCODING 336
SWIDTH 553 0
DWIDTH 10 0
BBX 8 15 1 0
BITMAP
00086590
00391A00
00101100
00000000
09CCCC90
78000096
A4000059
A4000049
A4000049
A4000049
A4000049
A4000049
A4000059
78000096
1ACCCC90
ENDCHAR
STARTCHAR ohungarumlaut
ENCODING 337
SWIDTH 496 0
DWIDTH 9 0
BBX 7 12 1 0
BITMAP
001B1A30
00836600
00101000
1BCCCA10
96000780
C10002B0
C10002C0
C10002C0
C10002C0
C10002B0
96000780
1BCCCA10
ENDCHAR
STARTCHAR OE
ENCODING 338
SWIDTH 775 0
DWIDTH 14 0
BBX 12 11 1 0
BITMAP
09CCCDECCCC7
690005900000
940005900000
940005900000
940005900000
940005ECCCC1
940005900000
940005900000
940005900000
690005900000
09CCCDECCCC7
ENDCHAR
STARTCHAR oe
ENCODING 339
SWIDTH 812 0
DWIDTH 15 0
BBX 13 9 1 0
BITMAP
1BCCC93CCCC700
960007E2000B40
C10002C0000770
C10002C0000770
C10002FCCCCD60
C10002C0000000
C10002C0000000
960007E2000000
1BCCCA3CCCCC40
ENDCHAR
STARTCHAR Racute
ENCODING 340
SWIDTH 534 0
DWIDTH 10 0
BBX 8 15 1 0
BITMAP
0000D400
00077000
00050000
00000000
7ECCCD70
770001C3
77000085
77000085
770001C3
7ECCDD50
77004B00
77000D20
77000690
770001D1
76000087
ENDCHAR
STARTCHAR racute
ENCODING 341
SWIDTH 313 0
DWIDTH 6 0
BBX 5 12 1 0
BITMAP
00A600
067000
000000
A7CC10
AA0000
A40000
A40000
A40000
A40000
A40000
A40000
A30000
ENDCHAR
STARTCHAR uni0156
ENCODING 342
SWIDTH 534 0
DWIDTH 10 0
BBX 8 15 1 -4
BITMAP
7ECCCD70
770001C3
77000085
77000085
770001C3
7ECCDD50
77004B00
77000D20
77000690
770001D1
76000087
000A4000
000A3000
00090000
00050000
ENDCHAR
STARTCHAR uni0157
ENCODING 343
SWIDTH 313 0
DWIDTH 6 0
BBX 5 13 1 -4
BITMAP
A7CC10
AA0000
A40000
A40000
A40000
A40000
A40000
A40000
A30000
A40000
A30000
A10000
600000
ENDCHAR
STARTCHAR Rcaron
ENCODING 344
SWIDTH 534 0
DWIDTH 10 0
BBX 8 15 1 0
BITMAP
01A0A200
00788000
00071000
00000000
7ECCCD70
770001C3
77000085
77000085
770001C3
7ECCDD50
77004B00
77000D20
77000690
770001D1
76000087
ENDCHAR
STARTCHAR rcaron
ENCODING 345
SWIDTH 313 0
DWIDTH 6 0
BBX 5 12 1 0
BITMAP
563900
09A100
000000
A7CC10
AA0000
A40000
A40000
A40000
A40000
A40000
A40000
A30000
ENDCHAR
STARTCHAR Sacute
ENCODING 346
SWIDTH 562 0
DWIDTH 10 0
BBX 8 15 1 0
BITMAP
00006B00
0001C100
00033000
00000000
08DCCD90
5A000096
86000059
86000001
3D510000
028BC930
000004D3
21000059
8600004A
5A000097
08DCCDA0
ENDCHAR
STARTCHAR sacute
ENCODING 347
SWIDTH 427 0
DWIDTH 8 0
BBX 7 12 0 0
BITMAP
0001C400
00084000
00000000
06DCCC40
0E100000
1D000000
08B40000
0028C700
00000980
000003B0
000005A0
0CCCCC30
ENDCHAR
STARTCHAR Scircumflex
ENCODING 348
SWIDTH 562 0
DWIDTH 10 0
BBX 8 15 1 0
BITMAP
0009A000
00387500
00410500
00000000
08DCCD90
5A000096
86000059
86000001
3D510000
028BC930
000004D3
21000059
8600004A
5A000097
08DCCDA0
ENDCHAR
STARTCHAR scircumflex
ENCODING 349
SWIDTH 427 0
DWIDTH 8 0
BBX 7 12 0 0
BITMAP
001B8000
00927400
00000000
06DCCC40
0E100000
1D000000
08B40000
0028C700
00000980
000003B0
000005A0
0CCCCC30
ENDCHAR
STARTCHAR uni015E
ENCODING 350
SWIDTH 562 0
DWIDTH 10 0
BBX 8 14 1 -3
BITMAP
08DCCD90
5A000096
86000059
86000001
3D510000
028BC930
000004D3
21000059
8600004A
5A000097
08DCCDA0
00047000
0009C400
0007C400
ENDCHAR
STARTCHAR uni015F
ENCODING 351
SWIDTH 427 0
DWIDTH 8 0
BBX 7 12 0 -3
BITMAP
06DCCC40
0E100000
1D000000
08A40000
0028B700
00000980
000003B0
000005A0
0CCCDC30
00084000
000DB100
000AB100
ENDCHAR
STARTCHAR Scaron
ENCODING 352
SWIDTH 562 0
DWIDTH 10 0
BBX 8 15 1 0
BITMAP
00843800
001AA100
00044000
00000000
08DCCD90
5A000096
86000059
86000001
3D510000
028BC930
000004D3
21000059
8600004A
5A000097
08DCCDA0
ENDCHAR
STARTCHAR scaron
ENCODING 353
SWIDTH 427 0
DWIDTH 8 0
BBX 7 12 0 0
BITMAP
00927400
001B8000
00000000
06DCCC40
0E100000
1D000000
08B40000
0028C700
00000980
000003B0
000005A0
0CCCCC30
ENDCHAR
STARTCHAR uni0162
ENCODING 354
SWIDTH 420 0
DWIDTH 8 0
BBX 8 15 0 -4
BITMAP
8CCEDCC2
000A4000
000A4000
000A4000
000A4000
000A4000
000A4000
000A4000
000A4000
000A4000
000A3000
00052000
000A4000
000A1000
00070000
ENDCHAR
STARTCHAR uni0163
ENCODING 355
SWIDTH 347 0
DWIDTH 6 0
BBX 6 15 0 -4
BITMAP
01C000
02D000
6DFCC3
01C000
01C000
01C000
01C000
01C000
01D000
00D300
003CC6
000510
000B30
000B10
000700
ENDCHAR
STARTCHAR Tcaron
ENCODING 356
SWIDTH 420 0
DWIDTH 8 0
BBX 8 15 0 0
BITMAP
00A16500
0039B000
00063000
00000000
8CCEDCC2
000A4000
000A4000
000A4000
000A4000
000A4000
000A4000
000A4000
000A4000
000A4000
000A3000
ENDCHAR
STARTCHAR tcaron
ENCODING 357
SWIDTH 396 0
DWIDTH 7 0
BBX 7 11 0 0
BITMAP
016000E0
02D000E0
6DFCC3A0
01C00060
01C00000
01C00000
01C00000
01C00000
01D00000
00D30000
003CC600
ENDCHAR
STARTCHAR Tbar
ENCODING 358
SWIDTH 501 0
DWIDTH 9 0
BBX 8 11 0 0
BITMAP
7CCEDCC4
00095000
00095000
00095000
07CEDC60
00095000
00095000
00095000
00095000
00095000
00084000
ENDCHAR
STARTCHAR tbar
ENCODING 359
SWIDTH 350 0
DWIDTH 6 0
BBX 6 11 0 0
BITMAP
01C000
01D000
6DFCC4
01D000
01D000
6DFCC4
01D000
01D000
01D000
00C300
003CC6
ENDCHAR
STARTCHAR Utilde
ENCODING 360
SWIDTH 552 0
DWIDTH 10 0
BBX 8 15 1 0
BITMAP
0071C800
00964900
009B0700
00000000
85000067
85000068
85000068
85000068
85000068
85000068
85000068
85000068
85000067
6A0000B4
09DCCD80
ENDCHAR
STARTCHAR utilde
ENCODING 361
SWIDTH 507 0
DWIDTH 9 0
BBX 7 12 1 0
BITMAP
0629D400
03D72500
00000000
B20002B0
B20002C0
B20002C0
B20002C0
B20002C0
B20002C0
B30002C0
870007C0
1ACCC7B0
ENDCHAR
STARTCHAR Umacron
ENCODING 362
SWIDTH 552 0
DWIDTH 10 0
BBX 8 14 1 0
BITMAP
00CCCC00
00000000
00000000
85000067
85000068
85000068
85000068
85000068
85000068
85000068
85000068
85000067
6A0000B4
09DCCD80
ENDCHAR
STARTCHAR umacron
ENCODING 363
SWIDTH 507 0
DWIDTH 9 0
BBX 7 11 1 0
BITMAP
06CCC600
00000000
B20002B0
B20002C0
B20002C0
B20002C0
B20002C0
B20002C0
B30002C0
870007C0
1ACCC7B0
ENDCHAR
STARTCHAR Ubreve
ENCODING 364
SWIDTH 552 0
DWIDTH 10 0
BBX 8 15 1 0
BITMAP
00900900
00911900
00299200
00000000
85000067
85000068
85000068
85000068
85000068
85000068
85000068
85000068
85000067
6A0000B4
09DCCD80
ENDCHAR
STARTCHAR ubreve
ENCODING 365
SWIDTH 507 0
DWIDTH 9 0
BBX 7 12 1 0
BITMAP
03705400
00888000
00000000
B20002B0
B20002C0
B20002C0
B20002C0
B20002C0
B20002C0
B30002C0
870007C0
1ACCC7B0
ENDCHAR
STARTCHAR Uring
ENCODING 366
SWIDTH 552 0
DWIDTH 10 0
BBX 8 16 1 0
BITMAP
002CB100
00734600
00812700
00735500
002BA100
85000067
85000068
85000068
85000068
85000068
85000068
85000068
85000068
85000067
6A0000B4
09DCCD80
ENDCHAR
STARTCHAR uring
ENCODING 367
SWIDTH 507 0
DWIDTH 9 0
BBX 7 13 1 0
BITMAP
01CC6000
04509000
01CC6000
00000000
B20002B0
B20002C0
B20002C0
B20002C0
B20002C0
B20002C0
B30002C0
870007C0
1ACCC7B0
ENDCHAR
STARTCHAR Uhungarumlaut
ENCODING 368
SWIDTH 552 0
DWIDTH 10 0
BBX 8 15 1 0
BITMAP
00095680
00481A00
00101000
00000000
85000067
85000068
85000068
85000068
85000068
85000068
85000068
85000068
85000067
6A0000B4
09DCCD80
ENDCHAR
STARTCHAR uhungarumlaut
ENCODING 369
SWIDTH 507 0
DWIDTH 9 0
BBX 7 12 1 0
BITMAP
001B1A30
00836600
00101000
B20002B0
B20002C0
B20002C0
B20002C0
B20002C0
B20002C0
B30002C0
870007C0
1ACCC7B0
ENDCHAR
STARTCHAR Uogonek
ENCODING 370
SWIDTH 552 0
DWIDTH 10 0
BBX 8 13 1 -2
BITMAP
85000067
85000068
85000068
85000068
85000068
85000068
85000068
85000068
85000067
6A0000B4
09DCCD80
00054000
000C8000
ENDCHAR
STARTCHAR uogonek
ENCODING 371
SWIDTH 503 0
DWIDTH 9 0
BBX 7 11 1 -2
BITMAP
B20002B0
B20002C0
B20002C0
B20002C0
B20002C0
B20002C0
B30002C0
870007C0
1ACCC8B0
00000810
00003C30
ENDCHAR
STARTCHAR Wcircumflex
ENCODING 372
SWIDTH 795 0
DWIDTH 14 0
BBX 14 15 0 0
BITMAP
0000008B000000
00000295600000
00000420600000
00000000000000
5900008C00005A
2D0000CC100096
0D1001B75000C3
0A400673A001E0
06800A30C004B0
03B00D00A30770
00D03A00570A40
00B275001B0D10
0076B1000C2C00
004AC00008A800
001E700003F400
ENDCHAR
STARTCHAR wcircumflex
ENCODING 373
SWIDTH 682 0
DWIDTH 12 0
BBX 12 12 0 0
BITMAP
000009A10000
000056390000
000000000000
860006B0002C
4A000BD00068
0D000B8400B3
0A40484800D0
0680840C04A0
01C0B00B1850
00C2B0075C10
007A7003BB00
003F3000D700
ENDCHAR
STARTCHAR Ycircumflex
ENCODING 374
SWIDTH 493 0
DWIDTH 9 0
BBX 9 15 0 0
BITMAP
0004C20000
000B2A0000
0024051000
0000000000
5A00000C30
0C30005B00
05A000C300
00C305A000
004A0C2000
000B890000
0003F20000
0000D00000
0000D00000
0000D00000
0000D00000
ENDCHAR
STARTCHAR ycircumflex
ENCODING 375
SWIDTH 459 0
DWIDTH 8 0
BBX 8 14 0 -2
BITMAP
0007B200
00381A00
00000000
5800004A
1D0000A4
095001D0
04A00680
00D10C20
00762C00
002C8600
000AE100
0004A000
001C3000
1CC50000
ENDCHAR
STARTCHAR Ydieresis
ENCODING 376
SWIDTH 493 0
DWIDTH 9 0
BBX 9 15 0 0
BITMAP
0076085000
0076085000
0011011000
0000000000
5A00000C30
0C30005B00
05A000C300
00C305A000
004A0C2000
000B890000
0003F20000
0000D00000
0000D00000
0000D00000
0000D00000
ENDCHAR
STARTCHAR Zacute
ENCODING 377
SWIDTH 482 0
DWIDTH 9 0
BBX 8 15 0 0
BITMAP
00000B60
00005A00
00005100
00000000
0CCCCCDB
000000B5
000005B0
00001D20
00009700
0004C000
001D3000
00880000
03D00000
0C400000
3FCCCCCB
ENDCHAR
STARTCHAR zacute
ENCODING 378
SWIDTH 405 0
DWIDTH 7 0
BBX 7 12 0 0
BITMAP
00006A00
0002A000
00000000
3CCCCE80
00001D20
0000A700
0004C000
001D3000
00880000
03D00000
0C400000
5FCCCC80
ENDCHAR
STARTCHAR Zdotaccent
ENCODING 379
SWIDTH 482 0
DWIDTH 9 0
BBX 8 15 0 0
BITMAP
0000B200
0000B200
00001000
00000000
0CCCCCDB
000000B5
000005B0
00001D20
00009700
0004C000
001D3000
00880000
03D00000
0C400000
3FCCCCCB
ENDCHAR
STARTCHAR zdotaccent
ENCODING 380
SWIDTH 405 0
DWIDTH 7 0
BBX 7 12 0 0
BITMAP
00077000
00077000
00011000
3CCCCE80
00001D20
0000A700
0004C000
001D3000
00880000
03D00000
0C400000
5FCCCC80
ENDCHAR
STARTCHAR Zcaron
ENCODING 381
SWIDTH 482 0
DWIDTH 9 0
BBX 8 15 0 0
BITMAP
000B0920
00058900
00007100
00000000
0CCCCCDB
000000B5
000005B0
00001D20
00009700
0004C000
001D3000
00880000
03D00000
0C400000
3FCCCCCB
ENDCHAR
STARTCHAR zcaron
ENCODING 382
SWIDTH 405 0
DWIDTH 7 0
BBX 7 12 0 0
BITMAP
00754700
000AA000
00000000
3CCCCE80
00001D20
0000A700
0004C000
001D3000
00880000
03D00000
0C400000
5FCCCC80
ENDCHAR
STARTCHAR florin
ENCODING 402
SWIDTH 494 0
DWIDTH 9 0
BBX 9 14 0 -2
BITMAP
000002BC60
00000B4000
00002C0000
0000680000
006CEDC500
0000D10000
0001C00000
0004900000
0007600000
000A300000
000D000000
002C000000
0096000000
7C90000000
ENDCHAR
STARTCHAR AEacute
ENCODING 508
SWIDTH 773 0
DWIDTH 14 0
BBX 13 15 0 0
BITMAP
00000000B60000
00000005A00000
00000005100000
00000000000000
000001EECCCC90
0000099B000000
00003C3B000000
0000B33B000000
0005903B000000
001C103ECCCC20
0076003B000000
02ECCCDB000000
0A50003B000000
3B00003B000000
B300003ECCCC90
ENDCHAR
STARTCHAR aeacute
ENCODING 509
SWIDTH 795 0
DWIDTH 14 0
BBX 13 12 1 0
BITMAP
0000002D200000
000000A2000000
00000000000000
0BCCC94CCCC400
000008D1001D00
000004A0000A20
19CCCDA0000A20
870004ECCCCD20
C10004A0000000
C10004A0000000
96000AE2000000
1ACCC75DCCCC10
ENDCHAR
STARTCHAR Oslashacute
ENCODING 510
SWIDTH 558 0
DWIDTH 10 0
BBX 10 15 0 0
BITMAP
000006B000
00001C1000
0000330000
0000000000
009CCCC971
0690000AA0
0940002DA0
094001B5A0
09400944A0
09406704A0
0943A004A0
095B1004A0
09D30004A0
08B0000870
199DCCCA10
ENDCHAR
STARTCHAR oslashacute
ENCODING 511
SWIDTH 521 0
DWIDTH 9 0
BBX 9 12 0 0
BITMAP
0000098000
0000480000
0000000000
009CCCC250
0690004E50
095000AE00
09400A4E00
0941A40E00
095B400E00
09D3000E00
1CA0004C00
439DCCB200
ENDCHAR
STARTCHAR uni0218
ENCODING 536
SWIDTH 562 0
DWIDTH 10 0
BBX 8 15 1 -4
BITMAP
08DCCD90
5A000096
86000059
86000001
3D510000
028BC930
000004D3
21000059
8600004A
5A000097
08DCCDA0
0003A000
0004A000
00047000
00032000
ENDCHAR
STARTCHAR uni0219
ENCODING 537
SWIDTH 427 0
DWIDTH 8 0
BBX 7 14 0 -5
BITMAP
06DCCC40
0E100000
1D000000
08B40000
0028C700
00000980
000003B0
000005A0
0CCCCC30
00034000
00068000
00065000
00061000
00010000
ENDCHAR
STARTCHAR circumflex
ENCODING 710
SWIDTH 326 0
DWIDTH 6 0
BBX 4 3 1 9
BITMAP
0A90
5683
5014
ENDCHAR
STARTCHAR caron
ENCODING 711
SWIDTH 326 0
DWIDTH 6 0
BBX 4 3 1 9
BITMAP
9357
2AA0
0430
ENDCHAR
STARTCHAR uni02C9
ENCODING 713
SWIDTH 358 0
DWIDTH 6 0
BBX 5 1 1 10
BITMAP
9CCC20
ENDCHAR
STARTCHAR breve
ENCODING 728
SWIDTH 332 0
DWIDTH 6 0
BBX 4 3 1 9
BITMAP
9009
9119
2992
ENDCHAR
STARTCHAR dotaccent
ENCODING 729
SWIDTH 183 0
DWIDTH 3 0
BBX 2 3 1 9
BITMAP
C1
C2
10
ENDCHAR
STARTCHAR ring
ENCODING 730
SWIDTH 297 0
DWIDTH 5 0
BBX 4 3 0 10
BITMAP
0BC8
1709
0BC8
ENDCHAR
STARTCHAR ogonek
ENCODING 731
SWIDTH 243 0
DWIDTH 4 0
BBX 2 3 1 -2
BITMAP
04
45
9A
ENDCHAR
STARTCHAR tilde
ENCODING 732
SWIDTH 369 0
DWIDTH 7 0
BBX 4 3 1 9
BITMAP
80BB
9368
7C17
ENDCHAR
STARTCHAR hungarumlaut
ENCODING 733
SWIDTH 377 0
DWIDTH 7 0
BBX 5 3 1 9
BITMAP
0B2940
744800
101000
ENDCHAR
STARTCHAR Mu
ENCODING 924
SWIDTH 527 0
DWIDTH 9 0
BBX 7 13 1 -3
BITMAP
10000010
860000D0
860000D0
860000D0
860000D0
860000D0
860000D0
860000E0
8B1005F0
8BCCB7B0
86000000
86000000
32000000
ENDCHAR
STARTCHAR Pi
ENCODING 928
SWIDTH 605 0
DWIDTH 11 0
BBX 11 12 0 -1
BITMAP
3CDECCCEDC20
0058000A4000
0058000A4000
0058000A4000
0058000A4000
0058000A4000
0058000A4000
0058000A4000
0058000A4000
0058000A4000
0058000A4000
001200021000
ENDCHAR
STARTCHAR Sigma
ENCODING 931
SWIDTH 481 0
DWIDTH 9 0
BBX 7 11 1 0
BITMAP
DCCCCC70
69000000
0B400000
02D10000
00690000
000E1000
00690000
02D10000
0B400000
79000000
CCCCCC70
ENDCHAR
STARTCHAR uni0901
ENCODING 2305
SWIDTH 0 0
DWIDTH 0 0
BBX 6 3 -5 12
BITMAP
205402
C1002B
4BBBB3
ENDCHAR
STARTCHAR uni0902
ENCODING 2306
SWIDTH 0 0
DWIDTH 0 0
BBX 2 1 -3 13
BITMAP
74
ENDCHAR
STARTCHAR uni0903
ENCODING 2307
SWIDTH 247 0
DWIDTH 4 0
BBX 2 6 1 1
BITMAP
28
00
00
00
00
28
ENDCHAR
STARTCHAR uni0905
ENCODING 2309
SWIDTH 598 0
DWIDTH 11 0
BBX 11 12 0 -1
BITMAP
08CC9000BCB0
00008700B200
00003A00B200
00003A00B200
00009600B200
02CDD100B200
00007DCCF200
00003A00B200
00007800B200
4CCC9100B200
00000000B200
000000003000
ENDCHAR
STARTCHAR uni0906
ENCODING 2310
SWIDTH 828 0
DWIDTH 15 0
BBX 16 12 0 -1
BITMAP
08CC9000BCCCEDC1
00009600C1009400
00004900C1009400
00004900C1009400
00009600C1009400
03CDC100C1009400
00008DCCF1009400
00003A00C1009400
00008700C1009400
4CCC9100C1009400
00000000C1009400
0000000030002100
ENDCHAR
STARTCHAR uni0907
ENCODING 2311
SWIDTH 478 0
DWIDTH 9 0
BBX 10 12 -1 -1
BITMAP
2CCCCCCFC9
0000000D00
0000000D00
002BCCCC00
00A4000000
0094000000
002BCCC900
0000000960
00B1000670
00C6000950
00C9CCC900
00B1000000
ENDCHAR
STARTCHAR uni0908
ENCODING 2312
SWIDTH 478 0
DWIDTH 9 0
BBX 10 16 -1 -1
BITMAP
0000009CC1
0000059000
0000076000
0000067000
2CCCCCCFC9
0000000D00
0000000D00
002BCCCC00
00A4000000
0094000000
002BCCC900
0000000960
00B1000670
00C6000950
00C9CCC900
00B1000000
ENDCHAR
STARTCHAR uni0909
ENCODING 2313
SWIDTH 471 0
DWIDTH 8 0
BBX 10 11 -1 0
BITMAP
2CCCCCEDC8
0000002C00
0000000B20
0000000B20
0000002D00
00007CF600
0000001D10
0180000940
02B0000A30
00D3002D10
003BCCB400
ENDCHAR
STARTCHAR uni090A
ENCODING 2314
SWIDTH 661 0
DWIDTH 12 0
BBX 14 11 -1 0
BITMAP
2CCCCCEDCCCCC1
0000002C000000
0000000B200000
0000000B200000
0000002B000000
00007CFECCC500
0000001D201C10
02A00009400940
02C0000A300940
00C3002C101C10
003BCCB307C500
ENDCHAR
STARTCHAR uni090B
ENCODING 2315
SWIDTH 753 0
DWIDTH 14 0
BBX 15 11 -1 0
BITMAP
2CCCCCCEDCCCCC90
0000000A30000000
0000000A30000000
002ACCAB3019D200
00A5001D33C5A300
00D0000AAB20A300
0060001C804AC200
000002CD30D10000
00004C3A30D00000
0006C20A30D10000
00690008304BC400
ENDCHAR
STARTCHAR uni090C
ENCODING 2316
SWIDTH 676 0
DWIDTH 12 0
BBX 14 15 -1 -4
BITMAP
2CCCCCCCCCDEC4
00000000005800
00000000005800
0019CB47CB9800
008701B900A800
00B20085006800
00B20085005800
00B20010005800
00870000005800
0019CB00005800
000000001AC700
00000000860000
00000000A30000
00000000770074
0000000019CB70
ENDCHAR
STARTCHAR uni090D
ENCODING 2317
SWIDTH 521 0
DWIDTH 9 0
BBX 11 15 -1 0
BITMAP
000B1003A000
0004BBBB3000
000000000000
000000000000
2CDECCCCED80
00580000A300
00580000A300
00580000A300
00580001D100
005802CB4000
005800000000
005800000000
004800000000
001C20000000
0003BCCC8000
ENDCHAR
STARTCHAR uni090E
ENCODING 2318
SWIDTH 522 0
DWIDTH 9 0
BBX 11 15 -1 0
BITMAP
000067000000
00002C400000
0000018B4000
00000001C200
2CDECCCCED80
00580000A300
00580000A300
00580000A300
00580001D100
005802CB4000
005800000000
005800000000
004800000000
001C20000000
0003BCCC8000
ENDCHAR
STARTCHAR uni090F
ENCODING 2319
SWIDTH 526 0
DWIDTH 9 0
BBX 11 11 -1 0
BITMAP
2CDECCCCED80
00580000A300
00580000A300
00580000A300
00580001D100
005802CB4000
005800000000
005800000000
004800000000
001C20000000
0003BCCC8000
ENDCHAR
STARTCHAR uni0910
ENCODING 2320
SWIDTH 526 0
DWIDTH 9 0
BBX 11 15 -1 0
BITMAP
000006800000
000000A50000
0000001B2000
00000002A100
2CDECCCCED80
00580000A300
00580000A300
00580000A300
00580001D100
005802CB4000
005800000000
005800000000
004800000000
001C20000000
0003BCCC8000
ENDCHAR
STARTCHAR uni0911
ENCODING 2321
SWIDTH 829 0
DWIDTH 15 0
BBX 16 16 0 -1
BITMAP
0000000080002600
00000000C2006700
000000003BBBA100
0000000000000000
08CC9000BCCCEDC1
00008700B2009400
00003A00B2009400
00003A00B2009400
00009600B2009400
02CDD100B2009400
00007DCCF2009400
00003A00B2009400
00007800B2009400
4CCC9100B2009400
00000000B2009400
0000000030002100
ENDCHAR
STARTCHAR uni0912
ENCODING 2322
SWIDTH 828 0
DWIDTH 15 0
BBX 16 16 0 -1
BITMAP
0000000057000000
000000001C500000
00000000018B5000
000000000001C300
08CC9000BCCCEDC1
00008700B2009400
00003A00B2009400
00003A00B2009400
00009600B2009400
02CDD100B2009400
00007DCCF2009400
00003A00B2009400
00007800B2009400
4CCC9100B2009400
00000000B2009400
0000000030002100
ENDCHAR
STARTCHAR uni0913
ENCODING 2323
SWIDTH 829 0
DWIDTH 15 0
BBX 16 16 0 -1
BITMAP
0000000006A00000
0000000000A60000
00000000001C3000
000000000002B100
08CC9000BCCCEDC1
00008700B2009400
00003A00B2009400
00003A00B2009400
00009600B2009400
02CDD100B2009400
00007DCCF2009400
00003A00B2009400
00007800B2009400
4CCC9100B2009400
00000000B2009400
0000000030002100
ENDCHAR
STARTCHAR uni0914
ENCODING 2324
SWIDTH 829 0
DWIDTH 15 0
BBX 16 16 0 -1
BITMAP
0000000008708400
0000000000B38400
00000000002B8400
000000000003C400
08CC9000BCCCEDC1
00008700B2009400
00003A00B2009400
00003A00B2009400
00009600B2009400
02CDD100B2009400
00007DCCF2009400
00003A00B2009400
00007800B2009400
4CCC9100B2009400
00000000B2009400
0000000030002100
ENDCHAR
STARTCHAR uni0915
ENCODING 2325
SWIDTH 725 0
DWIDTH 13 0
BBX 15 12 -1 -1
BITMAP
2CCCCCCFCCCCCC30
0000000D00000000
0019C80D7BCA1000
00A6000D6005A000
00D0000D0000D000
00D0000D0000D000
00D0000D0000D000
00A6004E0005A000
001ACB8D08CA2000
0000000D00000000
0000000D00000000
0000000300000000
ENDCHAR
STARTCHAR uni0916
ENCODING 2326
SWIDTH 696 0
DWIDTH 13 0
BBX 14 12 -1 -1
BITMAP
2CCCDECCCCCFC8
00004900000D00
00004900000D00
00004904B80D00
0000871D100D00
05DC914A000D00
01D2004A000D00
005A001D106D00
000A5004BB7D00
0001D100000D00
00006900000D00
00000300000300
ENDCHAR
STARTCHAR uni0917
ENCODING 2327
SWIDTH 494 0
DWIDTH 9 0
BBX 11 12 -1 -1
BITMAP
2CCEDCCEDC10
000940094000
000940094000
000940094000
000940094000
001D20094000
07C500094000
000000094000
000000094000
000000094000
000000094000
000000021000
ENDCHAR
STARTCHAR uni0918
ENCODING 2328
SWIDTH 559 0
DWIDTH 10 0
BBX 12 11 -1 0
BITMAP
2CCFCCCCDDC3
008500007600
00A200007600
008600007600
001DDB007600
007700007600
00A300007600
00A300008600
00780001D600
0019CCCB9600
000000005500
ENDCHAR
STARTCHAR uni0919
ENCODING 2329
SWIDTH 505 0
DWIDTH 9 0
BBX 11 11 -1 0
BITMAP
2CCCCCCFCC30
0000000D0000
0000000D0000
002ACCCB0000
009500000000
009500005500
002ACCC90000
0000000A5000
007100077000
0094000A5000
002BCCC90000
ENDCHAR
STARTCHAR uni091A
ENCODING 2330
SWIDTH 563 0
DWIDTH 10 0
BBX 12 12 -1 -1
BITMAP
2CCCCCCCDEC4
000000006800
000000006800
06CCDC906800
000B30006800
001C00006800
001C00006800
000C3001B800
0002BCCB8800
000000006800
000000006800
000000001200
ENDCHAR
STARTCHAR uni091B
ENCODING 2331
SWIDTH 581 0
DWIDTH 10 0
BBX 12 10 -1 1
BITMAP
2CCFCCCCDEC8
007700003A00
009400003A00
0094000BD800
007800001D00
001DD7000B20
007700000B20
009400000B20
007700002C00
0019CCCCB300
ENDCHAR
STARTCHAR uni091C
ENCODING 2332
SWIDTH 547 0
DWIDTH 10 0
BBX 12 12 -1 -1
BITMAP
2CCCCCCCEDC1
00000000A300
00000000A300
00000000A300
008CDCCCE300
00003A00A300
00000D00A300
00000D00A300
00003C00A300
05CCB300A300
00000000A300
000000002000
ENDCHAR
STARTCHAR uni091D
ENCODING 2333
SWIDTH 664 0
DWIDTH 12 0
BBX 14 12 -1 -1
BITMAP
2CCCCCEDCCEDC2
00000085008400
001ACCD4008400
00860000008400
00A30000008400
00860000008400
001ACCDDCCE400
0000002C008400
00B2002C008400
00C9BCB4008400
00C10000008400
00B10000001100
ENDCHAR
STARTCHAR uni091E
ENCODING 2334
SWIDTH 592 0
DWIDTH 11 0
BBX 12 12 -1 -1
BITMAP
2CCCCCCCCFCA
000000000D00
000000000D00
00ACB4000D00
00001C100D00
000009300D00
000009DCCF00
000009300D00
00001C100D00
02CCC5000D00
000000000D00
000000000300
ENDCHAR
STARTCHAR uni091F
ENCODING 2335
SWIDTH 485 0
DWIDTH 9 0
BBX 10 10 -1 1
BITMAP
2CCCCCCFCB
0000001C00
0000001C00
0019CCCA00
0087000000
00C1000000
00C1000050
00C10001C0
0087000690
0019CCC910
ENDCHAR
STARTCHAR uni0920
ENCODING 2336
SWIDTH 512 0
DWIDTH 9 0
BBX 11 10 -1 1
BITMAP
2CCCCCCFCC50
0000000C1000
0000001D0000
0019CCDB1000
008700069000
00C10000D000
00C10000D000
00C10000D000
009700069000
0019CCC91000
ENDCHAR
STARTCHAR uni0921
ENCODING 2337
SWIDTH 475 0
DWIDTH 9 0
BBX 10 11 -1 0
BITMAP
2CCCCCCFC9
0000000D00
0000000D00
002ACCCB00
0095000000
0095000000
002BCCC900
0000000A50
0071000770
0095000A50
002ACCC800
ENDCHAR
STARTCHAR uni0922
ENCODING 2338
SWIDTH 485 0
DWIDTH 9 0
BBX 10 10 -1 1
BITMAP
2CCCCCCFCB
0000000D00
0000000D00
0019CCCC00
0087000000
00B2000000
00C104CC50
00B20A21C0
00870102B0
0019CCCB30
ENDCHAR
STARTCHAR uni0923
ENCODING 2339
SWIDTH 681 0
DWIDTH 12 0
BBX 14 12 -1 -1
BITMAP
2CEDCCDECCDEC5
0085003A004900
0085003A004900
0085003A004900
0085003A004900
0085003A004900
005A0087004900
0008CC90004900
00000000004900
00000000004900
00000000004900
00000000001200
ENDCHAR
STARTCHAR uni0924
ENCODING 2340
SWIDTH 496 0
DWIDTH 9 0
BBX 11 11 -1 0
BITMAP
2CCCCCCEDC10
000000094000
000000094000
000000094000
001ACCCE4000
00A500094000
00C100094000
00C100094000
00C100094000
009600094000
001AC2083000
ENDCHAR
STARTCHAR uni0925
ENCODING 2341
SWIDTH 593 0
DWIDTH 11 0
BBX 10 12 1 -1
BITMAP
1ACC500CCA
5801C00D00
4400D00D00
0003C00D00
CCCB300D00
D000000D00
C100000E00
8800006F00
08CCCC8D00
0000000D00
0000000D00
0000000300
ENDCHAR
STARTCHAR uni0926
ENCODING 2342
SWIDTH 489 0
DWIDTH 9 0
BBX 10 11 -1 0
BITMAP
2CCCCCCEDB
0000000A30
0000000A30
0019CCCD20
0088000000
00B2000000
00C1000560
00B2000670
0087000B70
0019CCCA70
0000000560
ENDCHAR
STARTCHAR uni0927
ENCODING 2343
SWIDTH 560 0
DWIDTH 10 0
BBX 12 12 -1 -1
BITMAP
2CCFC12CDDC3
008500007600
00A300007600
008600007600
001DDB007600
007700007600
00A300007600
00A300007600
00780001C600
0009CCCB8600
000000007600
000000001100
ENDCHAR
STARTCHAR uni0928
ENCODING 2344
SWIDTH 473 0
DWIDTH 9 0
BBX 10 12 -1 -1
BITMAP
2CCCCCCFC8
0000000D00
0000000D00
0000000D00
008CCCCD00
02C0000D00
02B0000D00
0060000D00
0000000D00
0000000D00
0000000D00
0000000300
ENDCHAR
STARTCHAR uni0928093C
ENCODING 2345
SWIDTH 473 0
DWIDTH 9 0
BBX 10 11 -1 0
BITMAP
2CCCCCCFC8
0000000D00
0000000D00
0000000D00
008CCCCD00
02C0000D00
01C0000D00
0030000D00
0000000D00
0000000D00
0004700600
ENDCHAR
STARTCHAR uni092A
ENCODING 2346
SWIDTH 503 0
DWIDTH 9 0
BBX 11 12 -1 -1
BITMAP
2CEDCCCDDC30
008500076000
008500076000
008500076000
008500076000
008600076000
004A001C6000
0007CCB96000
000000076000
000000076000
000000076000
000000011000
ENDCHAR
STARTCHAR uni092B
ENCODING 2347
SWIDTH 739 0
DWIDTH 13 0
BBX 15 12 -1 -1
BITMAP
2CEDCCCEDCCCCC60
0085000A30000000
0085000A8CCB3000
0085000A9002D000
0085000A4000B200
0086000A3000A300
004B002E3000B200
0007CCAB3002D000
0000000A35CB3000
0000000A30000000
0000000A30000000
0000000200000000
ENDCHAR
STARTCHAR uni092C
ENCODING 2348
SWIDTH 491 0
DWIDTH 9 0
BBX 11 12 -1 -1
BITMAP
2CCCCCCEDC10
0000000A3000
0019CB0A3000
008C000A3000
00C6800A3000
00D0770A3000
00D0085A3000
00C100AD3000
0087004F3000
0019CC9B3000
0000000A3000
000000020000
ENDCHAR
STARTCHAR uni092D
ENCODING 2349
SWIDTH 491 0
DWIDTH 9 0
BBX 11 12 -1 -1
BITMAP
2C8005CEDC10
00B3000A3000
0084000A3000
0084000A3000
0084000A3000
008DCCCE3000
0084000A3000
0084000A3000
0010000A3000
0000000A3000
0000000A3000
000000020000
ENDCHAR
STARTCHAR uni092E
ENCODING 2350
SWIDTH 490 0
DWIDTH 9 0
BBX 10 12 -1 -1
BITMAP
2CEDCCCECB
0094000B20
0094000B20
0094000B20
0094000B20
009DCCCE20
0094000B20
0094000B20
0010000B20
0000000B20
0000000B20
0000000200
ENDCHAR
STARTCHAR uni092F
ENCODING 2351
SWIDTH 564 0
DWIDTH 10 0
BBX 12 12 -1 -1
BITMAP
2CCCFCCCDEC4
000048006800
00002B006800
000059006800
00ACA2006800
00C100006800
00B200006800
00790002C800
0007CCCB8800
000000006800
000000006800
000000001200
ENDCHAR
STARTCHAR uni0930
ENCODING 2352
SWIDTH 337 0
DWIDTH 6 0
BBX 8 12 -1 -1
BITMAP
2CCCDEC3
00004900
00004900
00004900
00008700
05DC9100
01D10000
005A0000
000A5000
0002D100
00006900
00000300
ENDCHAR
STARTCHAR uni0930093C
ENCODING 2353
SWIDTH 347 0
DWIDTH 6 0
BBX 8 12 -1 -1
BITMAP
2CCCCEC5
00001C00
00001C00
00002B00
00006900
02DCA100
00C30000
003C0000
00096000
0001C100
00005900
08200500
ENDCHAR
STARTCHAR uni0932
ENCODING 2354
SWIDTH 676 0
DWIDTH 12 0
BBX 14 12 -1 -1
BITMAP
2CCCCCCCCCDEC4
00000000005800
00000000005800
0019CB47CB9800
008701B900A800
00B20085006800
00B20085005800
00B20010005800
00870000005800
0019CB00005800
00000000005800
00000000001200
ENDCHAR
STARTCHAR uni0933
ENCODING 2355
SWIDTH 672 0
DWIDTH 12 0
BBX 14 10 -1 1
BITMAP
2CCCCCCCDECCC3
000000003A0000
000000003A0000
0019CC64BD9100
009601BB106900
00C10077001C00
00C10067000C00
00C10077001C00
009600BB106900
0019CC66CC9100
ENDCHAR
STARTCHAR uni0933093C
ENCODING 2356
SWIDTH 672 0
DWIDTH 12 0
BBX 14 12 -1 -1
BITMAP
2CCCCCCCDECCC3
000000003A0000
000000003A0000
0019CC64BD9100
009601BB106900
00C10077001C00
00C10067000C00
00C10077001C00
009600BB106900
0019CC66CC9100
00000000000000
00008200000000
ENDCHAR
STARTCHAR uni0935
ENCODING 2357
SWIDTH 484 0
DWIDTH 9 0
BBX 10 12 -1 -1
BITMAP
2CCCCCCFCB
0000000C10
0019CA0C10
0088000C10
00C1000C10
00D0000C10
00D0000C10
00C1000D10
0087004F10
0019CC9C10
0000000C10
0000000300
ENDCHAR
STARTCHAR uni0936
ENCODING 2358
SWIDTH 614 0
DWIDTH 11 0
BBX 12 12 0 -1
BITMAP
02BCC5006DC3
09501D007600
0A300C007600
01000D007600
00003C007600
2DCCB3007600
0C3000007600
03C000007600
008700007600
001D20007600
0004B0007600
000030002100
ENDCHAR
STARTCHAR uni0937
ENCODING 2359
SWIDTH 505 0
DWIDTH 9 0
BBX 11 12 -1 -1
BITMAP
2CEDCCCDDC40
008C10067000
0087A1067000
00852A067000
008503967000
0086004D7000
004A001D7000
0007CCB97000
000000067000
000000067000
000000067000
000000011000
ENDCHAR
STARTCHAR uni0938
ENCODING 2360
SWIDTH 575 0
DWIDTH 10 0
BBX 12 12 -1 -1
BITMAP
2CCCEDCCCEC7
0000A4003B00
0000A4003B00
0000A3003B00
0001C1003B00
05DDDCCCDB00
01D100003B00
006800003B00
000C20003B00
0005A0003B00
0000C3003B00
000012000200
ENDCHAR
STARTCHAR uni0939
ENCODING 2361
SWIDTH 481 0
DWIDTH 9 0
BBX 10 12 -1 -1
BITMAP
2CCCCCCFCA
0000000C10
0000000C10
001ACCCD00
0077000000
0077000000
001CDCC700
0069000B30
00A4000750
00A4000000
0069000000
0007CCCC10
ENDCHAR
STARTCHAR uni093C
ENCODING 2364
SWIDTH 0 0
DWIDTH 0 0
BBX 2 1 -3 -2
BITMAP
A1
ENDCHAR
STARTCHAR uni093D
ENCODING 2365
SWIDTH 529 0
DWIDTH 10 0
BBX 7 11 1 0
BITMAP
04CCCC20
0A300000
0B200000
07A00000
008C4000
0003BB10
000005B0
000000D0
230000D0
2C4003C0
019CCB30
ENDCHAR
STARTCHAR uni093E
ENCODING 2366
SWIDTH 231 0
DWIDTH 4 0
BBX 6 12 -1 -1
BITMAP
2CDEC4
005800
005800
005800
005800
005800
005800
005800
005800
005800
005800
001200
ENDCHAR
STARTCHAR uni093F
ENCODING 2367
SWIDTH 231 0
DWIDTH 4 0
BBX 13 16 -1 -1
BITMAP
0008CCCCCCC700
004A0000000C20
00580000000830
00580000000000
2CDEC400000000
00580000000000
00580000000000
00580000000000
00580000000000
00580000000000
00580000000000
00580000000000
00580000000000
00580000000000
00580000000000
00120000000000
ENDCHAR
STARTCHAR uni0940
ENCODING 2368
SWIDTH 231 0
DWIDTH 4 0
BBX 8 16 -3 -1
BITMAP
1ACCA100
77008600
84005800
00005800
002CDEC4
00005800
00005800
00005800
00005800
00005800
00005800
00005800
00005800
00005800
00005800
00001200
ENDCHAR
STARTCHAR uni0941
ENCODING 2369
SWIDTH 0 0
DWIDTH 0 0
BBX 8 5 -7 -4
BITMAP
00005CA1
27000076
0C100048
04B10076
005CCCA1
ENDCHAR
STARTCHAR uni0942
ENCODING 2370
SWIDTH 0 0
DWIDTH 0 0
BBX 7 5 -5 -4
BITMAP
1ACC8000
86007800
A2000C10
94000670
2CC301A0
ENDCHAR
STARTCHAR uni0943
ENCODING 2371
SWIDTH 0 0
DWIDTH 0 0
BBX 6 5 -5 -4
BITMAP
3BC300
B30000
C00000
B20075
3CCC70
ENDCHAR
STARTCHAR uni0945
ENCODING 2373
SWIDTH 0 0
DWIDTH 0 0
BBX 6 3 -5 12
BITMAP
700016
A30049
2BCCA2
ENDCHAR
STARTCHAR uni0946
ENCODING 2374
SWIDTH 0 0
DWIDTH 0 0
BBX 6 5 -7 10
BITMAP
480000
1C5000
017B50
0001B4
0000A8
ENDCHAR
STARTCHAR uni0947
ENCODING 2375
SWIDTH 0 0
DWIDTH 0 0
BBX 5 5 -6 10
BITMAP
5A0000
0A7000
01D300
003D10
000580
ENDCHAR
STARTCHAR uni0948
ENCODING 2376
SWIDTH 0 0
DWIDTH 0 0
BBX 5 5 -6 10
BITMAP
780750
0C4750
02D750
005D50
000780
ENDCHAR
STARTCHAR uni0949
ENCODING 2377
SWIDTH 231 0
DWIDTH 4 0
BBX 6 16 -1 -1
BITMAP
710008
85002B
1ABBB2
000000
2CDEC4
005800
005800
005800
005800
005800
005800
005800
005800
005800
005800
001200
ENDCHAR
STARTCHAR uni094A
ENCODING 2378
SWIDTH 231 0
DWIDTH 4 0
BBX 8 16 -3 -1
BITMAP
2B000000
0B700000
006B6000
00009600
002CDEC4
00005800
00005800
00005800
00005800
00005800
00005800
00005800
00005800
00005800
00005800
00001200
ENDCHAR
STARTCHAR uni094B
ENCODING 2379
SWIDTH 231 0
DWIDTH 4 0
BBX 7 16 -2 -1
BITMAP
2C100000
06900000
00950000
000A2000
02CDEC40
00058000
00058000
00058000
00058000
00058000
00058000
00058000
00058000
00058000
00058000
00012000
ENDCHAR
STARTCHAR uni094C
ENCODING 2380
SWIDTH 231 0
DWIDTH 4 0
BBX 7 16 -2 -1
BITMAP
4A057000
08658000
00A68000
001A8000
02CDEC40
00058000
00058000
00058000
00058000
00058000
00058000
00058000
00058000
00058000
00058000
00012000
ENDCHAR
STARTCHAR uni094D
ENCODING 2381
SWIDTH 0 0
DWIDTH 0 0
BBX 3 3 -3 -4
BITMAP
5900
0B40
02C0
ENDCHAR
STARTCHAR uni0950
ENCODING 2384
SWIDTH 847 0
DWIDTH 15 0
BBX 13 14 1 0
BITMAP
00000000910000
00000000000000
00000000001670
07CCB2009CB810
00005A00000000
00001C00000000
000069009CC910
00BDC100000780
000084000001B0
00002ECC8001C0
80001C01C001C0
D0002B01C001C0
A5009700D10590
1ACC80004BCA20
ENDCHAR
STARTCHAR uni0951
ENCODING 2385
SWIDTH 0 0
DWIDTH 0 0
BBX 2 3 -3 12
BITMAP
75
85
75
ENDCHAR
STARTCHAR uni0952
ENCODING 2386
SWIDTH 0 0
DWIDTH 0 0
BBX 7 1 -8 -2
BITMAP
5CCCCC40
ENDCHAR
STARTCHAR uni0953
ENCODING 2387
SWIDTH 0 0
DWIDTH 0 0
BBX 4 4 -5 11
BITMAP
6800
0C30
03C0
0051
ENDCHAR
STARTCHAR uni0954
ENCODING 2388
SWIDTH 0 0
DWIDTH 0 0
BBX 4 4 -3 11
BITMAP
00B3
0690
2D10
3300
ENDCHAR
STARTCHAR uni0915093C
ENCODING 2392
SWIDTH 725 0
DWIDTH 13 0
BBX 15 12 -1 -1
BITMAP
2CCCCCCFCCCCCC30
0000000D00000000
0019C80D7BCA1000
00A6000D6005A000
00D0000D0000D000
00D0000D0000D000
00D0000D0000D000
00A6004E0005A000
001ACB8D08CA2000
0000000D00000000
0000000D00000000
0004600300000000
ENDCHAR
STARTCHAR uni0916093C
ENCODING 2393
SWIDTH 696 0
DWIDTH 13 0
BBX 14 12 -1 -1
BITMAP
2CCCDECCCCCFC8
00004900000D00
00004900000D00
00004904B80D00
0000871D100D00
05DC914A000D00
01D2004A000D00
005A001D106D00
000A5004BB7D00
0001D100000D00
00006900000D00
01900300000300
ENDCHAR
STARTCHAR uni0917093C
ENCODING 2394
SWIDTH 494 0
DWIDTH 9 0
BBX 11 12 -1 -1
BITMAP
2CCEDCCEDC10
000940094000
000940094000
000940094000
000940094000
001D20094000
07C500094000
000000094000
000000094000
000000094000
000000094000
002800031000
ENDCHAR
STARTCHAR uni091C093C
ENCODING 2395
SWIDTH 547 0
DWIDTH 10 0
BBX 12 12 -1 -1
BITMAP
2CCCCCCCEDC1
00000000A300
00000000A300
00000000A300
008CDCCCE300
00003A00A300
00000D00A300
00000D00A300
00003C00A300
05CCB300A300
00000000A300
005500001000
ENDCHAR
STARTCHAR uni0921093C
ENCODING 2396
SWIDTH 475 0
DWIDTH 9 0
BBX 10 13 -1 -2
BITMAP
2CCCCCCFC9
0000000D00
0000000D00
002ACCCB00
0095000000
0095000000
002BCCC900
0000000A50
0071000770
0095000A50
002ACCC800
0000000000
0000190000
ENDCHAR
STARTCHAR uni0922093C
ENCODING 2397
SWIDTH 485 0
DWIDTH 9 0
BBX 10 13 -1 -2
BITMAP
2CCCCCCFCB
0000000D00
0000000D00
0019CCCC00
0087000000
00B2000000
00C104CC50
00B20A21C0
00870102B0
0019CCCB30
0000000000
0000000000
00000A0000
ENDCHAR
STARTCHAR uni092B093C
ENCODING 2398
SWIDTH 739 0
DWIDTH 13 0
BBX 15 12 -1 -1
BITMAP
2CEDCCCEDCCCCC60
0085000A30000000
0085000A8CCB3000
0085000A9002D000
0085000A4000B200
0086000A3000A300
004B002E3000B200
0007CCAB3002D000
0000000A35CB3000
0000000A30000000
0000000A30000000
0006400310000000
ENDCHAR
STARTCHAR uni092F093C
ENCODING 2399
SWIDTH 564 0
DWIDTH 10 0
BBX 12 12 -1 -1
BITMAP
2CCCFCCCDEC4
000048006800
00002B006800
000059006800
00ACA2006800
00C100006800
00B200006800
00790002C800
0007CCCB8800
000000006800
000000006800
001900001200
ENDCHAR
STARTCHAR uni0960
ENCODING 2400
SWIDTH 753 0
DWIDTH 14 0
BBX 15 13 -1 -2
BITMAP
2CCCCCCEDCCCCC90
0000000A30000000
0000000A30000000
0019CCAB3009D200
0096002E31B7A300
00C1000A5C50A300
00C0000AD35BC200
0000006E40D10000
00001A8A30D10000
0004C40A307EC400
005A100830D10000
0000000000D10000
00000000005CC700
ENDCHAR
STARTCHAR uni0961
ENCODING 2401
SWIDTH 676 0
DWIDTH 12 0
BBX 14 15 -1 -4
BITMAP
2CCCCCCCCCDEC4
00000000005800
00000000005800
0019CB46CB9800
008701BA00B800
00B20085006800
00B20085005800
00B20043005800
008700002BD700
0019CB00950000
00000000950000
000000002FC800
00000000850000
00000000940000
000000003CCB00
ENDCHAR
STARTCHAR uni0964
ENCODING 2404
SWIDTH 286 0
DWIDTH 5 0
BBX 2 11 2 0
BITMAP
66
67
67
67
67
67
67
67
67
67
66
ENDCHAR
STARTCHAR uni0965
ENCODING 2405
SWIDTH 518 0
DWIDTH 9 0
BBX 6 11 2 0
BITMAP
660049
670049
670049
670049
670049
670049
670049
670049
670049
670049
660049
ENDCHAR
STARTCHAR uni0966
ENCODING 2406
SWIDTH 519 0
DWIDTH 9 0
BBX 8 11 1 0
BITMAP
1ACCCC40
960002D0
B20000C1
C20000C1
C20000C1
C20000C1
C20000C1
C20000C1
B20000C1
880003C0
19CCCB30
ENDCHAR
STARTCHAR uni0967
ENCODING 2407
SWIDTH 288 0
DWIDTH 5 0
BBX 4 12 0 -1
BITMAP
02BB
6C6C
302C
002C
002C
002C
002C
002C
002C
002C
002C
0015
ENDCHAR
STARTCHAR uni0968
ENCODING 2408
SWIDTH 453 0
DWIDTH 8 0
BBX 8 11 0 0
BITMAP
04CCCC70
0D2000B3
1C000076
04000095
000003C1
00007B10
002B7000
04C30000
0D200000
0E000000
0DCCCCC5
ENDCHAR
STARTCHAR uni0969
ENCODING 2409
SWIDTH 489 0
DWIDTH 9 0
BBX 7 11 1 0
BITMAP
3CCCC900
C2000950
D0000580
20000580
00000A40
003CE900
00000A50
40000580
D0000580
C3000A50
2BCCC700
ENDCHAR
STARTCHAR uni096A
ENCODING 2410
SWIDTH 453 0
DWIDTH 8 0
BBX 9 12 0 -1
BITMAP
00001D9000
000098A000
0004B3A000
000C23A000
007703A000
02C003A000
0A3003A000
590003A000
8CCCCCEC20
000003A000
000003A000
0000014000
ENDCHAR
STARTCHAR uni096B
ENCODING 2411
SWIDTH 480 0
DWIDTH 9 0
BBX 7 11 1 0
BITMAP
BCCCCC50
C2000000
C2000000
C2000000
C8BCC910
84000870
000003A0
300003B0
B20003A0
87000870
19CCC800
ENDCHAR
STARTCHAR uni096C
ENCODING 2412
SWIDTH 495 0
DWIDTH 9 0
BBX 7 11 1 0
BITMAP
1ACCCC40
96000000
B2000000
C2000000
C7CCCA20
C80005B0
C20000D0
C20000D0
B20000D0
880005B0
19CCCA20
ENDCHAR
STARTCHAR uni096D
ENCODING 2413
SWIDTH 380 0
DWIDTH 7 0
BBX 7 12 0 -1
BITMAP
8CCCCD70
00000B30
00002C00
00008700
0000D100
0005A000
000A4000
001D0000
00780000
00D20000
04B00000
02200000
ENDCHAR
STARTCHAR uni096E
ENCODING 2414
SWIDTH 523 0
DWIDTH 9 0
BBX 8 11 1 0
BITMAP
1ACCCC40
960001D0
B20000B2
B20000B2
880002C0
1CDCCF40
870002D0
B20000B2
B20000B2
870002D0
19CCCB30
ENDCHAR
STARTCHAR uni096F
ENCODING 2415
SWIDTH 493 0
DWIDTH 9 0
BBX 8 11 0 0
BITMAP
03CCCC90
0D200096
1C000049
1C000049
1C000049
0C300049
02BCCCD9
00000049
00000049
00000096
06CCCC80
ENDCHAR
STARTCHAR uni0970
ENCODING 2416
SWIDTH 391 0
DWIDTH 7 0
BBX 7 6 0 2
BITMAP
04BCB400
1C101C10
49000940
49000940
1C101C10
04BCB400
ENDCHAR
STARTCHAR uni0972
ENCODING 2418
SWIDTH 598 0
DWIDTH 11 0
BBX 12 16 0 -1
BITMAP
000001700044
000000D10095
0000005BBB90
000000000000
08CC9000BCB0
00008700B200
00003A00B200
00003A00B200
00009600B200
02CDD100B200
00007DCCF200
00003A00B200
00007800B200
4CCC9100B200
00000000B200
000000003000
ENDCHAR
STARTCHAR Wgrave
ENCODING 7808
SWIDTH 795 0
DWIDTH 14 0
BBX 14 15 0 0
BITMAP
00000B60000000
000001C1000000
00000033000000
00000000000000
5900008C00005A
2D0000CC100096
0D1001B75000C3
0A400673A001E0
06800A30C004B0
03B00D00A30770
00D03A00570A40
00B275001B0D10
0076B1000C2C00
004AC00008A800
001E700003F400
ENDCHAR
STARTCHAR wgrave
ENCODING 7809
SWIDTH 682 0
DWIDTH 12 0
BBX 12 12 0 0
BITMAP
0000A7000000
00000A300000
000000000000
860006B0002C
4A000BD00068
0D000B8400B3
0A40484800D0
0680840C04A0
01C0B00B1850
00C2B0075C10
007A7003BB00
003F3000D700
ENDCHAR
STARTCHAR Wacute
ENCODING 7810
SWIDTH 795 0
DWIDTH 14 0
BBX 14 15 0 0
BITMAP
00000002D20000
0000000A500000
00000005000000
00000000000000
5900008C00005A
2D0000CC100096
0D1001B75000C3
0A400673A001E0
06800A30C004B0
03B00D00A30770
00D03A00570A40
00B275001B0D10
0076B1000C2C00
004AC00008A800
001E700003F400
ENDCHAR
STARTCHAR wacute
ENCODING 7811
SWIDTH 682 0
DWIDTH 12 0
BBX 12 12 0 0
BITMAP
0000003C1000
000000B20000
000000000000
860006B0002C
4A000BD00068
0D000B8400B3
0A40484800D0
0680840C04A0
01C0B00B1850
00C2B0075C10
007A7003BB00
003F3000D700
ENDCHAR
STARTCHAR Wdieresis
ENCODING 7812
SWIDTH 795 0
DWIDTH 14 0
BBX 14 15 0 0
BITMAP
00000B20C10000
00000B20C10000
00000100100000
00000000000000
5900008C00005A
2D0000CC100096
0D1001B75000C3
0A400673A001E0
06800A30C004B0
03B00D00A30770
00D03A00570A40
00B275001B0D10
0076B1000C2C00
004AC00008A800
001E700003F400
ENDCHAR
STARTCHAR wdieresis
ENCODING 7813
SWIDTH 682 0
DWIDTH 12 0
BBX 12 12 0 0
BITMAP
0000B10C1000
0000B20D1000
000010010000
860006B0002C
4A000BD00068
0D000B8400B3
0A40484800D0
0680840C04A0
01C0B00B1850
00C2B0075C10
007A7003BB00
003F3000D700
ENDCHAR
STARTCHAR uni1E9E
ENCODING 7838
SWIDTH 542 0
DWIDTH 10 0
BBX 8 11 1 0
BITMAP
08CCCCE5
5A0001B0
86000940
85003900
85008DA1
85000088
8500003B
8500002B
8500003A
85000087
8507CCA1
ENDCHAR
STARTCHAR Ygrave
ENCODING 7922
SWIDTH 493 0
DWIDTH 9 0
BBX 9 15 0 0
BITMAP
005C000000
0009600000
0000500000
0000000000
5A00000C30
0C30005B00
05A000C300
00C305A000
004A0C2000
000B890000
0003F20000
0000D00000
0000D00000
0000D00000
0000D00000
ENDCHAR
STARTCHAR ygrave
ENCODING 7923
SWIDTH 459 0
DWIDTH 8 0
BBX 8 14 0 -2
BITMAP
004C0000
00058000
00000000
5800004A
1D0000A4
095001D0
04A00680
00D10C20
00762C00
002C8600
000AE100
0004A000
001C3000
1CC50000
ENDCHAR
STARTCHAR uni200B
ENCODING 8203
SWIDTH 0 0
DWIDTH 0 0
BBX 1 1 0 0
BITMAP
00
ENDCHAR
STARTCHAR uni200C
ENCODING 8204
SWIDTH 0 0
DWIDTH 0 0
BBX 2 19 -1 -4
BITMAP
33
67
67
67
67
67
67
67
67
67
67
67
67
67
67
67
67
67
67
ENDCHAR
STARTCHAR uni200D
ENCODING 8205
SWIDTH 0 0
DWIDTH 0 0
BBX 6 19 -3 -4
BITMAP
030030
1C55C1
01CC10
05EE50
1B77B2
006700
006700
006700
006700
006700
006700
006700
006700
006700
006700
006700
006700
006700
006700
ENDCHAR
STARTCHAR endash
ENCODING 8211
SWIDTH 408 0
DWIDTH 7 0
BBX 7 1 0 5
BITMAP
3CCCCC70
ENDCHAR
STARTCHAR emdash
ENCODING 8212
SWIDTH 537 0
DWIDTH 10 0
BBX 9 1 0 5
BITMAP
3CCCCCCCB0
ENDCHAR
STARTCHAR quoteleft
ENCODING 8216
SWIDTH 179 0
DWIDTH 3 0
BBX 2 5 1 7
BITMAP
10
61
A1
D1
D1
ENDCHAR
STARTCHAR quoteright
ENCODING 8217
SWIDTH 179 0
DWIDTH 3 0
BBX 2 5 1 6
BITMAP
D1
D1
B0
70
10
ENDCHAR
STARTCHAR quotesinglbase
ENCODING 8218
SWIDTH 187 0
DWIDTH 3 0
BBX 2 4 1 -2
BITMAP
C2
C2
B0
60
ENDCHAR
STARTCHAR quotedblleft
ENCODING 8220
SWIDTH 329 0
DWIDTH 6 0
BBX 4 5 1 7
BITMAP
1001
6107
A10B
D12C
D12B
ENDCHAR
STARTCHAR quotedblright
ENCODING 8221
SWIDTH 329 0
DWIDTH 6 0
BBX 4 5 1 6
BITMAP
D12B
D13B
B039
7035
1010
ENDCHAR
STARTCHAR quotedblbase
ENCODING 8222
SWIDTH 337 0
DWIDTH 6 0
BBX 4 5 1 -3
BITMAP
C21D
C21C
B019
7015
1000
ENDCHAR
STARTCHAR dagger
ENCODING 8224
SWIDTH 427 0
DWIDTH 8 0
BBX 7 11 0 0
BITMAP
00094000
00083000
00083000
1BBDBB90
00093000
00094000
00094000
00093000
00083000
00083000
00072000
ENDCHAR
STARTCHAR daggerdbl
ENCODING 8225
SWIDTH 427 0
DWIDTH 8 0
BBX 7 11 0 0
BITMAP
00094000
00083000
00083000
1BBDBB90
00083000
00094000
00083000
2CCEDCA0
00083000
00083000
00094000
ENDCHAR
STARTCHAR bullet
ENCODING 8226
SWIDTH 273 0
DWIDTH 5 0
BBX 3 3 1 4
BITMAP
4E30
5F40
5F30
ENDCHAR
STARTCHAR ellipsis
ENCODING 8230
SWIDTH 591 0
DWIDTH 11 0
BBX 9 3 1 0
BITMAP
A202A00750
C303C00970
C302C00860
ENDCHAR
STARTCHAR perthousand
ENCODING 8240
SWIDTH 1027 0
DWIDTH 18 0
BBX 18 11 0 0
BITMAP
07CCB1009200000000
0C006602A000000000
1A0047083000000000
0C00761A0000000000
06CCA1740000000000
000000B00000000000
000006619AA4029AA3
00000B07500B09301B
00005708300B0A100B
0000B107500C09301B
00038002CCC603CCC5
ENDCHAR
STARTCHAR guilsinglleft
ENCODING 8249
SWIDTH 290 0
DWIDTH 5 0
BBX 3 7 1 1
BITMAP
0040
05A0
5A00
B100
3B10
03B0
0020
ENDCHAR
STARTCHAR guilsinglright
ENCODING 8250
SWIDTH 290 0
DWIDTH 5 0
BBX 3 7 1 1
BITMAP
5000
7800
0780
00C0
0A50
9500
2000
ENDCHAR
STARTCHAR fraction
ENCODING 8260
SWIDTH 117 0
DWIDTH 2 0
BBX 10 11 -4 0
BITMAP
0000000075
0000000490
0000002B00
000001B200
0000094000
0000670000
0003A00000
001B100000
00A3000000
0760000000
4900000000
ENDCHAR
STARTCHAR Euro
ENCODING 8364
SWIDTH 523 0
DWIDTH 9 0
BBX 9 11 0 0
BITMAP
003CCCC400
00D2001D10
00D0000B20
00D0000000
4CFCCB0000
00D0000000
4CFCCA0000
00D0000100
00D0000B20
00C2001D10
003CCCC400
ENDCHAR
STARTCHAR uni20B9
ENCODING 8377
SWIDTH 414 0
DWIDTH 7 0
BBX 7 12 0 -1
BITMAP
3CCEDCA0
0001C000
3CCCFCA0
0000D000
0005A000
4DCA1000
0C300000
03C00000
00880000
000C3000
0003C000
00003000
ENDCHAR
STARTCHAR trademark
ENCODING 8482
SWIDTH 591 0
DWIDTH 11 0
BBX 9 4 1 7
BITMAP
9DC5A40770
0720991A70
072093B370
0620801170
ENDCHAR
STARTCHAR uni2126
ENCODING 8486
SWIDTH 629 0
DWIDTH 11 0
BBX 11 11 0 0
BITMAP
005CCCCC9000
01D100009500
04A000005800
049000005800
049000005800
049000005800
049000005800
049000005800
03A000005800
00B20000A300
3CCDB07DDC70
ENDCHAR
STARTCHAR partialdiff
ENCODING 8706
SWIDTH 481 0
DWIDTH 9 0
BBX 7 12 1 0
BITMAP
08B72000
0025C400
00001C10
00000750
19CCB770
97001B80
D0000690
E0000590
E0000590
D0000680
96001B40
19CCC700
ENDCHAR
STARTCHAR uni2206
ENCODING 8710
SWIDTH 594 0
DWIDTH 11 0
BBX 11 11 0 0
BITMAP
00005E200000
0000C9700000
0003B1D00000
000950A40000
001D004A0000
0069000D1000
00C300077000
03C00002D000
09600000B400
0D1000005A00
4DCCCCCCCD10
ENDCHAR
STARTCHAR minus
ENCODING 8722
SWIDTH 523 0
DWIDTH 9 0
BBX 8 1 1 5
BITMAP
8CCCCCC1
ENDCHAR
STARTCHAR approxequal
ENCODING 8776
SWIDTH 523 0
DWIDTH 9 0
BBX 8 4 1 4
BITMAP
6BCCCBA1
00000000
00000000
6BCCCBA1
ENDCHAR
STARTCHAR notequal
ENCODING 8800
SWIDTH 523 0
DWIDTH 9 0
BBX 8 8 1 2
BITMAP
00007400
0000B000
8CCCECB1
00074000
000B0000
8CCECCC1
00830000
00900000
ENDCHAR
STARTCHAR lessequal
ENCODING 8804
SWIDTH 523 0
DWIDTH 9 0
BBX 8 7 1 2
BITMAP
000027B1
038CA510
AC400000
27BA6200
00016AC1
00000010
8CCCCCC1
ENDCHAR
STARTCHAR greaterequal
ENCODING 8805
SWIDTH 523 0
DWIDTH 9 0
BBX 8 7 1 2
BITMAP
89400000
038CA510
000029F2
0049C940
8C830000
10000000
8CCCCCC1
ENDCHAR
STARTCHAR uni25CC
ENCODING 9676
SWIDTH 701 0
DWIDTH 13 0
BBX 11 10 1 1
BITMAP
0000A86C0000
00C6865A9600
00A50000A700
4E1000000A50
3B0000000C60
8A0000000000
680000001E40
09900004B100
01195695D000
000B77B00000
ENDCHAR
STARTCHAR commaaccent
ENCODING 63171
SWIDTH 0 0
DWIDTH 0 0
BBX 2 4 3 -4
BITMAP
68
67
64
50
ENDCHAR
STARTCHAR .notdef
ENCODING -1
SWIDTH 600 0
DWIDTH 11 0
BBX 7 10 2 0
BITMAP
BCCCCC90
D10004A0
D10004A0
D10004A0
D10004A0
D10004A0
D10004A0
D10004A0
D10004A0
BCCCCC90
ENDCHAR
STARTCHAR .null
ENCODING -1
SWIDTH 0 0
DWIDTH 0 0
BBX 1 1 0 0
BITMAP
00
ENDCHAR
STARTCHAR nonmarkingreturn
ENCODING -1
SWIDTH 333 0
DWIDTH 6 0
BBX 1 1 0 0
BITMAP
00
ENDCHAR
STARTCHAR uni0915094D
ENCODING -1
SWIDTH 519 0
DWIDTH 9 0
BBX 13 12 -1 -1
BITMAP
2CCCCCCFCCCC70
0000000D000000
0019C80D7BCA10
00A6000D600560
00D0000D000000
00D0000D000000
00D0000D000000
00A6004E000000
001ACB8D000000
0000000D000000
0000000D000000
00000003000000
ENDCHAR
STARTCHAR uni0916094D
ENCODING -1
SWIDTH 468 0
DWIDTH 8 0
BBX 12 12 -1 -1
BITMAP
2CCCDECCCCC4
000049000000
000049000000
00004904B800
0000871D1000
05DC914A0000
01D2004A0000
005A001D1066
000A5004BC80
0001D1000000
000069000000
000003000000
ENDCHAR
STARTCHAR uni0917094D
ENCODING -1
SWIDTH 264 0
DWIDTH 5 0
BBX 6 7 -1 4
BITMAP
2CCEDB
000940
000940
000940
000940
001D20
07C500
ENDCHAR
STARTCHAR uni0918094D
ENCODING -1
SWIDTH 321 0
DWIDTH 6 0
BBX 9 10 -1 1
BITMAP
2CCFCCCCB0
0085000000
00A2000000
0086000000
001DDB0000
0077000000
00A3000000
00A3000000
00780002B0
0019CCCB30
ENDCHAR
STARTCHAR uni0919094D
ENCODING -1
SWIDTH 505 0
DWIDTH 9 0
BBX 11 15 -1 -4
BITMAP
2CCCCCCFCC30
0000000D0000
0000000D0000
002ACCCB0000
009500000000
009500005500
002ACCC90000
0000000A5000
007100077000
0094000A5000
002BCCC90000
000001000000
00000B200000
000003C00000
000000740000
ENDCHAR
STARTCHAR uni091A094D
ENCODING -1
SWIDTH 330 0
DWIDTH 6 0
BBX 10 9 -1 2
BITMAP
2CCCCCCCC1
0000000000
0000000000
06CCDC9000
000B300000
001C000000
001C000000
000C300191
0002BCCB40
ENDCHAR
STARTCHAR uni091B094D
ENCODING -1
SWIDTH 581 0
DWIDTH 10 0
BBX 12 10 -1 1
BITMAP
2CCFCCCCCCC8
007700000000
0094000BC500
009400001D00
007800000B20
001DD7000B20
007700000B20
009400000B20
007700002C00
0019CCCCB300
ENDCHAR
STARTCHAR uni091C094D
ENCODING -1
SWIDTH 309 0
DWIDTH 6 0
BBX 9 10 -1 1
BITMAP
2CCCCCCC50
0000000000
0000000000
0000000000
008CDCCC50
00003A0000
00000D0000
00000D0000
00003C0000
05CCB30000
ENDCHAR
STARTCHAR uni091D094D
ENCODING -1
SWIDTH 432 0
DWIDTH 8 0
BBX 11 12 -1 -1
BITMAP
2CCCCCEDCC70
000000850000
001ACCD40000
008600000000
00A300000000
008600000000
001ACCDDCC70
0000002C0000
00B2002C0000
00C9BCB40000
00C100000000
00B100000000
ENDCHAR
STARTCHAR uni091E094D
ENCODING -1
SWIDTH 359 0
DWIDTH 6 0
BBX 10 10 -1 1
BITMAP
2CCCCCCCC3
0000000000
0000000000
00ACB40000
00001C1000
0000093000
000009DCC3
0000093000
00001C1000
02CCC50000
ENDCHAR
STARTCHAR uni091F094D
ENCODING -1
SWIDTH 485 0
DWIDTH 9 0
BBX 10 15 -1 -4
BITMAP
2CCCCCCFCB
0000001C00
0000001C00
0019CCCA00
0087000000
00C1000000
00C1000050
00C10001C0
0087000690
0019CCC910
0000000000
0000081000
000004A000
000000A500
0000001200
ENDCHAR
STARTCHAR uni0920094D
ENCODING -1
SWIDTH 512 0
DWIDTH 9 0
BBX 11 15 -1 -4
BITMAP
2CCCCCCFCC50
0000000C1000
0000001D0000
0019CCDB1000
008700069000
00C10000D000
00C10000D000
00C10000D000
009700069000
0019CCC91000
000000000000
000009100000
000006800000
000000B30000
000000120000
ENDCHAR
STARTCHAR uni0921094D
ENCODING -1
SWIDTH 475 0
DWIDTH 9 0
BBX 10 15 -1 -4
BITMAP
2CCCCCCFC9
0000000D00
0000000D00
002ACCCB00
0095000000
0095000000
002BCCC900
0000000A50
0071000770
0095000A50
002ACCC800
0000010000
00000A4000
000002C100
0000005500
ENDCHAR
STARTCHAR uni0922094D
ENCODING -1
SWIDTH 485 0
DWIDTH 9 0
BBX 10 15 -1 -4
BITMAP
2CCCCCCFCB
0000000D00
0000000D00
0019CCCC00
0087000000
00B2000000
00C104CC50
00B20A21C0
00870102B0
0019CCCB30
0000000000
0000091000
0000059000
000000B400
0000001200
ENDCHAR
STARTCHAR uni0923094D
ENCODING -1
SWIDTH 454 0
DWIDTH 8 0
BBX 10 8 -1 3
BITMAP
2CEDCCDEC4
0085003A00
0085003A00
0085003A00
0085003A00
0085003A00
005A008700
0008CC9000
ENDCHAR
STARTCHAR uni0924094D
ENCODING -1
SWIDTH 263 0
DWIDTH 5 0
BBX 8 11 -1 0
BITMAP
2CCCCCC6
00000000
00000000
001ACCC6
00960000
00C10000
00C10000
00C10000
00C10000
00870000
0019C200
ENDCHAR
STARTCHAR uni0925094D
ENCODING -1
SWIDTH 359 0
DWIDTH 6 0
BBX 8 9 1 2
BITMAP
1ACC5000
5801C000
4400D000
0003C000
CCCB3000
D0000000
C1000000
88000077
08CCCC70
ENDCHAR
STARTCHAR uni0926094D
ENCODING -1
SWIDTH 489 0
DWIDTH 9 0
BBX 10 14 -1 -3
BITMAP
2CCCCCCEDB
0000000A30
0000000A30
0019CCCD20
0088000000
00B2000000
00C1000560
00B2000670
0087000B70
0019CCCA70
0000010560
00000C2000
000003B000
0000007400
ENDCHAR
STARTCHAR uni0927094D
ENCODING -1
SWIDTH 321 0
DWIDTH 6 0
BBX 10 10 -1 1
BITMAP
2CCFC34CC1
0085000000
00A2000000
0086000000
001DDB0000
0077000000
00A3000000
00A3000000
00780002B0
0019CCCB30
ENDCHAR
STARTCHAR uni0928094D
ENCODING -1
SWIDTH 233 0
DWIDTH 4 0
BBX 7 8 -1 3
BITMAP
2CCCCCB0
00000000
00000000
00000000
009CCCB0
04A00000
04900000
01800000
ENDCHAR
STARTCHAR uni092A094D
ENCODING -1
SWIDTH 269 0
DWIDTH 5 0
BBX 9 8 -1 3
BITMAP
2CEDCCCC10
0085000000
0085000000
0085000000
0085000000
0086000000
004A001910
0007CCB400
ENDCHAR
STARTCHAR uni092B094D
ENCODING -1
SWIDTH 530 0
DWIDTH 10 0
BBX 13 12 -1 -1
BITMAP
2CEDCCCEDCCCA0
0085000A300000
0085000A8CCB30
0085000A9003A0
0085000A400000
0086000A300000
004B002E300000
0007CCAB300000
0000000A300000
0000000A300000
0000000A300000
00000002000000
ENDCHAR
STARTCHAR uni092C094D
ENCODING -1
SWIDTH 265 0
DWIDTH 5 0
BBX 9 10 -1 1
BITMAP
2CCCCCCB00
0000000000
0019CB0000
008C000000
00C7800000
00D0760000
00D0094510
00C100AC10
0087003C00
0019CCB200
ENDCHAR
STARTCHAR uni092D094D
ENCODING -1
SWIDTH 261 0
DWIDTH 5 0
BBX 8 8 -1 3
BITMAP
2C8005C7
00B30000
00840000
00840000
00840000
008DCCC7
00840000
00630000
ENDCHAR
STARTCHAR uni092E094D
ENCODING -1
SWIDTH 261 0
DWIDTH 5 0
BBX 8 8 -1 3
BITMAP
2CEDCCC7
00940000
00940000
00940000
00940000
009DCCC7
00940000
00630000
ENDCHAR
STARTCHAR uni092F094D
ENCODING -1
SWIDTH 323 0
DWIDTH 6 0
BBX 9 9 -1 2
BITMAP
2CCCFCCC60
0000480000
00002B0000
0000590000
00ACA20000
00C1000000
00B2000000
00790002B0
0007CCCB30
ENDCHAR
STARTCHAR uni0930094D
ENCODING -1
SWIDTH 337 0
DWIDTH 6 0
BBX 8 15 -1 -4
BITMAP
2CCCDEC3
00004900
00004900
00004900
00008700
05DC9100
01D20000
004B0000
000A5000
0001C100
00005A00
00010100
00059000
0000A400
00001900
ENDCHAR
STARTCHAR uni0932094D
ENCODING -1
SWIDTH 431 0
DWIDTH 8 0
BBX 12 10 -1 1
BITMAP
2CCCCCCCCCC1
000000000000
000000000000
0019CB47CB50
008701B90070
00B200850000
00B200850000
00B200100000
008700000000
0019CB000000
ENDCHAR
STARTCHAR uni0933094D
ENCODING -1
SWIDTH 677 0
DWIDTH 12 0
BBX 14 10 -1 1
BITMAP
2CCCCCCCCCCCC4
00000000000000
00000000000000
0019CC65CC9100
009601BB106900
00C10077001C00
00C10067000C00
00C10077001C00
009600BB106900
0019CC66CC9100
ENDCHAR
STARTCHAR uni0935094D
ENCODING -1
SWIDTH 255 0
DWIDTH 5 0
BBX 9 10 -1 1
BITMAP
2CCCCCCB00
0000000000
0019CB0000
0087000000
00C1000000
00D0000000
00D0000510
00C1000A10
0087002B00
0019CCB200
ENDCHAR
STARTCHAR uni0936094D
ENCODING -1
SWIDTH 378 0
DWIDTH 7 0
BBX 6 12 0 -1
BITMAP
02BCC5
09501D
0A300C
01000D
00003C
2DCCB3
0C3000
03C000
008700
001D20
0004B0
000030
ENDCHAR
STARTCHAR uni0937094D
ENCODING -1
SWIDTH 282 0
DWIDTH 5 0
BBX 9 8 -1 3
BITMAP
2CEDCCCC40
008C100000
0087A10000
00852A0000
0085039000
0086004910
004A001C40
0007CCB400
ENDCHAR
STARTCHAR uni0938094D
ENCODING -1
SWIDTH 338 0
DWIDTH 6 0
BBX 10 12 -1 -1
BITMAP
2CCCEDCCC1
0000A40000
0000A40000
0000A30000
0001C10000
05DDDCCCC1
01D1000000
0068000000
000C200000
0005A00000
0000C30000
0000120000
ENDCHAR
STARTCHAR uni0939094D
ENCODING -1
SWIDTH 457 0
DWIDTH 8 0
BBX 12 12 -1 -1
BITMAP
2CCCCCCFCA00
0000000C1000
0000000C1000
001ACCCD0000
007700000000
007700000000
001CDCCCCCC1
006900000000
00A400000000
009400000000
006900000000
0007CCCC1000
ENDCHAR
STARTCHAR uni0915093C094D
ENCODING -1
SWIDTH 519 0
DWIDTH 9 0
BBX 13 12 -1 -1
BITMAP
2CCCCCCFCCCC70
0000000D000000
0019C80D7BCA10
00A6000D600560
00D0000D000000
00D0000D000000
00D0000D000000
00A6004E000000
001ACB8D000000
0000000D000000
0000000D000000
000A0003000000
ENDCHAR
STARTCHAR uni0916093C094D
ENCODING -1
SWIDTH 463 0
DWIDTH 8 0
BBX 12 12 -1 -1
BITMAP
2CCCDECCCCC4
000049000000
000049000000
00004904B800
0000871D1000
05DC914A0000
01D2004A0000
005A001D1066
000A5004BC80
0001D1000000
00005A000000
009202000000
ENDCHAR
STARTCHAR uni0917093C094D
ENCODING -1
SWIDTH 264 0
DWIDTH 5 0
BBX 6 11 -1 0
BITMAP
2CCEDB
000940
000940
000940
000940
001D20
07C500
000000
000000
000000
002800
ENDCHAR
STARTCHAR uni091C093C094D
ENCODING -1
SWIDTH 314 0
DWIDTH 6 0
BBX 9 12 -1 -1
BITMAP
2CCCCCCC50
0000000000
0000000000
0000000000
008CDCCC50
00003A0000
00000D0000
00000D0000
00003C0000
05CCB30000
0000000000
0037000000
ENDCHAR
STARTCHAR uni0928093C094D
ENCODING -1
SWIDTH 241 0
DWIDTH 4 0
BBX 8 11 -1 0
BITMAP
1CCCCCC1
00000000
00000000
00000000
008CCCC1
02C00000
01B00000
00300000
00000000
00000000
00082000
ENDCHAR
STARTCHAR uni092B093C094D
ENCODING -1
SWIDTH 530 0
DWIDTH 10 0
BBX 13 12 -1 -1
BITMAP
2CEDCCCEDCCCA0
0085000A300000
0085000A8CCB30
0085000A9003A0
0085000A400000
0086000A300000
004B002E300000
0007CCAB300000
0000000A300000
0000000A300000
0000000A300000
00055003100000
ENDCHAR
STARTCHAR uni092F093C094D
ENCODING -1
SWIDTH 325 0
DWIDTH 6 0
BBX 9 12 -1 -1
BITMAP
2CCCFCCC60
0000480000
00002B0000
0000590000
00ACA20000
00C1000000
00B2000000
00790002B0
0007CCCB30
0000000000
0000000000
0003700000
ENDCHAR
STARTCHAR uni09080902
ENCODING -1
SWIDTH 478 0
DWIDTH 9 0
BBX 10 16 -1 -1
BITMAP
0000009CC1
0000069000
0000076270
0000067000
2CCCCCCFC9
0000000D00
0000000D00
002BCCCC00
00A4000000
0094000000
002BCCC900
0000000960
00B1000670
00C6000950
00C9CCC900
00B1000000
ENDCHAR
STARTCHAR uni09300941
ENCODING -1
SWIDTH 533 0
DWIDTH 10 0
BBX 11 12 -1 -1
BITMAP
2CCCDECCCC90
000049000000
000049000000
00004ECC8000
000088009500
05DCA1006700
01D100008500
005A0005C000
000A50791000
0002D1000000
000069000000
000003000000
ENDCHAR
STARTCHAR uni09300942
ENCODING -1
SWIDTH 645 0
DWIDTH 12 0
BBX 13 12 -1 -1
BITMAP
2CCCDECCCCCC90
00004900000000
00004900000000
00004906CC9000
0000870D009500
05DC9119005700
01D10000007600
005A000004C100
000A5002B91000
0002D101300000
00006900000000
00000300000000
ENDCHAR
STARTCHAR uni09390941
ENCODING -1
SWIDTH 495 0
DWIDTH 9 0
BBX 11 15 -1 -4
BITMAP
2CCCCCCFCC10
0000000C1000
001ACCCD1000
007700000000
007700000000
001CDCC70000
0069000B3000
00A400075000
00A400000000
006900000000
0007CCCB2000
00100004A000
00C20001B000
004C20059000
0004BCCA1000
ENDCHAR
STARTCHAR uni09390942
ENCODING -1
SWIDTH 492 0
DWIDTH 9 0
BBX 10 15 -1 -4
BITMAP
2CCCCCCFCA
0000000C10
0009CCCD10
0068000000
0085000000
0068000000
000CDCC800
0078000A40
00A3000530
0078000000
000CDCA200
002B003C10
0048000660
003A0001C0
000AC70092
ENDCHAR
STARTCHAR uni09260943
ENCODING -1
SWIDTH 390 0
DWIDTH 7 0
BBX 9 10 -1 1
BITMAP
2CCCCDEC20
0000049000
001ACC8000
0086000000
0086000000
001ECB0000
0076000000
0093000000
0077000000
001ACCC100
ENDCHAR
STARTCHAR uni09390943
ENCODING -1
SWIDTH 519 0
DWIDTH 9 0
BBX 11 13 -1 -2
BITMAP
2CCCCCCFCC60
0000000D0000
0000000D0000
002BCCCD0000
00A500000000
009400000000
002EDDDCB100
00960C107700
00C10D001300
00C00C100000
00C104CCC100
009600000000
0019CCCB0000
ENDCHAR
STARTCHAR uni094D0930
ENCODING -1
SWIDTH 0 0
DWIDTH 0 0
BBX 7 4 -8 -3
BITMAP
00171000
00AB9000
06A0B500
1C101C10
ENDCHAR
STARTCHAR uni0930094D.1
ENCODING -1
SWIDTH 192 0
DWIDTH 3 0
BBX 8 5 -2 6
BITMAP
02CCC800
00000000
00000000
29000083
06BCCC60
ENDCHAR
STARTCHAR uni0930094D.2
ENCODING -1
SWIDTH 0 0
DWIDTH 0 0
BBX 4 5 -3 10
BITMAP
1BC4
6800
8500
8500
6500
ENDCHAR
STARTCHAR uni0930094D0902
ENCODING -1
SWIDTH 0 0
DWIDTH 0 0
BBX 4 5 -3 10
BITMAP
1BC4
6800
8582
8500
6500
ENDCHAR
STARTCHAR uni093E0930094D
ENCODING -1
SWIDTH 231 0
DWIDTH 4 0
BBX 6 16 -1 -1
BITMAP
0009C6
004A00
005800
005800
2CDEC4
005800
005800
005800
005800
005800
005800
005800
005800
005800
005800
001200
ENDCHAR
STARTCHAR uni093E0930094D0902
ENCODING -1
SWIDTH 231 0
DWIDTH 4 0
BBX 6 16 -1 -1
BITMAP
0009C6
004A00
005827
005800
2CDEC4
005800
005800
005800
005800
005800
005800
005800
005800
005800
005800
001200
ENDCHAR
STARTCHAR uni0930094D.aMatraI
ENCODING -1
SWIDTH 0 0
DWIDTH 0 0
BBX 3 4 -1 11
BITMAP
2BB0
A400
D000
D000
ENDCHAR
STARTCHAR uni0902.aMatraI
ENCODING -1
SWIDTH 0 0
DWIDTH 0 0
BBX 2 1 0 13
BITMAP
38
ENDCHAR
STARTCHAR uni0930094D0902.aMatraI
ENCODING -1
SWIDTH 0 0
DWIDTH 0 0
BBX 3 4 -1 11
BITMAP
2BB0
A400
D090
D000
ENDCHAR
STARTCHAR uni09400930094D
ENCODING -1
SWIDTH 231 0
DWIDTH 4 0
BBX 8 16 -3 -1
BITMAP
1ACC97B7
77008A00
84005800
00005800
002CDEC4
00005800
00005800
00005800
00005800
00005800
00005800
00005800
00005800
00005800
00005800
00001200
ENDCHAR
STARTCHAR uni09400902
ENCODING -1
SWIDTH 231 0
DWIDTH 4 0
BBX 8 16 -3 -1
BITMAP
1BCCA100
77008665
63005800
00005800
002CDEC4
00005800
00005800
00005800
00005800
00005800
00005800
00005800
00005800
00005800
00005800
00001200
ENDCHAR
STARTCHAR uni09400930094D0902
ENCODING -1
SWIDTH 231 0
DWIDTH 4 0
BBX 8 16 -3 -1
BITMAP
1ACC97B7
77008A00
84005826
00005800
002CDEC4
00005800
00005800
00005800
00005800
00005800
00005800
00005800
00005800
00005800
00005800
00001200
ENDCHAR
STARTCHAR uni0940.aLong
ENCODING -1
SWIDTH 231 0
DWIDTH 4 0
BBX 12 16 -7 -1
BITMAP
4CCCCCCCA100
D10000008600
C00000005800
000000005800
0000002CDEC4
000000005800
000000005800
000000005800
000000005800
000000005800
000000005800
000000005800
000000005800
000000005800
000000005800
000000001200
ENDCHAR
STARTCHAR uni09400930094D.aLong
ENCODING -1
SWIDTH 231 0
DWIDTH 4 0
BBX 12 16 -7 -1
BITMAP
4CCCCCCB88C6
D10000008A00
C00000005800
000000005800
0000002CDEC4
000000005800
000000005800
000000005800
000000005800
000000005800
000000005800
000000005800
000000005800
000000005800
000000005800
000000001200
ENDCHAR
STARTCHAR uni09400902.aLong
ENCODING -1
SWIDTH 231 0
DWIDTH 4 0
BBX 12 16 -7 -1
BITMAP
5CCCCCCCA100
D10000008628
700000005800
000000005800
0000002CDEC4
000000005800
000000005800
000000005800
000000005800
000000005800
000000005800
000000005800
000000005800
000000005800
000000005800
000000001200
ENDCHAR
STARTCHAR uni09400930094D0902.aLong
ENCODING -1
SWIDTH 231 0
DWIDTH 4 0
BBX 12 16 -7 -1
BITMAP
4CCCCCCB88C6
D10000008A00
C00000005826
000000005800
0000002CDEC4
000000005800
000000005800
000000005800
000000005800
000000005800
000000005800
000000005800
000000005800
000000005800
000000005800
000000001200
ENDCHAR
STARTCHAR uni09470930094D
ENCODING -1
SWIDTH 0 0
DWIDTH 0 0
BBX 7 4 -6 11
BITMAP
4B01BC40
07857000
008B5000
00086000
ENDCHAR
STARTCHAR uni09470902
ENCODING -1
SWIDTH 0 0
DWIDTH 0 0
BBX 6 5 -6 10
BITMAP
5A0000
0A7019
01D300
003D10
000580
ENDCHAR
STARTCHAR uni09470901
ENCODING -1
SWIDTH 0 0
DWIDTH 0 0
BBX 10 5 -6 10
BITMAP
5A00208111
0A71C00077
01D37BBBA1
003D100000
0005800000
ENDCHAR
STARTCHAR uni09470930094D0902
ENCODING -1
SWIDTH 0 0
DWIDTH 0 0
BBX 7 4 -6 11
BITMAP
4C22CC40
07D87720
008F5000
00096000
ENDCHAR
STARTCHAR uni09480930094D
ENCODING -1
SWIDTH 0 0
DWIDTH 0 0
BBX 7 5 -6 10
BITMAP
A42B5C50
2C2CA000
067C7000
009B5000
001C6000
ENDCHAR
STARTCHAR uni09480902
ENCODING -1
SWIDTH 0 0
DWIDTH 0 0
BBX 7 5 -6 10
BITMAP
87075000
1D275000
03A75650
006A5000
00096000
ENDCHAR
STARTCHAR uni09480901
ENCODING -1
SWIDTH 0 0
DWIDTH 0 0
BBX 11 5 -6 10
BITMAP
870752036020
1C275B1000C0
03A7585003B0
007951ABBB20
000960000000
ENDCHAR
STARTCHAR uni09480930094D0902
ENCODING -1
SWIDTH 0 0
DWIDTH 0 0
BBX 7 5 -6 10
BITMAP
A42B5C50
2C2CA000
068B7720
009C5000
001C6000
ENDCHAR
STARTCHAR uni094B0930094D
ENCODING -1
SWIDTH 231 0
DWIDTH 4 0
BBX 7 16 -2 -1
BITMAP
3C109C60
0693A000
00998000
000A8000
02CDEC40
00058000
00058000
00058000
00058000
00058000
00058000
00058000
00058000
00058000
00058000
00012000
ENDCHAR
STARTCHAR uni094B0902
ENCODING -1
SWIDTH 231 0
DWIDTH 4 0
BBX 7 16 -2 -1
BITMAP
2C100000
06902800
00950000
000A2000
02CDEC40
00058000
00058000
00058000
00058000
00058000
00058000
00058000
00058000
00058000
00058000
00012000
ENDCHAR
STARTCHAR uni094B0930094D0902
ENCODING -1
SWIDTH 231 0
DWIDTH 4 0
BBX 7 16 -2 -1
BITMAP
2C109C60
0693A000
00898270
000A8000
02CDEC40
00058000
00058000
00058000
00058000
00058000
00058000
00058000
00058000
00058000
00058000
00012000
ENDCHAR
STARTCHAR uni094C0930094D
ENCODING -1
SWIDTH 231 0
DWIDTH 4 0
BBX 7 16 -2 -1
BITMAP
870D3C70
0B3C8100
01BA7000
002C8000
02CDEC40
00058000
00058000
00058000
00058000
00058000
00058000
00058000
00058000
00058000
00058000
00012000
ENDCHAR
STARTCHAR uni094C0902
ENCODING -1
SWIDTH 231 0
DWIDTH 4 0
BBX 7 16 -2 -1
BITMAP
4A057000
08758650
00A78000
001A8000
02CDEC40
00058000
00058000
00058000
00058000
00058000
00058000
00058000
00058000
00058000
00058000
00012000
ENDCHAR
STARTCHAR uni094C0930094D0902
ENCODING -1
SWIDTH 231 0
DWIDTH 4 0
BBX 7 16 -2 -1
BITMAP
870D3C70
0B3C8100
01BA7270
002C8000
02CDEC40
00058000
00058000
00058000
00058000
00058000
00058000
00058000
00058000
00058000
00058000
00012000
ENDCHAR
STARTCHAR uni0915094D0937
ENCODING -1
SWIDTH 656 0
DWIDTH 12 0
BBX 11 11 1 0
BITMAP
03BCC400BCB0
0B201C00C100
0D000B00C100
09402B00C100
2BECDCCCF100
A4000000C100
C1000000C100
C1000D00C100
A4003E00C100
2ACC9D00C100
00000D009100
ENDCHAR
STARTCHAR uni0915094D0937094D
ENCODING -1
SWIDTH 429 0
DWIDTH 8 0
BBX 9 11 1 0
BITMAP
03BCC40000
0B201C0000
0D000B0000
09402B0000
2BECDCCC90
A400000000
C100000000
C1000D0000
A4003E0000
2ACC9D0000
00000D0000
ENDCHAR
STARTCHAR uni0915094D0937094D092E
ENCODING -1
SWIDTH 933 0
DWIDTH 17 0
BBX 16 11 1 0
BITMAP
03BCC407EDCCCECB
0B201C0094000B20
0D000B0094000B20
09402B0094000B20
2BECDCCCE4000B20
A40000009DCCCE20
C100000094000B20
C1000D0094000B20
A4003E0010000B20
2ACC9D0000000B20
00000D0000000820
ENDCHAR
STARTCHAR uni0915094D0937094D092E094D
ENCODING -1
SWIDTH 717 0
DWIDTH 13 0
BBX 14 11 1 0
BITMAP
03BCC407EDCCCA
0B201C00940000
0D000B00940000
09402B00940000
2BECDCCCE40000
A40000009DCCCA
C1000000940000
C1000D00940000
A4003E00100000
2ACC9D00000000
00000D00000000
ENDCHAR
STARTCHAR uni0915094D0937094D092E094D092F
ENCODING -1
SWIDTH 1283 0
DWIDTH 23 0
BBX 23 11 1 0
BITMAP
03BCC407EDCCCCCFCCCDDC30
0B201C009400000580067000
0D000B0094000003A0067000
09402B009400000680067000
2BECDCCCE4000BCA10067000
A40000009DCCCE0000067000
C100000094000C1000077000
C1000D0073000880002D7000
A4003E000000008CCCB87000
2ACB7D000000000000067000
00000D000000000000055000
ENDCHAR
STARTCHAR uni0915094D0937094D092F
ENCODING -1
SWIDTH 989 0
DWIDTH 18 0
BBX 17 11 1 0
BITMAP
03BCC407CDECCCECB0
0B201C00009300B200
0D000B00007600B200
09402A0000A400B200
2BECDCCCDC8000B200
A4000002B00000B200
C1000001C00000C200
C1000D00C40004F200
A4003E0029CCC9B200
2ACB7D00000000B200
00000D000000009200
ENDCHAR
STARTCHAR uni0915094D0937094D0935
ENCODING -1
SWIDTH 936 0
DWIDTH 17 0
BBX 17 11 1 0
BITMAP
03BCC407CCCCCEDC10
0B201C0000000A3000
0D000B0008CB0A3000
09402B0059000A3000
2BECDCCCE3000A3000
A4000000B2000A3000
C1000000B2000A3000
C1000D00A3000A3000
A4003E0069002E3000
2ACCAE0008CCAB3000
00000D000000082000
ENDCHAR
STARTCHAR uni091C094D091E
ENCODING -1
SWIDTH 629 0
DWIDTH 11 0
BBX 13 12 -1 -1
BITMAP
2CCCCCCCCDEC60
00000000049000
00000000049000
002BCCCCCD9000
00960000049000
00950000049000
002BCCC6049000
0000000C249000
00A20009449000
00B6000C249000
00B9CCC6049000
00A20000012000
ENDCHAR
STARTCHAR uni091C094D091E094D
ENCODING -1
SWIDTH 398 0
DWIDTH 7 0
BBX 10 12 -1 -1
BITMAP
2CCCCCCCCB
0000000000
0000000000
002BCCCCCB
0096000000
0095000000
002BCCC600
0000000C20
00A2000940
00B6000C20
00B9CCC600
00A2000000
ENDCHAR
STARTCHAR uni091C094D091E094D092F
ENCODING -1
SWIDTH 975 0
DWIDTH 18 0
BBX 19 12 -1 -1
BITMAP
2CCCCCCCCCCEECCCFC90
000000000000C100D000
000000000000A200D000
002BCCCCCB21D100D000
0096000009DC6000D000
0095000007600000D000
002BCCC606700000D000
0000000C23D20008D000
00A20009404BCCC7D000
00B6000C20000000D000
00B9CCC600000000D000
00A20000000000002000
ENDCHAR
STARTCHAR uni0915094D0928
ENCODING -1
SWIDTH 1003 0
DWIDTH 18 0
BBX 20 12 -1 -1
BITMAP
2CCCCCCFCCCCCCCCDDC3
0000000D000000007600
0019C80D7BC910007600
00A6000D600690007600
00D0000D0003ECCCE600
00D0000D000950007600
00D0000D000850007600
00A6004E000010007600
001ACB8D000000007600
0000000D000000007600
0000000D000000007600
00000003000000001100
ENDCHAR
STARTCHAR uni0916094D0928
ENCODING -1
SWIDTH 958 0
DWIDTH 17 0
BBX 19 12 -1 -1
BITMAP
2CCCDECCCCCCCCCDEC50
00004900000000049000
00004900000000049000
00004905BC9100049000
0000871C104900049000
05DC914A003ECCCD9000
01D2001D106800049000
005A0005BCD800049000
000A5000001700049000
0001D100000000049000
00006900000000049000
00000300000000012000
ENDCHAR
STARTCHAR uni0917094D0928
ENCODING -1
SWIDTH 736 0
DWIDTH 13 0
BBX 15 12 -1 -1
BITMAP
2CCEDCCCCCCDEC50
0009400000049000
0009400000049000
0009400000049000
0009401ACCCD9000
001D206800049000
07C5005800049000
0000001300049000
0000000000049000
0000000000049000
0000000000049000
0000000000012000
ENDCHAR
STARTCHAR uni0918094D0928
ENCODING -1
SWIDTH 814 0
DWIDTH 15 0
BBX 16 12 -1 -1
BITMAP
2CCFCCCCCCCCCFCA
0086000000000D00
00A3000000000D00
0056000000000D00
003DDB005CCCCF00
00970000D1000D00
00A30000D0000D00
00770005F0000D00
0008CCCAA2000D00
0000000000000D00
0000000000000D00
0000000000000300
ENDCHAR
STARTCHAR uni091A094D0928
ENCODING -1
SWIDTH 829 0
DWIDTH 15 0
BBX 17 12 -1 -1
BITMAP
2CCCCCCCCCCCCEDC10
000000000000094000
000000000000094000
06CCDC900000094000
000B30002CCCCE4000
001C0000A400094000
001C0000B200094000
000C3002E400094000
0002ACCB8600094000
000000000000094000
000000000000094000
000000000000021000
ENDCHAR
STARTCHAR uni091B094D0928
ENCODING -1
SWIDTH 977 0
DWIDTH 18 0
BBX 19 12 -1 -1
BITMAP
2CCFCCCCCCCCCCCCFC90
0077000000000000D000
0094000BC5000000D000
009400001D000000D000
004800000B27CCCCE000
002DD7000B3D0000D000
009700000B3C0000D000
009400000B260000D000
007700002C000000D000
0019CCCCB3000000D000
0000000000000000D000
00000000000000003000
ENDCHAR
STARTCHAR uni091C094D0928
ENCODING -1
SWIDTH 831 0
DWIDTH 15 0
BBX 17 12 -1 -1
BITMAP
2CCCCCCCCCCCCEDC20
000000000000084000
000000000000084000
000000000000084000
008CDCCCDDCCCE4000
00003A00A400084000
00000D00A300084000
00000D001100084000
00003C000000084000
05CCB3000000084000
000000000000084000
000000000000021000
ENDCHAR
STARTCHAR uni091D094D0928
ENCODING -1
SWIDTH 935 0
DWIDTH 17 0
BBX 18 12 -1 -1
BITMAP
2CCCCCEDCCCCCCCEDB
000000850000000A30
001ACCD40000000A30
008600000000000A30
00A30000002CCCCE30
0086000000A2000A30
001ACCDDCCE0000A30
0000002C00B2000A30
00B2002C0010000A30
00C9BCB40000000A30
00C100000000000A20
00B100000000000000
ENDCHAR
STARTCHAR uni091F094D0928
ENCODING -1
SWIDTH 494 0
DWIDTH 9 0
BBX 11 15 -1 -4
BITMAP
2CCCCCCFCC10
0000000D0000
0000000D0000
0019CCCC0000
008700000000
00C100005000
00C10000D000
00870004A000
0019CCCF1000
0000000D0000
0000000D0000
003CCCCF0000
00A4000D0000
0094000D0000
0000000C0000
ENDCHAR
STARTCHAR uni0920094D0928
ENCODING -1
SWIDTH 516 0
DWIDTH 9 0
BBX 11 15 -1 -4
BITMAP
2CCCCCCECC60
0000000B2000
0000001D0000
0019CCDB1000
00970005B000
00C10000D000
00C10000D000
00970005A000
0019CCCF1000
0000000D0000
0000000D0000
003CCCCF0000
00A4000D0000
0094000D0000
0000000C0000
ENDCHAR
STARTCHAR uni0921094D0928
ENCODING -1
SWIDTH 481 0
DWIDTH 9 0
BBX 10 15 -1 -4
BITMAP
2CCCCCCFCA
0000000D00
002ACCCD00
0096000000
0096000000
002ACCC900
0000000960
00B2000580
0085000960
001ACCCF00
0000000D00
003BCCCF00
00A4000D00
0085000D00
0011000C00
ENDCHAR
STARTCHAR uni0924094D0928
ENCODING -1
SWIDTH 756 0
DWIDTH 14 0
BBX 15 11 -1 0
BITMAP
2CCCCCCCCCCCFC90
000000000000D000
000000000000D000
001ACCC80000D000
0096000CCCCCF000
00C1001D0000D000
00C1000D0000D000
00C100040000D000
00C100000000D000
008700000000D000
0019C2000000B000
ENDCHAR
STARTCHAR uni0925094D0928
ENCODING -1
SWIDTH 855 0
DWIDTH 15 0
BBX 15 12 1 -1
BITMAP
0ACC40BCCCCCEC70
5801C0000002B000
5500D0000002B000
0003B0000002B000
CCCB3009CCCDB000
D000003B0002B000
C10000480002B000
780001AB0002B000
08CCCC670002B000
000000000002B000
000000000002B000
0000000000003000
ENDCHAR
STARTCHAR uni0926094D0928
ENCODING -1
SWIDTH 955 0
DWIDTH 17 0
BBX 19 15 -1 -4
BITMAP
2CCCCCCEDCCCCCCDEC40
0000000A300000058000
0000000A300000058000
0019CCCD200000058000
00880000001BCCCD8000
00B20000007700058000
00C10005607600058000
00B20006702400058000
0087000B700000058000
0019CCCA700000058000
00000005600000058000
00000000100000000000
00000002B00000000000
00000000770000000000
000000000A1000000000
ENDCHAR
STARTCHAR uni0927094D0928
ENCODING -1
SWIDTH 814 0
DWIDTH 15 0
BBX 16 12 -1 -1
BITMAP
2CCFC505CCCCCFCA
0086000000000D00
00A3000000000D00
0056000000000D00
003DDB005CCCCF00
00970000D1000D00
00A30000D0000D00
00770006F0000D00
0008CCC972000D00
0000000000000D00
0000000000000D00
0000000000000300
ENDCHAR
STARTCHAR uni0928094D0928
ENCODING -1
SWIDTH 738 0
DWIDTH 13 0
BBX 15 12 -1 -1
BITMAP
2CCCCCCCCCCDEC60
0000000000049000
0000000000049000
0000000000049000
008CCCCDCCCD9000
02C0005900049000
01B0005800049000
0060001500049000
0000000000049000
0000000000049000
0000000000049000
0000000000012000
ENDCHAR
STARTCHAR uni092A094D0928
ENCODING -1
SWIDTH 782 0
DWIDTH 14 0
BBX 16 12 -1 -1
BITMAP
2CEDCCCCCCCCDDC3
0085000000007700
0085000000007700
0085000000007700
00850001BCCCE700
0076000860007700
003A002D40007700
0004999860007700
0000000000007700
0000000000007700
0000000000007700
0000000000001100
ENDCHAR
STARTCHAR uni092B094D0928
ENCODING -1
SWIDTH 1013 0
DWIDTH 18 0
BBX 20 12 -1 -1
BITMAP
2CEDCCCEDCCCCCCCDEC5
0085000A300000004900
0085000A8CCA10004900
0085000A900590004900
0085000A4001ECCCD900
0086000A300680004900
004B002E300670004900
0007CCAB300260004900
0000000A300000004900
0000000A300000004900
0000000A300000004900
00000002000000001200
ENDCHAR
STARTCHAR uni092C094D0928
ENCODING -1
SWIDTH 810 0
DWIDTH 15 0
BBX 16 12 -1 -1
BITMAP
2CCCCCCCCCCCCFC9
0000000000000D00
0019CB0000000D00
008C000000000D00
00C680007CCCCE00
00D07701D0000D00
00D00951C0000D00
00C100A490000D00
0087005B00000D00
0019CCB200000D00
0000000000000D00
0000000000000300
ENDCHAR
STARTCHAR uni092D094D0928
ENCODING -1
SWIDTH 757 0
DWIDTH 14 0
BBX 15 12 -1 -1
BITMAP
2C8006CCCCCCFCA0
00B300000000D000
008400000000D000
008400000000D000
00840005CCCCF000
008DCCCD1000D000
0084001C0000D000
008400080000D000
000000000000D000
000000000000D000
000000000000D000
0000000000003000
ENDCHAR
STARTCHAR uni092E094D0928
ENCODING -1
SWIDTH 757 0
DWIDTH 14 0
BBX 15 12 -1 -1
BITMAP
2CEDCCCCCCCCFCA0
009400000000D000
009400000000D000
009400000000D000
00940005CCCCF000
009DCCCD1000D000
0094001C0000D000
009400080000D000
000000000000D000
000000000000D000
000000000000D000
0000000000003000
ENDCHAR
STARTCHAR uni092F094D0928
ENCODING -1
SWIDTH 829 0
DWIDTH 15 0
BBX 17 12 -1 -1
BITMAP
2CCCFCCCCCCCCEDC10
000048000000094000
00002B000000094000
000059000000094000
00ACA2002BCCCE4000
00C10000A400094000
00B30000B200094000
006A0005F400094000
0006CCC95500094000
000000000000094000
000000000000094000
000000000000021000
ENDCHAR
STARTCHAR uni0935094D0928
ENCODING -1
SWIDTH 798 0
DWIDTH 14 0
BBX 16 12 -1 -1
BITMAP
2CCCCCCCCCCCCEC6
0000000000002B00
0019CB0000002B00
0087000000002B00
00C100009CCCDB00
00D00004A0002B00
00D0000580002B00
00C1000280002B00
0087003B00002B00
0019CCA200002B00
0000000000002B00
0000000000000200
ENDCHAR
STARTCHAR uni0936094D0928
ENCODING -1
SWIDTH 845 0
DWIDTH 15 0
BBX 16 12 0 -1
BITMAP
02BCC506CCCCDEC5
09501D0000004900
0A300C0000004900
01000D0000004900
00003C01BCCCD900
2DCCB30780004900
0B30000670004900
03C0000130004900
0087000000004900
001C200000004900
0004B00000004900
0000300000001200
ENDCHAR
STARTCHAR uni0938094D0928
ENCODING -1
SWIDTH 831 0
DWIDTH 15 0
BBX 17 12 -1 -1
BITMAP
2CCCEDCCCCCCCEDC20
0000A4000000085000
0000A4000000085000
0000A3000000085000
0001C1002BCCCE5000
05DDDCCCE400085000
01D10000A300085000
006800003300085000
000C20000000085000
0005A0000000085000
0000C3000000085000
000012000000021000
ENDCHAR
STARTCHAR uni0939094D0928
ENCODING -1
SWIDTH 500 0
DWIDTH 9 0
BBX 11 13 -1 -2
BITMAP
2CCCCCCDEC20
000000067000
000000067000
001ACCCD5000
007700000000
007700000000
001CDCCDD100
0069004CD100
00A405A1C100
00A30A30C100
009406705000
006900000000
0007CCCC1000
ENDCHAR
STARTCHAR uni0915094D0930
ENCODING -1
SWIDTH 725 0
DWIDTH 13 0
BBX 15 12 -1 -1
BITMAP
2CCCCCCFCCCCCC30
0000000D00000000
0019C80D7BCA1000
00A6000D5005A000
00D0000D0000D000
00D0000D0000D000
00D0000D0000D000
00A6004E0005A000
002ACDBD08CA2000
00003C1D00000000
0002C20B00000000
0009300000000000
ENDCHAR
STARTCHAR uni0916094D0930
ENCODING -1
SWIDTH 698 0
DWIDTH 13 0
BBX 14 12 -1 -1
BITMAP
2CCCDECCCCCFC9
00004900000D00
00004900000D00
00004904B80D00
0000871D100D00
05DC903A000D00
01C2003A000D00
004B001D205E00
00096005CDBD00
0001D1002A1D00
00005A02B10D00
00000109200100
ENDCHAR
STARTCHAR uni0917094D0930
ENCODING -1
SWIDTH 494 0
DWIDTH 9 0
BBX 11 12 -1 -1
BITMAP
2CCEDCCEDC10
000940094000
000940094000
000940094000
000940094000
001D200B4000
07C5008E4000
000005994000
00003B094000
0001C1094000
000B30094000
001200021000
ENDCHAR
STARTCHAR uni0918094D0930
ENCODING -1
SWIDTH 559 0
DWIDTH 10 0
BBX 12 12 -1 -1
BITMAP
2CCFCCCCDDC3
008500007600
00A200007600
008600007600
001DDB007600
007700007600
00A300007600
00A300008600
00780001D600
0008CCDC9600
000018707600
000193000000
ENDCHAR
STARTCHAR uni0919094D0930
ENCODING -1
SWIDTH 505 0
DWIDTH 9 0
BBX 11 14 -1 -3
BITMAP
2CCCCCCFCC30
0000000D0000
0000000D0000
002ACCCB0000
009500000000
009500005500
002ACCC90000
0000000A5000
000000077000
00A3000A5000
003BDDC90000
0001D7A00000
000960B50000
004B002D0000
ENDCHAR
STARTCHAR uni091A094D0930
ENCODING -1
SWIDTH 563 0
DWIDTH 10 0
BBX 12 12 -1 -1
BITMAP
2CCCCCCCDEC4
000000006800
000000006800
06CCDC906800
000B30006800
001C00006800
001C00006800
000D3001B800
0003BCCEA800
000004B36800
00007A104600
000040000000
ENDCHAR
STARTCHAR uni091B094D0930
ENCODING -1
SWIDTH 581 0
DWIDTH 10 0
BBX 12 13 -1 -2
BITMAP
2CCFCCCCDEC8
007700003A00
009400003A00
0094000BD800
007800001D00
001DD7000B20
007700000B20
009400000B20
007700002C00
0019CDDCB300
00002C6A0000
0000C40A5000
00047001A000
ENDCHAR
STARTCHAR uni091C094D0930
ENCODING -1
SWIDTH 547 0
DWIDTH 10 0
BBX 12 12 -1 -1
BITMAP
2CCCCCCCEDC1
00000000A300
00000000A300
008CDCCCE300
00004A00A300
00000D00A300
00000D00A300
00000D00A300
00004B07F300
05CCB29BB300
00000A709200
000013000000
ENDCHAR
STARTCHAR uni091D094D0930
ENCODING -1
SWIDTH 684 0
DWIDTH 12 0
BBX 14 12 -1 -1
BITMAP
2CCCCCEDCCDEC6
00000085003A00
001ACCD4003A00
00860000003A00
00A30000003A00
00860000003A00
001ACCDDCCDA00
0000002C003A00
00B2002C008A00
00C9BCB4086A00
00C10000953A00
00B10008801300
ENDCHAR
STARTCHAR uni091E094D0930
ENCODING -1
SWIDTH 598 0
DWIDTH 11 0
BBX 12 12 -1 -1
BITMAP
2CCCCCCCCECB
000000000B20
000000000B20
00ACB4000B20
00001C100B20
000009300B20
000009DCCF20
000009300C20
00001C11AE20
02CCC51C5B20
000003C30B20
000003100000
ENDCHAR
STARTCHAR uni091F094D0930
ENCODING -1
SWIDTH 485 0
DWIDTH 9 0
BBX 10 13 -1 -2
BITMAP
2CCCCCCFCB
0000001C00
0000001C00
0019CCCA00
0087000000
00C1000000
00C1000000
00C10000C0
00870005A0
0019DDDA10
0000B6D100
0005B06A00
000D200B40
ENDCHAR
STARTCHAR uni0920094D0930
ENCODING -1
SWIDTH 512 0
DWIDTH 9 0
BBX 11 13 -1 -2
BITMAP
2CCCCCCFCC50
0000000C1000
0000001D0000
0019CCDB1000
008700069000
00C10000D000
00C10000D000
00C10000D000
009700069000
0019CDD91000
0000B6D20000
0006A04B0000
000A10083000
ENDCHAR
STARTCHAR uni0921094D0930
ENCODING -1
SWIDTH 475 0
DWIDTH 9 0
BBX 10 14 -1 -3
BITMAP
2CCCCCCFC9
0000000D00
0000000D00
002ACCCB00
0095000000
0095000000
002ACCC900
0000000A50
0000000770
00A3000A50
003BDDD900
0001C5C000
0008709700
002C001D10
ENDCHAR
STARTCHAR uni0922094D0930
ENCODING -1
SWIDTH 485 0
DWIDTH 9 0
BBX 10 13 -1 -2
BITMAP
2CCCCCCFCB
0000000D00
0000000D00
0019CCCC00
0087000000
00B2000000
00C104CC50
00B20A21C0
00870102B0
0019CDDB30
0000A7D200
0006A05B00
000A100840
ENDCHAR
STARTCHAR uni0923094D0930
ENCODING -1
SWIDTH 681 0
DWIDTH 12 0
BBX 14 12 -1 -1
BITMAP
2CEDCCDECCDEC5
0085003A004900
0085003A004900
0085003A004900
0085003A004900
0085003A004900
005A008701C900
0008CC900A8900
00000000964900
00000006804900
0000004A004900
00000031001200
ENDCHAR
STARTCHAR uni0924094D0930
ENCODING -1
SWIDTH 493 0
DWIDTH 9 0
BBX 11 12 -1 -1
BITMAP
2CCCCCCEDC10
0000000A3000
0000000A3000
0019CCAB3000
0096002E3000
00C1000A3000
00B0000A3000
0000007F3000
00001A9A3000
0002C60A3000
003C400A3000
002100021000
ENDCHAR
STARTCHAR uni0925094D0930
ENCODING -1
SWIDTH 593 0
DWIDTH 11 0
BBX 10 12 1 -1
BITMAP
1ACC500CCA
5801C00D00
4400D00D00
0003C00D00
CCCB300D00
D000000D00
D100000E00
8800006F00
08CCCE9D00
0001B80D00
002C600C00
00A3000000
ENDCHAR
STARTCHAR uni0926094D0930
ENCODING -1
SWIDTH 489 0
DWIDTH 9 0
BBX 10 12 -1 -1
BITMAP
2CCCCCCEDB
0000000A30
0000000A30
0019CCCD20
0088000000
00B2000000
00C1000560
00B2000670
0087000B70
0019CCEA70
00001B4560
0000940000
ENDCHAR
STARTCHAR uni0927094D0930
ENCODING -1
SWIDTH 560 0
DWIDTH 10 0
BBX 12 12 -1 -1
BITMAP
2CCFC12CDDC3
008500007600
00A300007600
008600007600
001DDB007600
007800007600
00A300007600
00A300007600
00690001D600
0008CCDDA600
000006A17600
000076001100
ENDCHAR
STARTCHAR uni0928094D0930
ENCODING -1
SWIDTH 473 0
DWIDTH 9 0
BBX 10 12 -1 -1
BITMAP
2CCCCCCFC8
0000000D00
0000000D00
0000000D00
008CCCCD00
02C0002D00
02B001CD00
00600A5D00
0000880D00
0006A00D00
004C100D00
0021000300
ENDCHAR
STARTCHAR uni092A094D0930
ENCODING -1
SWIDTH 503 0
DWIDTH 9 0
BBX 11 12 -1 -1
BITMAP
2CEDCCCDDC30
008500076000
008500076000
008500076000
008500076000
008600076000
005A001C6000
0008CCEA6000
000009476000
0000A4076000
000B50065000
001300000000
ENDCHAR
STARTCHAR uni092B094D0930
ENCODING -1
SWIDTH 741 0
DWIDTH 13 0
BBX 15 12 -1 -1
BITMAP
2CEDCCCEDCCCCC60
0085000A40000000
0085000A8CCB3000
0085000A9002D100
0085000A4000A300
0086000A4000A300
004B002E4000A300
0007CCDB4002D100
00001B2A44CB3000
0001C30A40000000
002C300930000000
0022000000000000
ENDCHAR
STARTCHAR uni092C094D0930
ENCODING -1
SWIDTH 491 0
DWIDTH 9 0
BBX 11 12 -1 -1
BITMAP
2CCCCCCEDC10
0000000A3000
0019CB0A3000
008C000A3000
00C6800A3000
00D0770A3000
00D0095A3000
00C100AD3000
0087004F3000
0019CDBB3000
0000580A3000
000660020000
ENDCHAR
STARTCHAR uni092D094D0930
ENCODING -1
SWIDTH 491 0
DWIDTH 9 0
BBX 11 12 -1 -1
BITMAP
2C8005CEDC10
00B3000A3000
0084000A3000
0084000A3000
0084000A3000
008DCCCE3000
0084003E3000
008402CC3000
00001C2A3000
0001B30A3000
000A500A3000
001300020000
ENDCHAR
STARTCHAR uni092E094D0930
ENCODING -1
SWIDTH 490 0
DWIDTH 9 0
BBX 10 12 -1 -1
BITMAP
2CEDCCCECB
0094000B20
0094000B20
0094000B20
0094000B20
009DCCCE20
0094004F20
008403CC20
00002C2B20
0001C30B20
001C400B20
0013000200
ENDCHAR
STARTCHAR uni092F094D0930
ENCODING -1
SWIDTH 564 0
DWIDTH 10 0
BBX 12 12 -1 -1
BITMAP
2CCCFCCCDEC4
000048006800
00002B006800
000059006800
00ACA2006800
00C100006800
00B200006800
00790002C800
0008CCDE9800
000004C26800
00005C205700
0002A1000000
ENDCHAR
STARTCHAR uni0935094D0930
ENCODING -1
SWIDTH 484 0
DWIDTH 9 0
BBX 10 12 -1 -1
BITMAP
2CCCCCCFCB
0000000C10
0019CA0C10
0096000C10
00C1000C10
00D0000C10
00D1000C10
0096003F10
001ACDCD10
00003C2C10
0002D30C10
0009400000
ENDCHAR
STARTCHAR uni0936094D0930
ENCODING -1
SWIDTH 558 0
DWIDTH 10 0
BBX 11 12 0 -1
BITMAP
03CCC406DC20
0A401D076000
0C100D076000
09602C076000
01C7C4076000
008DC2076000
3C704C7C6000
220007DA6000
0002B9176000
003C40076000
000100076000
000000021000
ENDCHAR
STARTCHAR uni0938094D0930
ENCODING -1
SWIDTH 604 0
DWIDTH 11 0
BBX 13 12 -1 -1
BITMAP
2CCCEDCCCEDC10
0000A4000A3000
0000A4000A3000
0000A3000A3000
0001C1000A3000
05DDDCCCDF3000
01D10001CB3000
0068000B4A3000
000C20870A3000
0005A0300A3000
0000C3000A3000
00001200021000
ENDCHAR
STARTCHAR uni0939094D0930
ENCODING -1
SWIDTH 505 0
DWIDTH 9 0
BBX 11 13 -1 -2
BITMAP
2CCCCCCEDC30
000000094000
000000094000
002BCCCD3000
00A500000000
00A400000000
002EDCCDB000
0087005AC000
00C103C1C000
00D01C30C000
00C112005000
008700000000
0018CCCB0000
ENDCHAR
STARTCHAR uni0915093C094D0930
ENCODING -1
SWIDTH 725 0
DWIDTH 13 0
BBX 15 13 -1 -2
BITMAP
2CCCCCCFCCCCCC30
0000000D00000000
0019C80D7BCA1000
00A6000D5005A000
00D0000D0000D000
00D0000D0000D000
00D0000D0000D000
00A6004E0005A000
002ACDCD08CA2000
00002C1D00000000
0002C20C00000000
000A400000000000
0000280000000000
ENDCHAR
STARTCHAR uni0916093C094D0930
ENCODING -1
SWIDTH 698 0
DWIDTH 13 0
BBX 14 13 -1 -2
BITMAP
2CCCDECCCCCFC9
00004900000D00
00004900000D00
00004904B80D00
0000871D100D00
05DC903A000D00
01D2003A000D00
005A001D205E00
000A5005CDBD00
0001D1002B1D00
00006901C20D00
0000030A300300
00000000280000
ENDCHAR
STARTCHAR uni0917093C094D0930
ENCODING -1
SWIDTH 494 0
DWIDTH 9 0
BBX 11 13 -1 -2
BITMAP
2CCEDCCEDC10
000940094000
000940094000
000940094000
000940094000
001D200B4000
07C5008E4000
000005994000
00003B094000
0001C1094000
000B30094000
001200021000
000028000000
ENDCHAR
STARTCHAR uni091C093C094D0930
ENCODING -1
SWIDTH 547 0
DWIDTH 10 0
BBX 12 12 -1 -1
BITMAP
2CCCCCCCEDC1
00000000A300
00000000A300
008CDCCCE300
00004A00A300
00000D00A300
00000D00A300
00000D00B300
00004B08F300
05CCB28AA300
00000890A300
065027002000
ENDCHAR
STARTCHAR uni0921093C094D0930
ENCODING -1
SWIDTH 475 0
DWIDTH 9 0
BBX 10 14 -1 -3
BITMAP
2CCCCCCFC9
0000000D00
0000000D00
002ACCCB00
0095000000
0095000000
002ACCC900
0000000A50
0000000770
00A3000A50
003BDDD900
0911C5C000
0008709700
002C001D10
ENDCHAR
STARTCHAR uni0922093C094D0930
ENCODING -1
SWIDTH 485 0
DWIDTH 9 0
BBX 10 13 -1 -2
BITMAP
2CCCCCCFCB
0000000D00
0000000D00
0019CCCC00
0087000000
00B2000000
00C104CC50
00B20A21C0
00870102B0
0019CDDB30
0000AFE200
0A05E3AB00
000A200940
ENDCHAR
STARTCHAR uni0928093C094D0930
ENCODING -1
SWIDTH 473 0
DWIDTH 9 0
BBX 10 13 -1 -2
BITMAP
2CCCCCCFC8
0000000D00
0000000D00
0000000D00
008CCCCD00
02C0002D00
02B001CD00
00600B5D00
0000870D00
0006A00D00
004C100D00
0021000300
0000A00000
ENDCHAR
STARTCHAR uni092B093C094D0930
ENCODING -1
SWIDTH 741 0
DWIDTH 13 0
BBX 15 13 -1 -2
BITMAP
2CEDCCCEDCCCCC60
0085000A40000000
0085000A8CCB3000
0085000A9002D100
0085000A4000A300
0086000A4000A300
004B002E4000A300
0007CCDB4002D100
00001B3A44CB3000
0001B40A40000000
000B500A30000000
0035000100000000
0000370000000000
ENDCHAR
STARTCHAR uni092F093C094D0930
ENCODING -1
SWIDTH 564 0
DWIDTH 10 0
BBX 12 13 -1 -2
BITMAP
2CCCFCCCDEC4
000048006800
00002B006800
000059006800
00ACA2006800
00C100006800
00B200006800
00790002C800
0008CCDE9800
000004D36800
00004D306800
0002D2001100
000001A00000
ENDCHAR
STARTCHAR uni0915094D0930094D
ENCODING -1
SWIDTH 518 0
DWIDTH 9 0
BBX 13 12 -1 -1
BITMAP
2CCCCCCFCCCC70
0000000D000000
0019C80D7BCA10
00A6000D500560
00D0000D000000
00D0000D000000
00D0000D000000
00A6004E000000
001ACDCD000000
00003B1D000000
0002C20B000000
00093000000000
ENDCHAR
STARTCHAR uni0916094D0930094D
ENCODING -1
SWIDTH 469 0
DWIDTH 8 0
BBX 12 12 -1 -1
BITMAP
2CCCDECCCCC4
000049000000
000049000000
00004904B800
0000871D1000
05DC913A0000
01C2003A0000
004B001D2077
00096005CDB0
0001D1002A10
00005A02B100
000001092000
ENDCHAR
STARTCHAR uni0917094D0930094D
ENCODING -1
SWIDTH 264 0
DWIDTH 5 0
BBX 8 12 -1 -1
BITMAP
2CCEDB00
00094000
00094000
00094000
00094000
001D2008
07C50087
000005A0
00003C10
0002C200
000C4000
00130000
ENDCHAR
STARTCHAR uni0918094D0930094D
ENCODING -1
SWIDTH 319 0
DWIDTH 6 0
BBX 9 12 -1 -1
BITMAP
2CCFCCCC70
0085000000
00A2000000
0086000000
001DDB0000
0077000000
00A3000000
00A3000000
00780003A0
0008CCDA10
0000175000
0001920000
ENDCHAR
STARTCHAR uni091A094D0930094D
ENCODING -1
SWIDTH 331 0
DWIDTH 6 0
BBX 10 12 -1 -1
BITMAP
2CCCCCCC40
0000000000
0000000000
06CCDC9000
000B300000
001C000000
001C000000
000D3001A1
0003BCDE40
000004C300
00007B1000
0000400000
ENDCHAR
STARTCHAR uni091C094D0930094D
ENCODING -1
SWIDTH 312 0
DWIDTH 6 0
BBX 9 12 -1 -1
BITMAP
2CCCCCCC50
0000000000
0000000000
008CDCCC50
00004A0000
00000D0000
00000D0000
00000D0190
00004B1B40
05CCB3B500
00001B5000
0000130000
ENDCHAR
STARTCHAR uni091D094D0930094D
ENCODING -1
SWIDTH 441 0
DWIDTH 8 0
BBX 12 12 -1 -1
BITMAP
2CCCCCEDCC90
000000850000
001ACCD40000
008600000000
00A300000000
008600000000
001ACCDDCCD2
0000002C0093
00B2002C01B1
00C9BCB40B40
00C10000A600
00B100088000
ENDCHAR
STARTCHAR uni091E094D0930094D
ENCODING -1
SWIDTH 374 0
DWIDTH 7 0
BBX 10 12 -1 -1
BITMAP
2CCCCCCCC5
0000000000
0000000000
00ACB40000
00001C1000
0000093000
000009DCCD
000009300B
00001C1066
02CCC50860
000001A500
0000012000
ENDCHAR
STARTCHAR uni091F094D0930094D
ENCODING -1
SWIDTH 485 0
DWIDTH 9 0
BBX 10 15 -1 -4
BITMAP
2CCCCCCFCB
0000001C00
0008CCCB00
0078000000
00B2000000
00C1000000
00C10000C0
00B20001C0
0078000780
0008DDD900
0001B3B400
000B401C30
0000084000
000001C100
0000005900
ENDCHAR
STARTCHAR uni0920094D0930094D
ENCODING -1
SWIDTH 512 0
DWIDTH 9 0
BBX 11 15 -1 -4
BITMAP
2CCCCCCFCC50
0000000D1000
0008CCDB0000
007800078000
00B10001C000
00C10000D000
00C10000D000
00B10001C000
007800078000
0019CDD91000
0000B4C30000
0009602C1000
000406322000
000002C10000
000000590000
ENDCHAR
STARTCHAR uni0921094D0930094D
ENCODING -1
SWIDTH 475 0
DWIDTH 9 0
BBX 10 17 -1 -6
BITMAP
2CCCCCCFC9
0000000D00
0000000D00
002ACCCB00
0095000000
0095000000
002ACCC900
0000000A50
0000000770
00A3000A50
003BDDD900
0001C6C000
0009608800
0029010A10
00000A4000
000001C100
0000005600
ENDCHAR
STARTCHAR uni0922094D0930094D
ENCODING -1
SWIDTH 485 0
DWIDTH 9 0
BBX 10 16 -1 -5
BITMAP
2CCCCCCFCB
0000000D00
0000000D00
0019CCCC00
0087000000
00B2000000
00C104CC50
00B20A21C0
00870102B0
0019CDDB30
0000A7C300
0006A03C00
0009120640
0000068000
000000B300
0000002800
ENDCHAR
STARTCHAR uni0923094D0930094D
ENCODING -1
SWIDTH 457 0
DWIDTH 8 0
BBX 12 12 -1 -1
BITMAP
2CEDCCDEC400
0085003A0000
0085003A0000
0085003A0000
0085003A0000
0085003A0012
005A008701B2
0008CC900B40
000000009600
000000079000
0000005B0000
000000310000
ENDCHAR
STARTCHAR uni0924094D0930094D
ENCODING -1
SWIDTH 268 0
DWIDTH 5 0
BBX 9 12 -1 -1
BITMAP
2CCCCCCC60
0000000000
0000000000
0019CCA200
0096002A00
00C1000A00
00B0000A00
0000007A00
00001A9000
0002C60000
003C400000
0021000000
ENDCHAR
STARTCHAR uni0925094D0930094D
ENCODING -1
SWIDTH 358 0
DWIDTH 6 0
BBX 8 12 1 -1
BITMAP
1ACC5000
5801C000
4400D000
0003C000
CCCB3000
D0000000
D1000000
88000075
08CCCE90
0001B700
002C5000
00A40000
ENDCHAR
STARTCHAR uni0926094D0930094D
ENCODING -1
SWIDTH 489 0
DWIDTH 9 0
BBX 10 15 -1 -4
BITMAP
2CCCCCCEDB
0000000A30
0000000A30
0019CCCD20
0088000000
00B2000000
00C1000560
00B2000670
0087000B70
0019CCEA70
00002B3560
0000625000
0000007700
0000000B30
0000000120
ENDCHAR
STARTCHAR uni0927094D0930094D
ENCODING -1
SWIDTH 322 0
DWIDTH 6 0
BBX 9 12 -1 -1
BITMAP
2CCFC13C60
0085000000
00A2000000
0086000000
001DDB0000
0077000000
00A3000000
00A3000000
00780002A0
0008CCDD30
0000069100
0000760000
ENDCHAR
STARTCHAR uni0928094D0930094D
ENCODING -1
SWIDTH 247 0
DWIDTH 4 0
BBX 8 12 -1 -1
BITMAP
2CCCCCC8
00000000
00000000
00000000
008CCCCA
02C0000B
02B00096
00600880
00006A00
0005B000
003C1000
00210000
ENDCHAR
STARTCHAR uni092A094D0930094D
ENCODING -1
SWIDTH 270 0
DWIDTH 5 0
BBX 9 12 -1 -1
BITMAP
2CEDCCC100
0085000000
0085000000
0085000000
0085000000
0086000000
005A002B10
0007CCE400
0000094000
0000A50000
000A500000
0013000000
ENDCHAR
STARTCHAR uni092B094D0930094D
ENCODING -1
SWIDTH 523 0
DWIDTH 9 0
BBX 13 12 -1 -1
BITMAP
5CECCCCFCCCC70
00B2000D000000
00B2000D7CCA10
00B2000D600580
00B2000D100000
00B2000D000000
0088004F000000
0019CDBD000000
00003B1D000000
0003B10D000000
003C100C000000
00210000000000
ENDCHAR
STARTCHAR uni092C094D0930094D
ENCODING -1
SWIDTH 267 0
DWIDTH 5 0
BBX 9 12 -1 -1
BITMAP
2CCCCCCB00
0000000000
0019CB0000
008C000000
00C6800000
00D0760000
00D0095000
00C100AA20
0087004900
0019CDA000
0000570000
0005600000
ENDCHAR
STARTCHAR uni092D094D0930094D
ENCODING -1
SWIDTH 257 0
DWIDTH 5 0
BBX 8 12 -1 -1
BITMAP
2C8005CA
00B30000
00840000
00840000
00840000
008DCCCB
00840059
008403B1
00002C10
0001C300
000B4000
00130000
ENDCHAR
STARTCHAR uni092E094D0930094D
ENCODING -1
SWIDTH 261 0
DWIDTH 5 0
BBX 8 12 -1 -1
BITMAP
2CEDCCCA
00940000
00940000
00940000
00940000
009DCCCB
00940059
008403B1
00002C10
0001C300
000B4000
00130000
ENDCHAR
STARTCHAR uni092F094D0930094D
ENCODING -1
SWIDTH 323 0
DWIDTH 6 0
BBX 9 12 -1 -1
BITMAP
2CCCFCCB00
0000480000
00002B0000
0000590000
00ACA20000
00C1000000
00B2000000
00790002A0
0008CCDE40
000004D400
00005D2000
0002A10000
ENDCHAR
STARTCHAR uni0935094D0930094D
ENCODING -1
SWIDTH 255 0
DWIDTH 5 0
BBX 8 12 -1 -1
BITMAP
2CCCCC90
00000000
0019CA00
00960000
00C10000
00D00000
00D10000
00960048
001ACEE3
00003D30
0002D400
00094000
ENDCHAR
STARTCHAR uni0938094D0930094D
ENCODING -1
SWIDTH 347 0
DWIDTH 6 0
BBX 10 12 -1 -1
BITMAP
2CCCEDCC80
0000A40000
0000A40000
0000A30000
0001C10000
05DDDCCCD5
01D10002C1
0068001C30
000C20B500
0005A25000
0000C30000
0000120000
ENDCHAR
STARTCHAR uni0915093C094D0930094D
ENCODING -1
SWIDTH 518 0
DWIDTH 9 0
BBX 13 13 -1 -2
BITMAP
2CCCCCCFCCCC70
0000000D000000
0019C80D7BCA10
00A6000D500560
00D0000D000000
00D0000D000000
00D0000D000000
00A6004E000000
001ACDCD000000
00002C1D000000
0001C30D000000
000B5001000000
00002800000000
ENDCHAR
STARTCHAR uni0916093C094D0930094D
ENCODING -1
SWIDTH 466 0
DWIDTH 8 0
BBX 12 13 -1 -2
BITMAP
2CCCDECCCCC4
000049000000
000049000000
00004904B800
0000871D1000
05DC913A0000
01D1003A0000
005A001D2077
000A5005CDB0
0002D1001B10
00006901B300
0000040A4000
000000001A00
ENDCHAR
STARTCHAR uni0917093C094D0930094D
ENCODING -1
SWIDTH 264 0
DWIDTH 5 0
BBX 8 13 -1 -2
BITMAP
2CCEDB00
00094000
00094000
00094000
00094000
001D2008
07C50087
000005A0
00003C10
0001C200
000B4000
00130000
00001900
ENDCHAR
STARTCHAR uni091C093C094D0930094D
ENCODING -1
SWIDTH 320 0
DWIDTH 6 0
BBX 9 13 -1 -2
BITMAP
2CCCCCCC50
0000000000
0000000000
008CDCCC50
00004A0000
00000D0000
00000D0000
00000D0000
00004B02B0
05CCB22C20
000002C200
00002C3000
0640000000
ENDCHAR
STARTCHAR uni0928093C094D0930094D
ENCODING -1
SWIDTH 247 0
DWIDTH 4 0
BBX 8 13 -1 -2
BITMAP
2CCCCCC8
00000000
00000000
00000000
008CCCCA
02C0000B
02B00087
007006A0
00004B00
0003C100
001C3000
00430000
00008200
ENDCHAR
STARTCHAR uni092B093C094D0930094D
ENCODING -1
SWIDTH 523 0
DWIDTH 9 0
BBX 13 13 -1 -2
BITMAP
5CECCCCFCCCC70
00B2000D000000
00B2000D7CCA10
00B2000D700580
00B2000D100000
00B2000D000000
0088004F000000
0019CDCD000000
00002B1D000000
0001C20D000000
001C400D000000
00550005000000
00008200000000
ENDCHAR
STARTCHAR uni092F093C094D0930094D
ENCODING -1
SWIDTH 323 0
DWIDTH 6 0
BBX 9 13 -1 -2
BITMAP
2CCCFCCB00
0000480000
00002B0000
0000590000
00ACA20000
00C1000000
00B2000000
00790002A0
0008CCDF50
000004E400
00004D3000
0002C20000
000000A000
ENDCHAR
STARTCHAR uni0915094D0915
ENCODING -1
SWIDTH 1255 0
DWIDTH 23 0
BBX 24 12 -1 -1
BITMAP
2CCCCCCFCCCCCCCCDECCCCC9
0000000D0000000057000000
0019C80D7BCA6BC359BCC600
00A6000D6006D1005D101B30
00D0000D0005800058000670
00D0000D0005800057000670
00D0000D0005800067000670
00A6004E0002C100A7001B30
001ACB8D00005CCB871CC600
0000000D0000000057000000
0000000D0000000057000000
000000030000000012000000
ENDCHAR
STARTCHAR uni0915094D0916
ENCODING -1
SWIDTH 1256 0
DWIDTH 23 0
BBX 24 12 -1 -1
BITMAP
2CCCCCCFCCCCCCDECCCCCFC9
0000000D0000003A00000D00
0019C80D7BC6003A00000D00
00A6000D600B303A04B90D00
00D0000D000570781D200D00
00D0000D0005ECA12B000D00
00D0000D0001C2001B000D00
00A6004E00004B0006204E00
001ACB8D0000096000001D00
0000000D000001D200000D00
0000000D0000005A00000D00
000000030000000300000300
ENDCHAR
STARTCHAR uni0915094D091A
ENCODING -1
SWIDTH 1086 0
DWIDTH 20 0
BBX 21 12 -1 -1
BITMAP
2CCCCCCFCCCCCCCCCCFC90
0000000D0000000000D000
0019C80D7BB3000000D000
00A6000D603CCDDC20D000
00D0000D0000590000D000
00D0000D0000A30000D000
00D0000D0000A30000D000
00A6004E0000690006D000
001ACB8D000008CCB7D000
0000000D0000000000D000
0000000D0000000000D000
0000000300000000003000
ENDCHAR
STARTCHAR uni0915094D091C
ENCODING -1
SWIDTH 1071 0
DWIDTH 19 0
BBX 21 12 -1 -1
BITMAP
2CCCCCCFCCCCCCCCCDEC60
0000000D00000000049000
0019C80D00000000049000
00A6000D7BC19DDCCD9000
00D0000D500001B2049000
00D0000D00000076049000
00D0000D00000067049000
00A6004E00000076049000
001ACB8D000000B3049000
0000000D000BCC70049000
0000000D00000000049000
0000000300000000012000
ENDCHAR
STARTCHAR uni0915094D091F
ENCODING -1
SWIDTH 984 0
DWIDTH 18 0
BBX 19 12 -1 -1
BITMAP
2CCCCCCFCCCCCCCCFCB0
0000000D00000001C000
0019C80D7BCA1001C000
00A6000D6008ECCCA000
00D0000D000870000000
00D0000D000C10000000
00D0000D000C10000600
00A6004E000C10001C00
001ACB8D000970007800
0000000D00019CCC9100
0000000D000000000000
00000003000000000000
ENDCHAR
STARTCHAR uni0915094D0923
ENCODING -1
SWIDTH 1183 0
DWIDTH 21 0
BBX 23 12 -1 -1
BITMAP
2CCCCCCFCCCEDCCCECCDEC60
0000000D00076002B003A000
0019C80D00076002B003A000
00A6000D7BCD6002B003A000
00D0000D50076002B003A000
00D0000D00076002B003A000
00D0000D0004A0078003A000
00A6004E00007CC91003A000
001ACB8D000000000003A000
0000000D000000000003A000
0000000D000000000003A000
000000030000000000002000
ENDCHAR
STARTCHAR uni0915094D0924
ENCODING -1
SWIDTH 761 0
DWIDTH 14 0
BBX 15 12 -1 -1
BITMAP
2CCCCCCDECCCCCA0
00000003A0000000
00000003A0000000
00BCDCCDB9CC7000
000B3003E200B400
000D0003B0005800
000D0003A0004900
000D0003A0005800
000B4003A000A400
0002AC33A0AC7000
00000003A0000000
0000000020000000
ENDCHAR
STARTCHAR uni0915094D0925
ENCODING -1
SWIDTH 1118 0
DWIDTH 20 0
BBX 22 12 -1 -1
BITMAP
2CCCCCCFCC706CC9005DC4
0000000D0000D009406700
0019C80D00005007506700
00A6000D0000001C306700
00D0000D7BCCCCC6006700
00D0000D50077000006700
00D0000D00067000007700
00A6004E0003C10002D700
001ACB8D00005BCCCB8700
0000000D00000000006700
0000000D00000000006700
0000000300000000001200
ENDCHAR
STARTCHAR uni0915094D0926
ENCODING -1
SWIDTH 1009 0
DWIDTH 18 0
BBX 20 11 -1 0
BITMAP
2CCCCCCFCCCCCCCCDEC4
0000000D000000005800
0019C80D6BC910005800
0087000D5009EDCCC600
00D0000D0004C1000000
00D0000D000670000000
00D0000D000670000C00
00D0000D000670001C00
0097005E0002C1006C00
0019CC7D00005BCC9C00
0000000C000000000C00
ENDCHAR
STARTCHAR uni0915094D092A
ENCODING -1
SWIDTH 1007 0
DWIDTH 18 0
BBX 20 12 -1 -1
BITMAP
2CCCCCCFCCCDDCCCDEC4
0000000D000760006700
0019C80D000760006700
00A6000D7BCD60006700
00D0000D500760006700
00D0000D000760006700
00D0000D0003B101B700
00A6004E00006CCB8700
001ACB8D000000006700
0000000D000000006700
0000000D000000006700
00000003000000001200
ENDCHAR
STARTCHAR uni0915094D092B
ENCODING -1
SWIDTH 1242 0
DWIDTH 22 0
BBX 24 12 -1 -1
BITMAP
2CCCCCCFCCCDDCCCEDCCCCC6
0000000D0007600094000000
0019C80D0007600098CCB400
00A6000D7BCD60009A002D10
00D0000D5007600094000A30
00D0000D00076000A4000940
00D0000D0003B102E4000A30
00A6004E00006CCAA4002D10
001ACB8D00000000944CB400
0000000D0000000094000000
0000000D0000000094000000
000000030000000021000000
ENDCHAR
STARTCHAR uni0915094D092E
ENCODING -1
SWIDTH 994 0
DWIDTH 18 0
BBX 20 12 -1 -1
BITMAP
2CCCCCCFCCCEDCCCEDC1
0000000D000850009400
0019C80D000850009400
00A6000D7BCD50009400
00D0000D500850009400
00D0000D0008DCCCE400
00D0000D000850009400
00A6004E000430009400
001ACB8D000000009400
0000000D000000009400
0000000D000000009400
00000003000000002100
ENDCHAR
STARTCHAR uni0915094D092F
ENCODING -1
SWIDTH 1076 0
DWIDTH 19 0
BBX 21 12 -1 -1
BITMAP
2CCCCCCFCCCCCEDCCCEC70
0000000D000001B002B000
0019C80D000000D002B000
00A6000D000002C002B000
00D0000D7BCDCB3002B000
00D0000D5008400002B000
00D0000D0008500003B000
00A6004E0004B1001AB000
001ACB8D00006BCCC7B000
0000000D0000000002B000
0000000D0000000002B000
0000000300000000002000
ENDCHAR
STARTCHAR uni0915094D0932
ENCODING -1
SWIDTH 1178 0
DWIDTH 21 0
BBX 23 12 -1 -1
BITMAP
2CCCCCCFCCCCCCCCCCCDEC50
0000000D0000000000058000
0019C80D7BCA100000058000
00A6000D6008ECC56CB98000
00D0000D0007801BA00A8000
00D0000D000A300760058000
00D0000D000A300750058000
00A6004E000A300000058000
001ACB8D0007800000058000
0000000D00019CB000058000
0000000D0000000000058000
000000030000000000012000
ENDCHAR
STARTCHAR uni0915094D0935
ENCODING -1
SWIDTH 1013 0
DWIDTH 18 0
BBX 20 12 -1 -1
BITMAP
2CCCCCCFCCCCCCCCDEC5
0000000D000000004900
0019C80D7BCA5BC44900
0087000D6007E2004900
00D0000D000490004900
00D0000D000580004900
00D0000D000580004900
00D0000D000490005900
0097005E0001C100A900
0019CB8D00004BCB8900
0000000D000000004900
00000003000000001200
ENDCHAR
STARTCHAR uni0915094D0936
ENCODING -1
SWIDTH 1194 0
DWIDTH 21 0
BBX 23 12 -1 -1
BITMAP
2CCCCCCFCCC407CCA000EC80
0000000D00002C008500C000
0019C80D000039006700C000
00A6000D7BCA10006700C000
00D0000D5005A000A400C000
00D0000D0000FCCC7000C000
00D0000D000096000000C000
00A6004E00001C200000C000
001ACB8D000004B00000C000
0000000D000000960000C000
0000000D0000001D2000C000
000000030000000210003000
ENDCHAR
STARTCHAR uni0915094D0938
ENCODING -1
SWIDTH 1143 0
DWIDTH 21 0
BBX 22 12 -1 -1
BITMAP
2CCCCCCFCCCCCCDDCCCFC9
0000000D00000067000D00
0019C80D7BC70067000D00
00A6000D60095077000D00
00D0000D000390A3000D00
00D0000D0002EDDCCCCE00
00D0000D0000C300000D00
00A6004E00003B00000D00
001ACB8D00000A50000D00
0000000D000002D0000D00
0000000D00000087000D00
0000000300000013000300
ENDCHAR
STARTCHAR uni0916094D0916
ENCODING -1
SWIDTH 1223 0
DWIDTH 22 0
BBX 24 12 -1 -1
BITMAP
2CCCDECCCCCCCCECCCCCEDC2
00004900000000C100007500
00004900000000C100007500
00004904B80000C119C27500
0000871D100002D087007500
05DC914A000CCC40B2007500
01D2004A00098000B2008500
005A001D103CD3008701C500
000A5004BCB24C0019CA9500
0001D1000000097000007500
00006900000001C200007500
000003000000002100002100
ENDCHAR
STARTCHAR uni0916094D0924
ENCODING -1
SWIDTH 984 0
DWIDTH 18 0
BBX 19 11 -1 0
BITMAP
2CCCDECCCCCCCCCCFCB0
0000490000000000C100
0000490000000000C100
00004904B8000000C100
0000871D1003BCCCF100
05DC914A000C3000C100
01C2004A000D0000C100
004B001D100C0000C100
00087004BCCD0000C100
0000C300000D3000C100
00003A000003BB00A100
ENDCHAR
STARTCHAR uni0916094D092E
ENCODING -1
SWIDTH 965 0
DWIDTH 17 0
BBX 19 12 -1 -1
BITMAP
2CCCDECCCCCFCCCCEC70
00004900000C0002B000
00004900000C0002B000
00004904B80C0002B000
0000871D100C0002B000
05DC914A000FCCCDB000
01D2003A001C0002B000
005A001D104A0002B000
000A5004BCA20002B000
0001D10000000002B000
0000690000000002B000
00000300000000002000
ENDCHAR
STARTCHAR uni0916094D092F
ENCODING -1
SWIDTH 1047 0
DWIDTH 19 0
BBX 21 12 -1 -1
BITMAP
2CCCDECCCCCCDFCCCEDC10
00004900000009400A3000
00004900000006700A3000
00004904B8000A500A3000
0000871D101DC8000A3000
05DC914A001C00000A3000
01D2004A001D00000B3000
005A001D105F50004F3000
000A5004BC85BCCCAB3000
0001D100000000000A3000
00006900000000000A3000
0000030000000000020000
ENDCHAR
STARTCHAR uni0916094D0935
ENCODING -1
SWIDTH 975 0
DWIDTH 18 0
BBX 19 12 -1 -1
BITMAP
2CCCDECCCCCCCCCCFC90
0000490000000000D000
000049000002AC80D000
00004905B80B5000D000
0000871D100D0000D000
05DC9149000D0000D000
01D20049000D0000D000
005A001D105E0000D000
000A5005CC895006D000
0001D10000019CB7D000
0000690000000000D000
00000300000000003000
ENDCHAR
STARTCHAR uni0916094D0936
ENCODING -1
SWIDTH 1123 0
DWIDTH 20 0
BBX 22 12 -1 -1
BITMAP
2CCCDECCCC10ACC7004EC5
000049000005800C105800
000049000007500A305800
00004904B804200A305800
0000871D1000001D105800
05DC914A009CCCB4005800
01C2004A005B0000005800
005A001D107F5000005800
000A5004BC84D100005800
0001D10000008900005800
0000690000000C30005800
0000030000000120001200
ENDCHAR
STARTCHAR uni0917094D0917
ENCODING -1
SWIDTH 744 0
DWIDTH 13 0
BBX 15 12 -1 -1
BITMAP
2CCEDCCCECCCEC70
00094002C002B000
00094002C002B000
00094002C002B000
00094002B002B000
001D20079002B000
07C501CA1002B000
000000000002B000
000000000002B000
000000000002B000
000000000002B000
0000000000003000
ENDCHAR
STARTCHAR uni0917094D0918
ENCODING -1
SWIDTH 823 0
DWIDTH 15 0
BBX 16 12 -1 -1
BITMAP
2CCEDCCDECCCCEDB
0009400C20000B30
0009400D00000B30
0009400C30000B30
00094003EC800B30
001D200B30000B30
07C5000D00000B30
0000000D00000B30
0000000B40003F30
00000002ACCC9B30
0000000000000B30
0000000000000200
ENDCHAR
STARTCHAR uni0917094D091C
ENCODING -1
SWIDTH 801 0
DWIDTH 14 0
BBX 16 12 -1 -1
BITMAP
2CCEDCCCCCCCCEC7
0009400000002C00
0009400000002C00
0009400000002C00
0009401CDDCCCC00
001D200009402C00
07C5000004802C00
0000000004902C00
0000000009602C00
000000ACC9002C00
0000000000002C00
0000000000000300
ENDCHAR
STARTCHAR uni0917094D0923
ENCODING -1
SWIDTH 945 0
DWIDTH 17 0
BBX 19 12 -1 -1
BITMAP
2CCEDCCFCCCDDCCEDC20
0009400C100760085000
0009400C100760085000
0009400C100760085000
0009400C100760085000
001D200C100760085000
07C50009600B30085000
00000001ACC600085000
00000000000000085000
00000000000000085000
00000000000000085000
00000000000000021000
ENDCHAR
STARTCHAR uni0917094D0926
ENCODING -1
SWIDTH 748 0
DWIDTH 13 0
BBX 15 11 -1 0
BITMAP
2CCEDCCCCCCCFC80
000940000000D000
000940000000D000
00094002BCCCA000
0009400C30000000
001D201C00000000
07C5002B0000A100
0000001C0000B200
0000000C3002E200
00000002BCCBC200
000000000000A100
ENDCHAR
STARTCHAR uni0917094D0927
ENCODING -1
SWIDTH 823 0
DWIDTH 15 0
BBX 16 12 -1 -1
BITMAP
2CCEDCCDEA05CEDB
0009400C20000A30
0009400D00000A30
0009400C30000A30
00094003EC800A30
001D200B40000A30
07C5000D00000A30
0000000D00000B30
0000000B40003F30
00000002ACCC9B30
0000000000000A30
0000000000000200
ENDCHAR
STARTCHAR uni0917094D092C
ENCODING -1
SWIDTH 755 0
DWIDTH 14 0
BBX 15 12 -1 -1
BITMAP
2CCEDCCCCCCCFC90
000940000000D000
00094002AC80D000
0009400B9000D000
0009401C7700D000
001D201C0960D000
07C5001C00A6D000
0000001C000BE000
0000000C4008E000
00000002ACC7D000
000000000000D000
0000000000003000
ENDCHAR
STARTCHAR uni0917094D092D
ENCODING -1
SWIDTH 755 0
DWIDTH 14 0
BBX 15 12 -1 -1
BITMAP
2CCEDCC5008CFC90
0009401D0000D000
0009400C1000D000
0009400C1000D000
0009400C1000D000
001D200CCCCCE000
07C5000C1000D000
000000091000D000
000000000000D000
000000000000D000
000000000000D000
0000000000003000
ENDCHAR
STARTCHAR uni0917094D092E
ENCODING -1
SWIDTH 754 0
DWIDTH 14 0
BBX 15 12 -1 -1
BITMAP
2CCEDCCFCCCCFC90
0009400C0000D000
0009400C0000D000
0009400C0000D000
0009400C0000D000
001D200CCCCCE000
07C5000C0000D000
000000090000D000
000000000000D000
000000000000D000
000000000000D000
0000000000003000
ENDCHAR
STARTCHAR uni0917094D092F
ENCODING -1
SWIDTH 828 0
DWIDTH 15 0
BBX 17 12 -1 -1
BITMAP
2CCEDCCCDFCCCEDC10
000940000850094000
000940000570094000
000940000950094000
0009400DC900094000
001D200D0000094000
07C5000D00000A4000
0000000B50003E4000
000000019CCCAA4000
000000000000094000
000000000000094000
000000000000021000
ENDCHAR
STARTCHAR uni0917094D0932
ENCODING -1
SWIDTH 924 0
DWIDTH 17 0
BBX 18 12 -1 -1
BITMAP
2CCEDCCCCCCCCCCFCA
000940000000000D00
000940000000000D00
00094005BC93BC9E00
0009401D106E204F00
001D2049001C000E00
07C50049001C000D00
000000490001000D00
0000001D1000000D00
00000005BC50000D00
000000000000000D00
000000000000000300
ENDCHAR
STARTCHAR uni0917094D0935
ENCODING -1
SWIDTH 747 0
DWIDTH 13 0
BBX 15 12 -1 -1
BITMAP
2CCEDCCCCCCCFC80
000940000000C000
00094002AC70C000
0009400C4000C000
0009401C0000C000
001D202C0000C000
07C5002C0000C000
0000001C0001C000
0000000C4007C000
00000002ACB7C000
000000000000C000
0000000000003000
ENDCHAR
STARTCHAR uni0917094D0938
ENCODING -1
SWIDTH 839 0
DWIDTH 15 0
BBX 17 12 -1 -1
BITMAP
2CCEDCCCCFCCCDDC40
000940000D00067000
000940000D00067000
000940000D00067000
000940003B00067000
001D208DDCCCCD7000
07C5004B0000067000
0000000A4000067000
00000002C000067000
000000009600067000
000000001D10067000
000000000210011000
ENDCHAR
STARTCHAR uni0918094D092E
ENCODING -1
SWIDTH 818 0
DWIDTH 15 0
BBX 16 12 -1 -1
BITMAP
2CCFCCCCEDCCCFCB
00850000A3000C10
00A20000A3000C10
00960000A3000C10
001DDB00A3000C10
00670000ADCCCF10
00A30000A3000C10
00A30000A2000C10
00780002D0000C10
0019CCCB40000C10
0000000000000C10
0000000000000300
ENDCHAR
STARTCHAR uni0918094D092F
ENCODING -1
SWIDTH 867 0
DWIDTH 16 0
BBX 17 12 -1 -1
BITMAP
2CCFCCCCCEECCCFC90
0085000000C100D000
00A2000000A300D000
0096000001D100D000
001DDB04DC5000D000
00670005800000D000
00A30004900000E000
00A30001C20007E000
00780004EDCCC7D000
0019CCCB200000D000
00000000000000D000
000000000000003000
ENDCHAR
STARTCHAR uni091A094D091A
ENCODING -1
SWIDTH 868 0
DWIDTH 16 0
BBX 17 12 -1 -1
BITMAP
2CCCCCCCCCCCCCFCA0
00000000000000D000
00000000000000D000
06CCDC16CDDC30D000
000B3000490000D000
001C0000940000D000
001C0000940000E000
000C3001C90005F000
0002BCCB47CCB7D000
00000000000000D000
00000000000000D000
000000000000003000
ENDCHAR
STARTCHAR uni091A094D091B
ENCODING -1
SWIDTH 922 0
DWIDTH 17 0
BBX 18 10 -1 1
BITMAP
2CCCCCCCCFDCCCCFC9
000000005900001C00
000000007600001C00
06CCDC9076000ACA00
000B30005A00000C20
001C00000BD9000940
001C00006900000840
000C3001A600000940
0002BCCB9900001C10
0000000008CCCCB400
ENDCHAR
STARTCHAR uni091A094D092E
ENCODING -1
SWIDTH 830 0
DWIDTH 15 0
BBX 17 12 -1 -1
BITMAP
2CCCCCCCDDCCCEDC10
000000007600094000
000000007600094000
06CCDC907600094000
000B30007600094000
001C00007DCCCE4000
001C00007600094000
000C3001C300094000
0002BCCC6000094000
000000000000094000
000000000000094000
000000000000021000
ENDCHAR
STARTCHAR uni091A094D092F
ENCODING -1
SWIDTH 904 0
DWIDTH 16 0
BBX 18 12 -1 -1
BITMAP
2CCCCCCCCCEDCCDEC6
00000000003A004900
00000000000D004900
06CCDC90003B004900
000B30008CB2004900
001C0000A300004900
001C00009400005900
000C3001BA1001B900
0002BCCB46BCCC8900
000000000000004900
000000000000004900
000000000000001200
ENDCHAR
STARTCHAR uni091B094D092F
ENCODING -1
SWIDTH 1068 0
DWIDTH 19 0
BBX 21 12 -1 -1
BITMAP
2CCFCCCCCCCCCCCCCDEC50
0077000000000000048000
0094000000000000048000
0094000BDDCCCC80048000
007800001C100095048000
001DD7000B2000A4048000
007700000B22DC80048000
009400000B21B000068000
007700002D00C4001C8000
0019CCCCB4002ACCB78000
0000000000000000048000
0000000000000000012000
ENDCHAR
STARTCHAR uni091B094D0935
ENCODING -1
SWIDTH 581 0
DWIDTH 10 0
BBX 12 13 -1 -2
BITMAP
2CCFCCCCDEC8
007700004900
009400004900
0078000BD800
001DD7001D00
007800000B20
009400000B20
007800002C00
001BECCCC900
000C10004900
001C00004800
000D2000A400
0003BCCC7000
ENDCHAR
STARTCHAR uni091C094D0915
ENCODING -1
SWIDTH 1054 0
DWIDTH 19 0
BBX 21 12 -1 -1
BITMAP
2CCCCCCCCCCCCFCCCCCC20
0000000000000D00000000
0000000008C70D7BC91000
0000000055000E40069000
008CDCCCD0000D0000D000
00003A00D0000D0000D000
00000D00E0000D0000D000
00000D00D4005D00069000
00003C003BCB7D08C91000
05CCB30000000D00000000
0000000000000D00000000
0000000000000300000000
ENDCHAR
STARTCHAR uni091C094D091C
ENCODING -1
SWIDTH 903 0
DWIDTH 16 0
BBX 18 12 -1 -1
BITMAP
2CCCCCCCCCCCCCDEC5
000000000000004900
000000000000004900
000000000000004900
008CDCCB09DDCCD900
00003B00000A304900
00000D000007604900
00000D000007604900
00003C00000B404900
05CCB302CCC7004900
000000000000004900
000000000000001200
ENDCHAR
STARTCHAR uni091C094D091D
ENCODING -1
SWIDTH 990 0
DWIDTH 18 0
BBX 19 12 -1 -1
BITMAP
2CCCCCCCCCCCEDCCECB0
000000000000A300B200
000000001ACCD200B200
0000000074000000B200
008CDCCCE1000000B200
00003A00B4000000B200
00000D003BCCDCCCE200
00000D0000004A00B200
00003C00D1004A00B200
05CCB300DCCCB300B200
00000000D0000000B200
00000000C00000002000
ENDCHAR
STARTCHAR uni091C094D091F
ENCODING -1
SWIDTH 815 0
DWIDTH 15 0
BBX 16 10 -1 1
BITMAP
2CCCCCCCCCCCCECA
0000000000002C00
0000000000002C00
0000000019CCC900
009CDCCCF6000000
00004900D1000000
00000D00D0000000
00000D00D1000190
00004B00A6000690
06CCB2002ACCCA10
ENDCHAR
STARTCHAR uni091C094D0921
ENCODING -1
SWIDTH 797 0
DWIDTH 14 0
BBX 16 11 -1 0
BITMAP
2CCCCCCCCCCCDEC6
0000000000003A00
0000000000003A00
009CDCCCDDCCC800
00005900D2000000
00000D00B2000000
00000D003BCCC700
00000D0000000C20
00005A0050000A30
06CCA200D1000C20
000000004BCCC600
ENDCHAR
STARTCHAR uni091C094D0924
ENCODING -1
SWIDTH 830 0
DWIDTH 15 0
BBX 17 11 -1 0
BITMAP
2CCCCCCCCCCCCEDC10
000000000000094000
000000000000094000
000000000000094000
009CDCCCAACCCE4000
00004900A500094000
00000D00C100094000
00000D00C100094000
00004B00C100094000
06CCB200A600094000
000000001AC2083000
ENDCHAR
STARTCHAR uni091C094D0926
ENCODING -1
SWIDTH 817 0
DWIDTH 15 0
BBX 16 11 -1 0
BITMAP
2CCCCCCCCCCCCFCA
0000000000000C10
0000000000000C10
0000000008CCCD10
008CDCCCD6000000
00003A00C0000000
00000D00D0000750
00000D00D0000850
00003C0096001C50
05CCB30019CCB950
0000000000000750
ENDCHAR
STARTCHAR uni091C094D092C
ENCODING -1
SWIDTH 820 0
DWIDTH 15 0
BBX 16 12 -1 -1
BITMAP
2CCCCCCCCCCCCECB
0000000000000C20
0000000008CA0C20
000000005B000C20
008CDCCCEB100C20
00003A00D2B10C20
00000D00D02A1C20
00000D00D002AD20
00003C00A5005F20
05CCB3001ACC9C20
0000000000000C20
0000000000000300
ENDCHAR
STARTCHAR uni091C094D092E
ENCODING -1
SWIDTH 813 0
DWIDTH 15 0
BBX 16 12 -1 -1
BITMAP
2CCCCCCCFCCCCFCA
00000000C1000D00
00000000C1000D00
00000000C1000D00
008CDCCCE1000D00
00003A00CCCCCF00
00000D00C1000D00
00000D00B1000D00
00003C0000000D00
05CCB30000000D00
0000000000000D00
0000000000000300
ENDCHAR
STARTCHAR uni091C094D092F
ENCODING -1
SWIDTH 893 0
DWIDTH 16 0
BBX 18 12 -1 -1
BITMAP
2CCCCCCCCCFCCCDDC3
000000000057006700
00000000003A006700
009CDCCC7068006700
00005900DCA1006700
00000D00D000006700
00000D00C100007700
00000D00780002D700
00005A0007CCCB8700
06CCA2000000006700
000000000000006700
000000000000001100
ENDCHAR
STARTCHAR uni091C094D0935
ENCODING -1
SWIDTH 813 0
DWIDTH 15 0
BBX 16 12 -1 -1
BITMAP
2CCCCCCCCCCCCFCA
0000000000000D00
0000000007C90D00
0000000046000D00
008CDCCCE0000D00
00003A00D0000D00
00000D00D0000D00
00000D00D0000D00
00003C00A6005F00
05CCB3001ACC8D00
0000000000000D00
0000000000000300
ENDCHAR
STARTCHAR uni091D094D092E
ENCODING -1
SWIDTH 936 0
DWIDTH 17 0
BBX 19 12 -1 -1
BITMAP
2CCCCCEDCCEDCCCEDC10
000000850085000A3000
001ACCD40085000A3000
008600000085000A3000
00A300000085000A3000
00860000008DCCCE3000
001ACCDDCCE5000A3000
0000002C0085000A3000
00B2002C0021000A3000
00C9BCB40000000A3000
00C100000000000A3000
00B10000000000000000
ENDCHAR
STARTCHAR uni091D094D092F
ENCODING -1
SWIDTH 1000 0
DWIDTH 18 0
BBX 20 12 -1 -1
BITMAP
2CCCCCEDCCCCFCCCEDC2
00000085000076008500
001ACCD4000049008500
00860000000077008500
00A3000000CC91008500
0086000000D000008500
001ACCDDCCE000008500
0000002C00B70002E500
00B2002C0029CCCBA500
00C9BCB4000000008500
00C10000000000007500
00B10000000000000000
ENDCHAR
STARTCHAR uni091E094D091B
ENCODING -1
SWIDTH 913 0
DWIDTH 16 0
BBX 18 10 -1 1
BITMAP
2CCCCCCCCFCCCCDEC7
000000007700004A00
00BCB400A300004A00
00002C0093000BD800
00000A204700001D00
00000ADCDED7000B20
00000A209700000B20
00002C00A300000B20
03CCB4007700002C00
0000000019CCCCB300
ENDCHAR
STARTCHAR uni091E094D091C
ENCODING -1
SWIDTH 932 0
DWIDTH 17 0
BBX 18 12 -1 -1
BITMAP
2CCCCCCCCCCCCCCECB
000000000000000B20
000000000000000B20
000000000000000B20
00ACC60009CDCCCF20
00001D200003A00B20
000009DC5000D00B20
000009300000D00B20
00001B000003C00B20
02CCB3006CCB300B20
000000000000000B20
000000000000000300
ENDCHAR
STARTCHAR uni091E094D0936
ENCODING -1
SWIDTH 975 0
DWIDTH 18 0
BBX 19 12 -1 -1
BITMAP
2CCCCCC505CCA100EC90
000000000D007600D000
000000002B005800D000
00ACC70029005800D000
00001C200000A500D000
000009DCDCCC8000D000
000009304B000000D000
00001C1009500000D000
02CCB50001D10000D000
0000000000690000D000
00000000000C3000D000
00000000000120003000
ENDCHAR
STARTCHAR uni091F094D091F
ENCODING -1
SWIDTH 494 0
DWIDTH 9 0
BBX 11 16 -1 -5
BITMAP
2CCCCCCFCC10
0000001C0000
0000001C0000
0019CCCA0000
009600000000
00D000000000
00D00001B000
009600069000
0019CCCD1000
0000001C0000
0019CCCA0000
009600000000
00D000000000
00D00001B000
009600068000
0019CCC91000
ENDCHAR
STARTCHAR uni091F094D0920
ENCODING -1
SWIDTH 495 0
DWIDTH 9 0
BBX 11 16 -1 -5
BITMAP
2CCCCCCFCC10
0000001C0000
0000001C0000
0019CCCA0000
009600000000
00D000000000
00D00001B000
009600069000
0019CCCF1000
0000001D0000
0019CCDB1000
008700069000
00C10000C000
00C10000C000
008700069000
0019CCC91000
ENDCHAR
STARTCHAR uni091F094D092F
ENCODING -1
SWIDTH 990 0
DWIDTH 18 0
BBX 20 12 -1 -1
BITMAP
2CCCCCCFCCCCCCCCEDC1
0000001C00000000A400
0000001C00000000A400
0019CCCDCCCCB400A400
0087000000001D00A400
00C1000000001D00A400
00C10000606CB400A400
00C10001C0660000B400
00870006903C1004E400
0019CCC91005BCC9A400
0000000000000000A400
00000000000000002100
ENDCHAR
STARTCHAR uni091F094D0935
ENCODING -1
SWIDTH 501 0
DWIDTH 9 0
BBX 11 13 -1 -2
BITMAP
2CCCCCCFCC20
0000000D0000
0000000D0000
0019CCCC0000
009700000000
00C100003000
00C10000D000
00970004B000
001DDCCC9000
006800049000
009400049000
0069000A5000
0009CCC70000
ENDCHAR
STARTCHAR uni0920094D092F
ENCODING -1
SWIDTH 998 0
DWIDTH 18 0
BBX 20 12 -1 -1
BITMAP
2CCCCCCFCCCCCCCCEDC2
0000000D000000008500
0000001D000000008500
0019CCEA2BCCB5008500
00870006E3000C108500
00C10000D0001C108500
00C10000D05CC5008500
00C10000D05800009500
00970006902C2003E500
0019CCC91004BCC99500
00000000000000008500
00000000000000002100
ENDCHAR
STARTCHAR uni0921094D0921
ENCODING -1
SWIDTH 493 0
DWIDTH 9 0
BBX 11 16 -1 -5
BITMAP
2CCCCCCFCC10
0000000D0000
002ACCCC0000
009500000000
009500000000
002BCCC90000
000000096000
00A200058000
008500096000
003FCCC90000
008600000000
009600000000
002BCCCA1000
003000077000
00A400077000
003BCCCA1000
ENDCHAR
STARTCHAR uni0921094D0922
ENCODING -1
SWIDTH 493 0
DWIDTH 9 0
BBX 11 15 -1 -4
BITMAP
2CCCCCCFCC10
0000000D0000
002ACCCC0000
009500000000
009500000000
002BCCC90000
000000096000
00A200058000
009500096000
002EDCC90000
007703BC4000
00B20931B000
00B20810C000
00860003B000
001ACCCC3000
ENDCHAR
STARTCHAR uni0921094D092F
ENCODING -1
SWIDTH 973 0
DWIDTH 18 0
BBX 19 11 -1 0
BITMAP
2CCCCCCFCCCCCCCCFC80
0000000D00000000D000
0000000D00000000D000
002ACCCDCCCCA200D000
0095000000005900D000
0095000000005800D000
002ACCC900BCA100D000
0000000A50C10001D000
0050000770870009D000
00A4000A5018CCB5D000
002BCCC900000000B000
ENDCHAR
STARTCHAR uni0921094D0935
ENCODING -1
SWIDTH 493 0
DWIDTH 9 0
BBX 11 14 -1 -3
BITMAP
2CCCCCCFCC10
0000000D0000
002ACCCC0000
009500000000
009500000000
002BCCC90000
000000096000
00A200058000
009500098000
002EDCCB8000
005900048000
008500057000
005A000A4000
0008CCC60000
ENDCHAR
STARTCHAR uni0922094D092F
ENCODING -1
SWIDTH 981 0
DWIDTH 18 0
BBX 19 12 -1 -1
BITMAP
2CCCCCCFCCCCCCCCFCA0
0000000D00000000D000
0000000D00000000D000
0019CCCDCCCCB200D000
0087000000003B00D000
00B2000000003B00D000
00C104CC509CB200D000
00B20A21C0A30000E000
00870002B0690007F000
0019CCCB3007CCB6D000
0000000000000000D000
00000000000000003000
ENDCHAR
STARTCHAR uni0923094D091F
ENCODING -1
SWIDTH 908 0
DWIDTH 16 0
BBX 18 10 -1 1
BITMAP
2CEDCCDECCCCCCDDC6
0085003A0000006700
0085003A0000006700
0085003A003BCCD500
0085003A00D2000000
0085003A02B0000000
005A008703A0000000
0008CC9002B0000660
0000000000D2001B40
00000000003BCCC600
ENDCHAR
STARTCHAR uni0923094D0920
ENCODING -1
SWIDTH 936 0
DWIDTH 17 0
BBX 19 10 -1 1
BITMAP
2CEDCCDECCCCCCDECC10
0085003A0000003A0000
0085003A000000580000
0085003A003BCCE60000
0085003A00D2001B4000
0085003A02B000067000
005A008703A000058000
0008CC9002B000067000
0000000000D2001B4000
00000000003BCCC60000
ENDCHAR
STARTCHAR uni0923094D0921
ENCODING -1
SWIDTH 892 0
DWIDTH 16 0
BBX 18 11 -1 0
BITMAP
2CEDCCDECCCCCCDDC3
0085003A0000007600
0085003A0000007600
0085003A006CCCD400
0085003A01C0000000
0085003A01C0000000
005A0087007CCCB400
0008CC900000002C00
000000000250000D00
0000000002B0002C00
00000000007CCCB300
ENDCHAR
STARTCHAR uni0923094D0922
ENCODING -1
SWIDTH 908 0
DWIDTH 16 0
BBX 18 10 -1 1
BITMAP
2CEDCCDECCCCCCDEC6
0085003A0000005800
0085003A0000005800
0085003A003BCCC700
0085003A00D2000000
0085003A02B0000000
005A008702B008CB20
0008CC9002B01B0670
0000000000D2010860
00000000003BCCC900
ENDCHAR
STARTCHAR uni0923094D0923
ENCODING -1
SWIDTH 1127 0
DWIDTH 20 0
BBX 22 12 -1 -1
BITMAP
2CEDCCDECCEDCCCECCDEC6
0085003A0085002A003A00
0085003A0085002A003A00
0085003A0085002A003A00
0085003A0085002A003A00
0085003A0075003A003A00
005A0087004A0077003A00
0008CC900007CC91003A00
0000000000000000003A00
0000000000000000003A00
0000000000000000003A00
0000000000000000001200
ENDCHAR
STARTCHAR uni0923094D092E
ENCODING -1
SWIDTH 932 0
DWIDTH 17 0
BBX 18 12 -1 -1
BITMAP
2CEDCCDECCEDCCCECB
0085003A0094000B20
0085003A0094000B20
0085003A0094000B20
0085003A0094000B20
0085003A009DCCCF20
005A00870094000B20
0008CC900083000B20
000000000000000B20
000000000000000B20
000000000000000B20
000000000000000300
ENDCHAR
STARTCHAR uni0923094D092F
ENCODING -1
SWIDTH 998 0
DWIDTH 18 0
BBX 20 12 -1 -1
BITMAP
2CEDCCDECCCCFCCCEDC2
0085003A000076008500
0085003A000058008500
0085003A000086008500
0085003A00DC90008500
0085003A00D000008500
005A008700D000009500
0008CC9000A60003E500
000000000019CCCAA500
00000000000000008500
00000000000000008500
00000000000000002100
ENDCHAR
STARTCHAR uni0923094D0935
ENCODING -1
SWIDTH 923 0
DWIDTH 17 0
BBX 18 12 -1 -1
BITMAP
2CEDCCDECCCCCCCFC9
0085003A0000000D00
0085003A0019C80D00
0085003A0096000D00
0085003A00D0000D00
0085003A00D0000D00
005A008700D0000D00
0008CC9000D0000D00
0000000000A6005E00
000000000019CC8D00
000000000000000D00
000000000000000300
ENDCHAR
STARTCHAR uni0924094D0915
ENCODING -1
SWIDTH 992 0
DWIDTH 18 0
BBX 20 11 -1 0
BITMAP
2CCCCCCCCCCCECCCCCC1
000000000001B0000000
00000002AC61C9CC9100
001ACCCE3001F3008800
0096001C0001C0002B00
00C1001C0001B0002C00
00C1001C0002B0002B00
00C1000C3007B0008800
00C10003BCB7B0AC9100
008700000001B0000000
0019C2000001A0000000
ENDCHAR
STARTCHAR uni0924094D0916
ENCODING -1
SWIDTH 1014 0
DWIDTH 18 0
BBX 20 11 -1 0
BITMAP
2CCCCCCCCCEDCCCCDEC5
00000000008500004900
00000000008500004900
001ACCC5008507C44900
0096000C00C24A004900
00C1000ADC7085004900
00D00003C00085004900
00D0000087004A00A900
00C100000C3007CB7900
0096000002C000004900
0019C200006600003800
ENDCHAR
STARTCHAR uni0924094D0924
ENCODING -1
SWIDTH 542 0
DWIDTH 10 0
BBX 11 11 -1 0
BITMAP
2CCCCCCCECB0
00000000C100
00000000C100
00000000C100
04CCDCCCF100
000B3000C100
000D0000C100
000D0000C100
000D0000C100
000C3000C100
0002AC10A100
ENDCHAR
STARTCHAR uni0924094D0925
ENCODING -1
SWIDTH 869 0
DWIDTH 16 0
BBX 17 11 -1 0
BITMAP
2CCCCC11ACC400CCA0
00000006802C00D000
00000004300D00D000
00000000004B00D000
001ACCCDCCB200D000
0096000D000000D000
00C1000D000000E000
00D00009600007F000
00C100019CCCB6D000
00960000000000D000
001AC200000000B000
ENDCHAR
STARTCHAR uni0924094D092A
ENCODING -1
SWIDTH 757 0
DWIDTH 14 0
BBX 15 11 -1 0
BITMAP
3CCCCCCFCCCCFCA0
0000000D0000D000
0000000D0000D000
001ACCCD0000D000
0096000D0000D000
00C1000C0000D000
00D0000A4005F000
00D00001ACB8D000
00C100000000D000
009600000000D000
0019C2000000B000
ENDCHAR
STARTCHAR uni0924094D092B
ENCODING -1
SWIDTH 992 0
DWIDTH 18 0
BBX 20 11 -1 0
BITMAP
3CCCCCCFCCCCECCCCCC1
0000000D0002B0000000
0000000D0002CACC8000
001ACCCD0002E3008700
0096000D0002C0002B00
00C1000C0002B0002B00
00D0000A4008B0002B00
00D000019CB7B0008700
00C100000002B0AC8000
009600000002B0000000
0019C2000001A0000000
ENDCHAR
STARTCHAR uni0924094D092E
ENCODING -1
SWIDTH 764 0
DWIDTH 14 0
BBX 15 11 -1 0
BITMAP
2CCCCCCEDCCCECB0
0000000A3000C100
0000000A3000C100
0019CCCE3000C100
0097000A3000C100
00B1000ADCCCF100
00C1000A3000C100
00C100083000C100
00B100000000C100
008700000000C100
0019C2000000A100
ENDCHAR
STARTCHAR uni0924094D092F
ENCODING -1
SWIDTH 830 0
DWIDTH 15 0
BBX 17 11 -1 0
BITMAP
2CCCCCCCCFCCCEDC10
000000000750094000
000000000480094000
000000000860094000
001ACCCDC900094000
0096000D0000094000
00C1000D0000094000
00D0000A60003E4000
00C100019CCCAA4000
009600000000094000
001AC2000000074000
ENDCHAR
STARTCHAR uni0924094D0932
ENCODING -1
SWIDTH 957 0
DWIDTH 17 0
BBX 19 11 -1 0
BITMAP
2CCCCCCCCCCCCCCDEC50
00000000000000048000
00000000000000048000
001ACCB48BC56CB98000
0096001D801BA00A8000
00C1000A300760058000
00D0000A300760048000
00D0000A300000048000
00C10007800000048000
009600008CB000048000
001AC200000000047000
ENDCHAR
STARTCHAR uni0924094D0935
ENCODING -1
SWIDTH 751 0
DWIDTH 14 0
BBX 15 11 -1 0
BITMAP
2CCCCCCCCCCCFC80
000000000000D000
00000002AC70D000
001ACCCE5000D000
0096001D0000D000
00C1001C0000D000
00C1001C0000D000
00C1000D0000D000
00C1000B4006D000
00870001ACB7D000
0019C2000000B000
ENDCHAR
STARTCHAR uni0924094D0938
ENCODING -1
SWIDTH 876 0
DWIDTH 16 0
BBX 17 11 -1 0
BITMAP
2CCCCCCCCDECCCECB0
0000000004A000B200
0000000004A000B200
001ACCB2049000B200
0096003A086000B200
00C1000ECDCCCCF200
00D00008700000B200
00D00001D10000B200
00C100005A0000B200
009600000B3000B200
0019C20003A000A100
ENDCHAR
STARTCHAR uni0925094D092F
ENCODING -1
SWIDTH 931 0
DWIDTH 17 0
BBX 16 12 1 -1
BITMAP
0ACC508CDECCCECB
5801C0000A200C20
6600D00008500C20
0003C0000B300C20
CCCB302DC7000C20
D000003A00000C20
C100002B00000C20
8800007E30005F20
08CCCC82ACCC8C20
0000000000000C20
0000000000000C20
0000000000000300
ENDCHAR
STARTCHAR uni0925094D0935
ENCODING -1
SWIDTH 862 0
DWIDTH 16 0
BBX 15 12 1 -1
BITMAP
1BCC508CCCCCFC80
6801C0000000D000
3300D002AC70D000
0003C00C5000D000
CCCB300D0000D000
D000001C0000D000
C100001C0000D000
8800007D0000D000
08CCCC785006D000
000000009CB6D000
000000000000D000
0000000000003000
ENDCHAR
STARTCHAR uni0926094D0917
ENCODING -1
SWIDTH 489 0
DWIDTH 9 0
BBX 10 13 -1 -2
BITMAP
2CCCCCCEDB
0000000A30
0000000A30
0019CCCD20
0097000000
00C2000000
00C2000560
0096000970
0019ECBA70
0000C10670
0000C00560
0003C00000
00AB300000
ENDCHAR
STARTCHAR uni0926094D0918
ENCODING -1
SWIDTH 686 0
DWIDTH 12 0
BBX 14 12 -1 -1
BITMAP
2CCCCCCCCCCEC6
00000000002B00
00000000002B00
0000005CCCC900
005CCCE2000000
00D103A0000000
00D103A0000C00
007EC3A0000D00
00C100D2003F00
01C0004ECCAD00
00D1003B000C00
004BCCB3000000
ENDCHAR
STARTCHAR uni0926094D0926
ENCODING -1
SWIDTH 506 0
DWIDTH 9 0
BBX 11 12 -1 -1
BITMAP
2CCCCCCEDC30
000000076000
000000076000
001ACCCD4000
008600000000
007600000000
001DDC600000
006700000000
00940000C000
00770004C000
0019CCC9C000
00000000C000
ENDCHAR
STARTCHAR uni0926094D0927
ENCODING -1
SWIDTH 686 0
DWIDTH 12 0
BBX 14 12 -1 -1
BITMAP
2CCCCCCCCCCEC6
00000000002B00
00000000002B00
0000003BCCC900
005C70D2000000
00D103A0000000
00D103A0000C00
007EC4A0000D00
00C101D2003F00
01C0004ECCAD00
00D1003B000C00
004BCCB3000000
ENDCHAR
STARTCHAR uni0926094D092C
ENCODING -1
SWIDTH 481 0
DWIDTH 9 0
BBX 10 13 -1 -2
BITMAP
2CCCCCCEDA
0000000A30
0000000A30
0019CCCD20
0088000000
00B2000000
00C1000110
00B2000670
0087000A70
001EDCBA70
0077870570
0086039A40
001ACCC700
ENDCHAR
STARTCHAR uni0926094D092D
ENCODING -1
SWIDTH 499 0
DWIDTH 9 0
BBX 11 15 -1 -4
BITMAP
2CCCCCCEDC20
000000094000
0008CCCD3000
006900000000
00A300000000
00A300084000
0069001C4000
0008CCBB4000
03C500084000
001C10084000
000A30084000
000ADCCE4000
000A30084000
000410084000
000000021000
ENDCHAR
STARTCHAR uni0926094D092E
ENCODING -1
SWIDTH 706 0
DWIDTH 13 0
BBX 14 12 -1 -1
BITMAP
2CCCCCCECCCFCA
0000002B000D00
002ACCC9000D00
00B50000000D00
00D00000000D00
00D0000C000D00
00B4005D000D00
002ACC9D000D00
0000000FCCCF00
0000000C000D00
00000000000D00
00000000000300
ENDCHAR
STARTCHAR uni0926094D092F
ENCODING -1
SWIDTH 583 0
DWIDTH 11 0
BBX 12 12 -1 -1
BITMAP
2CCCCDDCCFC8
000007600D00
001ACD500D00
008600000D00
007600000D00
001DC9000D00
007600000D00
009300001D00
007700006D00
001ACCCC8D00
000000000D00
000000000300
ENDCHAR
STARTCHAR uni0926094D0935
ENCODING -1
SWIDTH 483 0
DWIDTH 9 0
BBX 10 13 -1 -2
BITMAP
2CCCCCCEDA
0000000A30
0000000A30
0019CCCD20
0088000000
00B2000000
00C1000110
00B2000670
0087000A70
001EDCBA70
0077000670
0077000A40
001ACCC700
ENDCHAR
STARTCHAR uni0927094D092E
ENCODING -1
SWIDTH 817 0
DWIDTH 15 0
BBX 16 12 -1 -1
BITMAP
2CCFC308EDCCCECB
00850000A3000C20
00A20000A3000C20
00860000A3000C20
001DDB00A3000C20
00770000ADCCCF20
00A30000A3000C20
00A30000A3000C20
00780001D1000C20
0019CCCB40000C20
0000000000000C20
0000000000000300
ENDCHAR
STARTCHAR uni0927094D092F
ENCODING -1
SWIDTH 886 0
DWIDTH 16 0
BBX 18 12 -1 -1
BITMAP
2CCFC308CCFCCCEDC2
008500000075009500
00A200000058009500
009600000086009500
001DDB00DC90009500
00670000D000009500
00A30000D000009500
00A30000B60003E500
00780003B9CCCAA500
0019CCCA1000009500
000000000000009500
000000000000002100
ENDCHAR
STARTCHAR uni0927094D0935
ENCODING -1
SWIDTH 810 0
DWIDTH 15 0
BBX 16 12 -1 -1
BITMAP
2CCFC308CCCCCFC9
0085000000000D00
00A2000019C80D00
00860000A5000D00
001DDB00D0000D00
00770000D0000D00
00A30000D0000D00
00A30000D0000D00
00780001D5006E00
0019CCCB49CC8D00
0000000000000D00
0000000000000300
ENDCHAR
STARTCHAR uni0928094D0915
ENCODING -1
SWIDTH 973 0
DWIDTH 18 0
BBX 19 12 -1 -1
BITMAP
2CCCCCCCCCCDDCCCCC80
00000000000760000000
00000005CC278BCC5000
0000002B1007C101C200
00ACCCD7000760007500
04A00076000760007600
02A00077000760007500
0010003B101C6001C200
00000006CCB962CC5000
00000000000760000000
00000000000760000000
00000000000210000000
ENDCHAR
STARTCHAR uni0928094D091A
ENCODING -1
SWIDTH 820 0
DWIDTH 15 0
BBX 16 12 -1 -1
BITMAP
2CCCCCCCCCCCCECB
0000000000000C20
0000000000000C20
0000006CDDC40C20
00000003A0000C20
009CCC7760000C20
04A0000760000C20
02A00004B1003F20
001000006CCC9C20
0000000000000C20
0000000000000C20
0000000000000300
ENDCHAR
STARTCHAR uni0928094D091B
ENCODING -1
SWIDTH 781 0
DWIDTH 14 0
BBX 16 10 -1 1
BITMAP
2CCCCCDECCCCEDC3
000000D100009400
000000D000009400
000000C0004CE300
008CCCD200005900
02C000AFC3002B00
01B000E200002C00
008000D000002B00
000000C200008800
0000003BCCCC9100
ENDCHAR
STARTCHAR uni0928094D091F
ENCODING -1
SWIDTH 715 0
DWIDTH 13 0
BBX 15 10 -1 1
BITMAP
2CCCCCCCCCCFCC10
00000000000D0000
00000000000D0000
00000008CCCC0000
00ACCCD900000000
04A000A300000000
03A000A300005000
002000930000D000
000000690004B000
00000008CCCA2000
ENDCHAR
STARTCHAR uni0928094D0921
ENCODING -1
SWIDTH 705 0
DWIDTH 13 0
BBX 14 11 -1 0
BITMAP
2CCCCCCCCCCFCA
00000000000C00
00000000000C00
0000002BCCCD00
009CCCD7000000
04A00067000000
03900009CCCA10
00500000000770
00000052000590
00000077000870
0000001ACCCA10
ENDCHAR
STARTCHAR uni0928094D0924
ENCODING -1
SWIDTH 717 0
DWIDTH 13 0
BBX 15 11 -1 0
BITMAP
2CCCCCCCCCCEDC10
0000000000094000
0000000000094000
0000000000094000
00ACCCDDCCCE4000
04A000C500094000
039000C100094000
004000C000094000
000000C100094000
0000009600094000
00000019C2083000
ENDCHAR
STARTCHAR uni0928094D0925
ENCODING -1
SWIDTH 804 0
DWIDTH 14 0
BBX 16 12 -1 -1
BITMAP
2CCCB02BCC300EC8
0000009504A01C00
0000007202B01C00
0000000006901C00
00ACCCDCCA101C00
05A002C000001C00
049001C000002C00
014000B500009C00
00000019CCCB5C00
0000000000001C00
0000000000001C00
0000000000000300
ENDCHAR
STARTCHAR uni0928094D0926
ENCODING -1
SWIDTH 724 0
DWIDTH 13 0
BBX 15 11 -1 0
BITMAP
2CCCCCCCCCCDDC30
0000000000076000
0000000000076000
00000019CCCD5000
009CCCDB00000000
04A0008500000000
039000850002A000
015000750003A000
0000003A0008A000
00000006CCC9A000
000000000002A000
ENDCHAR
STARTCHAR uni0928094D0927
ENCODING -1
SWIDTH 753 0
DWIDTH 14 0
BBX 15 12 -1 -1
BITMAP
2CCCCCED708CFC90
000001C00000D000
000003A00000D000
000001C10000D000
009CCCEEC500D000
04A001D10000D000
039003A00000D000
016002A00000E000
000000D20007E000
0000004BCCC7D000
000000000000D000
0000000000003000
ENDCHAR
STARTCHAR uni0928094D092A
ENCODING -1
SWIDTH 742 0
DWIDTH 13 0
BBX 15 12 -1 -1
BITMAP
2CCCCCDECCCCEC70
0000003A0002B000
0000003A0002B000
0000003A0002B000
0000003A0002B000
009CCCCA0003B000
02C0001D2008B000
00A00005BCB7B000
000000000002B000
000000000002B000
000000000002B000
0000000000002000
ENDCHAR
STARTCHAR uni0928094D092B
ENCODING -1
SWIDTH 970 0
DWIDTH 17 0
BBX 19 12 -1 -1
BITMAP
2CCCCCDECCCEDCCCCC80
00000058000850000000
0000005800089CCB5000
000000580008B101C200
009CCCD8000860008500
04A00058000850008500
0490001C101D50008500
01700004BCA95001C200
00000000000853CB5000
00000000000850000000
00000000000850000000
00000000000210000000
ENDCHAR
STARTCHAR uni0928094D092D
ENCODING -1
SWIDTH 739 0
DWIDTH 13 0
BBX 15 12 -1 -1
BITMAP
2CCCCCC200BDEC60
0000004A0003A000
0000001B0003A000
0000001C0003A000
0000001C0003A000
008CCCCFCCCDA000
02C0001C0003A000
01C0001B0003A000
001000010003A000
000000000003A000
000000000003A000
0000000000002000
ENDCHAR
STARTCHAR uni0928094D092E
ENCODING -1
SWIDTH 735 0
DWIDTH 13 0
BBX 15 12 -1 -1
BITMAP
2CCCCCDECCCDEC50
0000003B00049000
0000003B00049000
0000003B00049000
0000003B00049000
008CCCCECCCD9000
02C0003B00049000
01C0002A00049000
0010000100049000
0000000000049000
0000000000049000
0000000000012000
ENDCHAR
STARTCHAR uni0928094D092F
ENCODING -1
SWIDTH 801 0
DWIDTH 14 0
BBX 16 12 -1 -1
BITMAP
2CCCCCCCEDCCCEC7
000000001C002C00
000000000D002C00
000000002D002C00
00ACCCDCB4002C00
04A0008500002C00
02A0007600002C00
0000003C10009C00
00000005BCCC6C00
0000000000002C00
0000000000002C00
0000000000000300
ENDCHAR
STARTCHAR uni0928094D0935
ENCODING -1
SWIDTH 732 0
DWIDTH 13 0
BBX 15 12 -1 -1
BITMAP
2CCCCCCCCCCDEC40
0000000000058000
00000005CC358000
0000002D10058000
009CCCD800058000
04A0006700058000
0490006700058000
0190005800058000
0000001C101B8000
00000004BCB88000
0000000000058000
0000000000012000
ENDCHAR
STARTCHAR uni0928094D0938
ENCODING -1
SWIDTH 867 0
DWIDTH 16 0
BBX 17 12 -1 -1
BITMAP
2CCCCCCCCDDCCCFC90
00000000067000D000
00000000067000D000
00000000067000D000
00ACCCC30A4000D000
04A0003EDDCCCCE000
03A0000B300000D000
00200003C00000D000
00000000950000D000
000000002D0000D000
00000000087000D000
000000000030003000
ENDCHAR
STARTCHAR uni0928094D0939
ENCODING -1
SWIDTH 714 0
DWIDTH 13 0
BBX 15 12 -1 -1
BITMAP
2CCCCCCCCCCEDC10
0000000000094000
0000000000094000
0000001ACCCD3000
008CCCDA00000000
02C0002A00000000
01B00009ECC90000
0060003B10086000
0000007600058000
0000006600001000
0000003C10000000
00000005BCCC3000
ENDCHAR
STARTCHAR uni092A094D091F
ENCODING -1
SWIDTH 489 0
DWIDTH 9 0
BBX 10 11 -1 0
BITMAP
2CEDCCCDDB
0094000670
0094000670
0084000670
0059000670
001DDCCC40
0096000000
00C1000030
00C10001C0
0087000690
0019CCC910
ENDCHAR
STARTCHAR uni092A094D0920
ENCODING -1
SWIDTH 506 0
DWIDTH 9 0
BBX 11 11 -1 0
BITMAP
2CEDCCCDEC40
00940003A000
00940003A000
008500049000
005900086000
001DDCDE2000
00960005A000
00B20001C000
00B20001C000
008700069000
0019CCC91000
ENDCHAR
STARTCHAR uni092A094D0924
ENCODING -1
SWIDTH 495 0
DWIDTH 9 0
BBX 11 11 -1 0
BITMAP
2CEDCCCEDC10
00A300094000
00A300094000
00A300094000
006800094000
002EDCCE4000
00A500094000
00C100094000
00C100094000
00A500094000
001AC2083000
ENDCHAR
STARTCHAR uni092A094D092A
ENCODING -1
SWIDTH 770 0
DWIDTH 14 0
BBX 16 12 -1 -1
BITMAP
2CEDCCCECCCCEDC1
0085000B2000A300
0085000B2000A300
0085000B2000A300
0085000B2000A300
0086000A2000A300
004A001C8002E300
0007CCB48CCAB300
000000000000A300
000000000000A300
000000000000A300
0000000000002000
ENDCHAR
STARTCHAR uni092A094D092B
ENCODING -1
SWIDTH 1003 0
DWIDTH 18 0
BBX 20 12 -1 -1
BITMAP
2CEDCCCECCCCFCCCCCC3
0085000C1000D0000000
0085000C1000D8CCA100
0085000C1000E6005A00
0085000C1000D0000D00
0086000B2000D0000D00
004A002C7005E0000D00
0007CCB48CB7D0005A00
000000000000D08CA100
000000000000D0000000
000000000000D0000000
00000000000030000000
ENDCHAR
STARTCHAR uni092A094D092E
ENCODING -1
SWIDTH 774 0
DWIDTH 14 0
BBX 16 12 -1 -1
BITMAP
2CEDCCCDDCCCEDC1
0085000760009400
0085000760009400
0085000760009400
0085000760009400
005A0008DCCCE400
0007CCBA60009400
0000000430009400
0000000000009400
0000000000009400
0000000000009400
0000000000002100
ENDCHAR
STARTCHAR uni092A094D092F
ENCODING -1
SWIDTH 855 0
DWIDTH 15 0
BBX 17 12 -1 -1
BITMAP
2CEDCCCCCEDCCCEC70
0085000001C002B000
0085000000D002B000
0085000002C002B000
00850007CB3002B000
00860008500002B000
004A001B500003B000
0007CCB8B1001AB000
000000006CCCC7B000
00000000000002B000
00000000000002B000
000000000000003000
ENDCHAR
STARTCHAR uni092A094D0932
ENCODING -1
SWIDTH 960 0
DWIDTH 17 0
BBX 19 12 -1 -1
BITMAP
2CEDCCCCCCCCCCCDEC60
00850000000000049000
00850000000000049000
008500008CC55CB99000
00850006901BB1099000
00860009400770049000
004A001C400670049000
0007CCBC400330049000
00000007900000049000
000000019CB000049000
00000000000000049000
00000000000000012000
ENDCHAR
STARTCHAR uni092A094D0935
ENCODING -1
SWIDTH 780 0
DWIDTH 14 0
BBX 16 12 -1 -1
BITMAP
2CEDCCCCCCCCEDC3
0085000000007600
008500006CC27600
00850003C1007600
0085000760007600
0086000850007600
004A001C50007600
0007CCBA60008600
00000003B101D600
000000005CCB9600
0000000000007600
0000000000002100
ENDCHAR
STARTCHAR uni092A094D0938
ENCODING -1
SWIDTH 880 0
DWIDTH 16 0
BBX 18 12 -1 -1
BITMAP
2CEDCCCCCDECCCEDB1
0085000003B000B300
0085000003B000B300
0085000003A000B300
00850000077000B300
0086000CCDCCCCE300
004A002D700000B300
0007CCB5D10000B300
00000000790000B300
000000000D2000B300
0000000005A000B300
000000000030002000
ENDCHAR
STARTCHAR uni092B094D091C
ENCODING -1
SWIDTH 1100 0
DWIDTH 20 0
BBX 21 12 -1 -1
BITMAP
2CEDCCCEDCCCCCCCCCECB0
0085000A3000000000B200
0085000A3000000000B200
0085000A8CC61CDCCCF200
0085000A9000004900B200
0086000A3000000D00B200
004B002E3000000D00B200
0007CCAB3000000D00B200
0000000A3000004B00B200
0000000A3008CCB200B200
0000000A3000000000B200
0000000200000000002000
ENDCHAR
STARTCHAR uni092B094D091F
ENCODING -1
SWIDTH 1006 0
DWIDTH 18 0
BBX 20 12 -1 -1
BITMAP
2CEDCCCEDCCCCCCCEDC4
0085000A30000000A300
0085000A8CCB3000A300
0085000A9004ECCCD200
0085000A4002C1000000
0086000A300670000000
004B002E300670000000
0007CCAB300670000820
0000000A3003C1001D10
0000000A30005CCCB500
0000000A300000000000
00000002000000000000
ENDCHAR
STARTCHAR uni092B094D0924
ENCODING -1
SWIDTH 1034 0
DWIDTH 19 0
BBX 20 11 -1 0
BITMAP
2CEDCCCEDCCCCCCCCFC9
0085000A300000000D00
0085000A300000000D00
0085000A8CCB30000D00
0085000A8003DBCCCE00
0086000A3000D2000D00
004B002E3002B0000D00
0007CCAB3002B0000D00
0000000A3002B0000D00
0000000A3000D2000D00
0000000820004BB00B00
ENDCHAR
STARTCHAR uni092B094D092A
ENCODING -1
SWIDTH 1021 0
DWIDTH 18 0
BBX 20 12 -1 -1
BITMAP
2CEDCCCEDCCDECCCCEC7
0085000A3003A0002B00
0085000A3003A0002B00
0085000A8CCCA0002B00
0085000A9003A0002B00
0086000A3003A0003B00
004B002E3001D2008B00
0007CCAB30004BCB8B00
0000000A300000002B00
0000000A300000002B00
0000000A300000002B00
00000002000000000200
ENDCHAR
STARTCHAR uni092B094D092B
ENCODING -1
SWIDTH 1256 0
DWIDTH 23 0
BBX 24 12 -1 -1
BITMAP
2CEDCCCEDCCDECCCDECCCCC9
0085000A3003A00058000000
0085000A3003A0005ABCC600
0085000A8CCCA0005D101B30
0085000A9003A00058000670
0086000A3003A00068000670
004B002E3001D201B8000670
0007CCAB30003BCB88001B30
0000000A30000000581CC600
0000000A3000000058000000
0000000A3000000058000000
000000020000000012000000
ENDCHAR
STARTCHAR uni092B094D092F
ENCODING -1
SWIDTH 1120 0
DWIDTH 20 0
BBX 21 12 -1 -1
BITMAP
2CEDCCCEDCCCCDECCCFCA0
0085000A300000B100D000
0085000A3000009400D000
0085000A300001C200D000
0085000A8CCCDC6000D000
0086000A9004900000D000
004B002E3003900000E000
0007CCAB3001D20006F000
0000000A30003ACCC8D000
0000000A3000000000D000
0000000A3000000000D000
0000000200000000003000
ENDCHAR
STARTCHAR uni092B094D0932
ENCODING -1
SWIDTH 1202 0
DWIDTH 22 0
BBX 23 12 -1 -1
BITMAP
2CEDCCCEDCCCCCCCCCCCFCA0
0085000A300000000000D000
0085000A8CCB30000000D000
0085000A9004EDC92BC9E000
0085000A4001D106E304F000
0086000A30049001C000E000
004B002E30049001C000D000
0007CCAB300490006000D000
0000000A3001D1000000D000
0000000A30005BC50000D000
0000000A300000000000D000
000000020000000000003000
ENDCHAR
STARTCHAR uni092B094D0936
ENCODING -1
SWIDTH 1211 0
DWIDTH 22 0
BBX 23 12 -1 -1
BITMAP
2CEDCCCEDCCC23CCB300ACB0
0085000A30000B204A00B200
0085000A30000D001C00B200
0085000A8CC918002C00B200
0085000A900780006900B200
0086000A3003ECCCA100B200
004B002E3000C3000000B200
0007CCAB30003C000000B200
0000000A300008700000B200
0000000A300001C20000B200
0000000A3000004B0000B200
000000020000000300002000
ENDCHAR
STARTCHAR uni092C094D091C
ENCODING -1
SWIDTH 883 0
DWIDTH 16 0
BBX 18 12 -1 -1
BITMAP
2CCCCCCCCCCCCCEDC1
000000000000009400
000000000000009400
0019CB000000009400
009D00007CDCCCE400
00D69000002B009400
00D05800000C009400
00D00680000C109400
00950067002D009400
0019CCCDCCB3009400
000000000000009400
000000000000002100
ENDCHAR
STARTCHAR uni092C094D091D
ENCODING -1
SWIDTH 962 0
DWIDTH 17 0
BBX 19 13 -1 -2
BITMAP
2CCCCCCCCCCDECCDEC60
000000000003A003A000
0019CB01ACCC9003A000
008C000770000003A000
00C6800940000003A000
00D0760970000003A000
00D00859BCCDDCCDA000
00C100AC2000B203A000
0087003D0000A303A000
0019CCB4C000C203A000
00000002CACC70015000
00000002B00000000000
00000002A00000000000
ENDCHAR
STARTCHAR uni092C094D0924
ENCODING -1
SWIDTH 786 0
DWIDTH 14 0
BBX 16 11 -1 0
BITMAP
2CCCCCCCCCCCDEC4
0000000000006700
0019CB0000006700
008C000000006700
00CC30008CCCD700
00D1B20690006700
00D01B2940006700
00C001AB40006700
0086003F40006700
0019CCBA90006700
000000019C505600
ENDCHAR
STARTCHAR uni092C094D0926
ENCODING -1
SWIDTH 775 0
DWIDTH 14 0
BBX 16 11 -1 0
BITMAP
2CCCCCCCCCCCEDC2
0000000000008500
0019CB0000008500
008C00008CCCD400
00CA4006A0000000
00D0950950000000
00D0096940003900
00C000AE40003A00
0086003EA0009A00
0019CCB27CCC9A00
0000000000003900
ENDCHAR
STARTCHAR uni092C094D0927
ENCODING -1
SWIDTH 844 0
DWIDTH 15 0
BBX 17 12 -1 -1
BITMAP
2CCCCCCCFC21CDEC40
000000076000058000
0019CA094000058000
008C00078000058000
00C68000CDB1058000
00D076069000058000
00D009594000058000
00C100AC4000068000
0087003F90001B8000
0019CCB3ACCCB98000
000000000000058000
000000000000012000
ENDCHAR
STARTCHAR uni092C094D092C
ENCODING -1
SWIDTH 783 0
DWIDTH 14 0
BBX 16 12 -1 -1
BITMAP
2CCCCCCCCCCCDDC4
0000000000006700
0019CB006CC26700
008C0004E2006700
00C780087B106700
00D0760943A06700
00D0094940596700
00C100AC5006D700
0087003EA001D700
0019CCB37CCB8700
0000000000006700
0000000000001100
ENDCHAR
STARTCHAR uni092C094D092D
ENCODING -1
SWIDTH 764 0
DWIDTH 14 0
BBX 15 12 -1 -1
BITMAP
2CCCCCC7006CFCB0
0000000C2000C100
0019CB0A3000C100
008C000A3000C100
00C9700A3000C100
00D0950ADCCCE100
00D00A3A3000C100
00C101AC3000C100
0087003E0000C100
0019CCB30000C100
000000000000C100
0000000000003000
ENDCHAR
STARTCHAR uni092C094D092F
ENCODING -1
SWIDTH 852 0
DWIDTH 15 0
BBX 17 12 -1 -1
BITMAP
2CCCCCCCCEDCCDEC60
0000000002B003A000
0019CB0000D003A000
008C000003C003A000
00C98008CB3003A000
00D06809400003A000
00D00589500004A000
00C1004EB1001AA000
008700495CCCC7A000
0019CCA1000003A000
00000000000003A000
000000000000002000
ENDCHAR
STARTCHAR uni092C094D0932
ENCODING -1
SWIDTH 961 0
DWIDTH 17 0
BBX 19 12 -1 -1
BITMAP
2CCCCCCCCCCCCCCDEC60
0000000000000003A000
0019CB0000000003A000
009B00007CC55CB8A000
00C86005900BB109A000
00D0850840067004A000
00D0094940067003A000
00A100AC40045003A000
0024003F90000003A000
00000013BCC10003A000
0000000000000003A000
00000000000000012000
ENDCHAR
STARTCHAR uni092C094D0935
ENCODING -1
SWIDTH 776 0
DWIDTH 14 0
BBX 16 12 -1 -1
BITMAP
2CCCCCCCCCCCEDC2
0000000000008500
0019CB006CC18500
008C0004B1008500
00C8700850008500
00D0850940008500
00D00A3940008500
00C100AB50009500
0087003EB001D500
0019CCB37CCAA500
0000000000008500
0000000000002100
ENDCHAR
STARTCHAR uni092C094D0936
ENCODING -1
SWIDTH 926 0
DWIDTH 17 0
BBX 18 12 -1 -1
BITMAP
2CCCCC606CCB200CCA
00000000D105800D00
0019CB01C003A00D00
008C00000003900D00
00C590000008700D00
00D06807DCC9000D00
00D00769D000000D00
00C1009D9800000D00
0087003B1D20000D00
0019CCA205B0000D00
0000000000A5000D00
000000000012000300
ENDCHAR
STARTCHAR uni092C094D0938
ENCODING -1
SWIDTH 897 0
DWIDTH 16 0
BBX 18 12 -1 -1
BITMAP
2CCCCCCCCCFCCCDEC4
0000000000D0005800
0019CB0000D0005800
008C000000D0005800
00C6800002C0005800
00D07707DDCCCCD800
00D00859C000005800
00C100ACA600005800
0087003B2D00005800
0019CCA20870005800
0000000001D1005800
000000000021001200
ENDCHAR
STARTCHAR uni092D094D092F
ENCODING -1
SWIDTH 827 0
DWIDTH 15 0
BBX 17 12 -1 -1
BITMAP
2C8005CCDFCCCEDC10
00B300000850094000
008400000570094000
008400000950094000
0084000DC900094000
008DCCCD0000094000
0084000D00000A4000
0053000B50003E4000
000000019CCCAA4000
000000000000094000
000000000000094000
000000000000021000
ENDCHAR
STARTCHAR uni092D094D0932
ENCODING -1
SWIDTH 941 0
DWIDTH 17 0
BBX 19 12 -1 -1
BITMAP
2C8005CCCCCCCCCEDC10
00B30000000000094000
00840000000000094000
00840002ACB29CAB4000
0084000B302D601D4000
008DCCCD000C10094000
0084000D000C10094000
0063000D000300094000
0000000C400000094000
00000003BC8000094000
00000000000000094000
00000000000000021000
ENDCHAR
STARTCHAR uni092D094D0935
ENCODING -1
SWIDTH 755 0
DWIDTH 14 0
BBX 15 12 -1 -1
BITMAP
2C8005CCCCCCFC90
00B300000000D000
008400019C80D000
008400096000D000
0084000D0000D000
008DCCCD0000D000
0084000D0000D000
0084000D0000D000
0031000A5005E000
00000001ACB8D000
000000000000D000
0000000000003000
ENDCHAR
STARTCHAR uni092E094D0924
ENCODING -1
SWIDTH 765 0
DWIDTH 14 0
BBX 15 11 -1 0
BITMAP
2CEDCCCCCCCCECB0
009400000000B200
009400000000B200
009400000000B200
00940004CCCCF200
009DCCCE3000B200
0094000D0000B200
0073000D0000B200
0000000D0000B200
0000000B4000B200
00000002AC10A100
ENDCHAR
STARTCHAR uni092E094D0926
ENCODING -1
SWIDTH 766 0
DWIDTH 14 0
BBX 15 11 -1 0
BITMAP
2CEDCCCCCCCCEDB0
009400000000B300
009400000000B300
009400019CCCD200
0094000980000000
009DCCCE20000000
0094000C10006600
0084000B20007700
000000077000B700
000000008CCCA700
0000000000006600
ENDCHAR
STARTCHAR uni092E094D092A
ENCODING -1
SWIDTH 762 0
DWIDTH 14 0
BBX 15 12 -1 -1
BITMAP
2CEDCCCFCCCCFCB0
0094000D0000C100
0094000D0000C100
0094000D0000C100
0094000D0000C100
009DCCCF0000C100
0094000A6003F100
00730001ACC9C100
000000000000C100
000000000000C100
000000000000C100
0000000000003000
ENDCHAR
STARTCHAR uni092E094D092C
ENCODING -1
SWIDTH 768 0
DWIDTH 14 0
BBX 15 12 -1 -1
BITMAP
2CEDCCCCCCCCEDB0
009400000000B300
009400019CA0B300
00940008C000B300
0094000C7800B300
009DCCCE0860B300
0094000D0094B300
0094000C000AD300
002100096004F300
000000019CC9B300
000000000000B300
0000000000002000
ENDCHAR
STARTCHAR uni092E094D092D
ENCODING -1
SWIDTH 768 0
DWIDTH 14 0
BBX 15 12 -1 -1
BITMAP
2CEDCCC8005CEDB0
0094000B3000B300
009400094000B300
009400094000B300
009400094000B300
009DCCCEDCCCE300
009400094000B300
009400094000B300
001000010000B300
000000000000B300
000000000000B300
0000000000002000
ENDCHAR
STARTCHAR uni092E094D092E
ENCODING -1
SWIDTH 759 0
DWIDTH 14 0
BBX 15 12 -1 -1
BITMAP
2CEDCCCECCCCFCA0
0094000B2000D000
0094000B2000D000
0094000B2000D000
0094000B2000D000
009DCCCEDCCCF000
0094000B2000D000
0094000B2000D000
001000010000D000
000000000000D000
000000000000D000
0000000000003000
ENDCHAR
STARTCHAR uni092E094D092F
ENCODING -1
SWIDTH 834 0
DWIDTH 15 0
BBX 17 12 -1 -1
BITMAP
2CEDCCCCCFCCCEDC20
009400000760085000
009400000490085000
009400000770085000
0094000CC910085000
009DCCCE0000085000
0094000D0000095000
0063000970002E5000
000000018CCCA95000
000000000000085000
000000000000085000
000000000000021000
ENDCHAR
STARTCHAR uni092E094D0932
ENCODING -1
SWIDTH 945 0
DWIDTH 17 0
BBX 19 12 -1 -1
BITMAP
2CEDCCCCCCCCCCCEDC20
00940000000000086000
00940000000000086000
00940001ACB38CBA6000
00940009502D701C6000
009DCCCE000B30086000
0094000D000A20086000
0063000D000200086000
0000000B500000086000
00000002AC9000086000
00000000000000086000
00000000000000021000
ENDCHAR
STARTCHAR uni092E094D0935
ENCODING -1
SWIDTH 761 0
DWIDTH 14 0
BBX 15 12 -1 -1
BITMAP
2CEDCCCCCCCCFCA0
009400000000C100
009400008C90C100
009400087000C100
0094000C1000C100
009DCCCF0000C100
0094000D0000C100
0094000C1000D100
003100087004F100
000000019CC9C100
000000000000C100
0000000000003000
ENDCHAR
STARTCHAR uni092E094D0936
ENCODING -1
SWIDTH 884 0
DWIDTH 16 0
BBX 18 12 -1 -1
BITMAP
2CEDC903CCC4008DC1
0094000B302C009400
0094000C100D009400
00940001000D009400
00940000004A009400
009DCCCDCCA2009400
0094001C2000009400
00940004B000009400
00210000A500009400
000000002D10009400
000000000690009400
000000000030002100
ENDCHAR
STARTCHAR uni092E094D0938
ENCODING -1
SWIDTH 816 0
DWIDTH 15 0
BBX 16 12 -1 -1
BITMAP
2CEDCCCCDECCCFCA
0094000058000C10
0094000058000C10
0094000058000C10
0094000095000C10
009DCCDCDCCCCF10
009400A500000C10
0094002D00000C10
0011000870000C10
00000001D1000C10
0000000078000C10
0000000003000300
ENDCHAR
STARTCHAR uni092E094D0939
ENCODING -1
SWIDTH 758 0
DWIDTH 14 0
BBX 15 12 -1 -1
BITMAP
2CEDCCCCCCCCFCA0
009400000000C100
009400000000C100
00940001ACCCD000
0094000870000000
009DCCCD70000000
00940001DDCC7000
008400069000B300
0000000A30008500
0000000A30000000
0000000690000000
000000008CCCC100
ENDCHAR
STARTCHAR uni092F094D092F
ENCODING -1
SWIDTH 897 0
DWIDTH 16 0
BBX 18 12 -1 -1
BITMAP
2CCCFCCCCCFCCCDEC4
000048000048006700
00002B00002B006700
000059000059006700
00ACA200ACA2006700
00C10000C100006700
00B20000B200006700
00790002C80002C700
0007CCCA27BCCB8700
000000000000006700
000000000000006700
000000000000001200
ENDCHAR
STARTCHAR uni0930094D092F
ENCODING -1
SWIDTH 713 0
DWIDTH 13 0
BBX 14 12 -1 -1
BITMAP
2CCCCCDFCCCEDB
00000009400A30
00000006600A30
0830000A400A30
02ACCDC8000A30
00001C00000A30
00001C00000B30
00000C40004F30
000002ACCC9B30
00000000000A30
00000000000A30
00000000000200
ENDCHAR
STARTCHAR uni0930094D0939
ENCODING -1
SWIDTH 619 0
DWIDTH 11 0
BBX 13 12 -1 -1
BITMAP
2CCCCCCCCDEC40
00000000058000
00000000058000
041007CCCC6000
03ACCD10000000
00000C10000000
000005ECCB2000
00000D2004A000
00003B0000C000
00002B00001000
00000D30000000
000003BCCC7000
ENDCHAR
STARTCHAR uni0932094D0915
ENCODING -1
SWIDTH 1182 0
DWIDTH 21 0
BBX 23 12 -1 -1
BITMAP
2CCCCCCCCCCCCCCEDCCCCC60
000000000000000A30000000
000000000007CB0A7BCB3000
0019CB47CCA9000A9003D000
008701B900B3000A3000B200
00B2008500A3000A3000A300
00B2008500A3000A3000B200
00B200000079002E3002D000
008700000008CC9B35CB3000
0019CB000000000A30000000
000000000000000A30000000
000000000000000200000000
ENDCHAR
STARTCHAR uni0932094D0916
ENCODING -1
SWIDTH 1195 0
DWIDTH 22 0
BBX 23 12 -1 -1
BITMAP
2CCCCCCCCCCCCDECCCCCFC80
00000000000004900000D000
00000000000004900000D000
0019CC47CC6004904B70D000
008701CA00B20861D100D000
00B20085006DC9049000D000
00B20085001D10049000D000
00B200530005A001D106D000
008700000000A5005CB6D000
0019CB0000002D100000D000
00000000000006900000D000
000000000000003000003000
ENDCHAR
STARTCHAR uni0932094D0917
ENCODING -1
SWIDTH 950 0
DWIDTH 17 0
BBX 19 12 -1 -1
BITMAP
2CCCCCCCCCCDECCDDC40
00000000000670067000
00000000000670067000
0019CB47C90670067000
008701B9000670067000
00B20085000A40067000
00B2008504C800067000
00B20010000000067000
00870000000000067000
0019CB00000000067000
00000000000000067000
00000000000000011000
ENDCHAR
STARTCHAR uni0932094D091C
ENCODING -1
SWIDTH 1035 0
DWIDTH 19 0
BBX 20 12 -1 -1
BITMAP
2CCCCCCCCCCCCCCCCFCA
00000000000000000D00
00000000000000000D00
0019CB46C809CDCCCF00
008701BA000006700D00
00B20085000001C00D00
00B20085000001C00D00
00B20032000001C00D00
00870000000006900D00
0019CB0002CCCA100D00
00000000000000000D00
00000000000000000300
ENDCHAR
STARTCHAR uni0932094D091F
ENCODING -1
SWIDTH 929 0
DWIDTH 17 0
BBX 18 10 -1 1
BITMAP
2CCCCCCCCCCCCCCFCB
000000000000000C00
000000000000000C00
0019CC47CB69CCCA00
008701B900B7000000
00B2008500B2000000
00B2008500C1000050
00B2001000B20000C0
008700000087000690
0019CB000019CCC910
ENDCHAR
STARTCHAR uni0932094D0920
ENCODING -1
SWIDTH 953 0
DWIDTH 17 0
BBX 19 10 -1 1
BITMAP
2CCCCCCCCCCCCCCFCC40
000000000000000D0000
000000000000001D0000
0019CB47CB69CCEA0000
008701B900C600078000
00B2008500C00001C000
00B2008500D00001C000
00B2001000D00001C000
0087000000A600078000
0019CB000019CCC91000
ENDCHAR
STARTCHAR uni0932094D0921
ENCODING -1
SWIDTH 916 0
DWIDTH 16 0
BBX 18 11 -1 0
BITMAP
2CCCCCCCCCCCCCCFC8
000000000000000C00
000000000000000C00
0019CC47CB5ACCCA00
008701B900C4000000
00B2008500A4000000
00B20085002BCCC800
00B200210000000B40
0087000000A0000850
0019CB0000A4000B40
00000000002BCCC800
ENDCHAR
STARTCHAR uni0932094D0922
ENCODING -1
SWIDTH 924 0
DWIDTH 17 0
BBX 18 10 -1 1
BITMAP
2CCCCCCCCCCCCCCFCA
000000000000000C00
000000000000000C00
0019CB36CC69CCCA00
008701BA01C6000000
00B2008500C0000000
00B2008500D005CC40
00B2004200D00C12B0
0087000000A50104A0
0019CB00001ACCCB20
ENDCHAR
STARTCHAR uni0932094D0924
ENCODING -1
SWIDTH 929 0
DWIDTH 17 0
BBX 18 11 -1 0
BITMAP
2CCCCCCCCCCCCCCFCB
000000000000000C10
000000000000000C10
0019CB35CB50000C10
0087019901DECCCF10
00B2008500C3000C10
00B2008500D0000C10
00B2002100D0000C10
0087000000D0000C10
0019CB0000C3000C10
00000000003BB00A10
ENDCHAR
STARTCHAR uni0932094D0925
ENCODING -1
SWIDTH 1061 0
DWIDTH 19 0
BBX 21 12 -1 -1
BITMAP
2CCCCCCCC705CC9006DC30
00000000000D10A4067000
00000000000A0085067000
0019CB46CB400085067000
008701B901B101C2067000
00B20085008DCC60067000
00B2008500850000077000
00B20021003A10002D7000
008700000005BCCCB87000
0019CB0000000000067000
0000000000000000067000
0000000000000000011000
ENDCHAR
STARTCHAR uni0932094D0926
ENCODING -1
SWIDTH 939 0
DWIDTH 17 0
BBX 19 11 -1 0
BITMAP
2CCCCCCCCCCCCCCEDC10
00000000000000084000
00000000000000084000
0019CC47CB59CCCD3000
008701C900B900000000
00B2008500A400000000
00B2008500A300048000
00B20021007400058000
008700000015000A8000
0019CB00000000158000
00000000000000048000
ENDCHAR
STARTCHAR uni0932094D092A
ENCODING -1
SWIDTH 939 0
DWIDTH 17 0
BBX 19 12 -1 -1
BITMAP
2CCCCCCCCCEDCCCEDC10
0000000000A300094000
0000000000A300094000
0019CB46CCE300094000
008701BA00A300094000
00B2008500A300094000
00B200850068002D4000
00B200320008CCAA4000
00870000000000094000
0019CB00000000094000
00000000000000094000
00000000000000021000
ENDCHAR
STARTCHAR uni0932094D092B
ENCODING -1
SWIDTH 1176 0
DWIDTH 21 0
BBX 23 12 -1 -1
BITMAP
2CCCCCCCCCEDCCCECCCCCC40
0000000000A3000C10000000
0000000000A3000C8CCA2000
0019CC46CCE3000C7004C000
008701CA00A3000C2000C100
00B200850094000C1000C100
00B200850059003F1000C100
00B200420007CC9C1003C000
008700000000000C16CA2000
0019CB000000000C10000000
000000000000000C10000000
000000000000000300000000
ENDCHAR
STARTCHAR uni0932094D092C
ENCODING -1
SWIDTH 949 0
DWIDTH 17 0
BBX 19 12 -1 -1
BITMAP
2CCCCCCCCCCCCCCDDC40
00000000000000067000
000000000007CC267000
0019CB46CB9E10067000
008701BA00B9A0067000
00B20095009459067000
00B20085009406867000
00B200530075007C7000
008700000016001E7000
0019CB00000000177000
00000000000000067000
00000000000000011000
ENDCHAR
STARTCHAR uni0932094D092D
ENCODING -1
SWIDTH 931 0
DWIDTH 17 0
BBX 18 12 -1 -1
BITMAP
2CCCCCCCCC7006CECB
0000000000C2000C20
0000000000A3000C20
0019CB46CCE3000C20
008701B900A3000C20
00B2008500ADCCCF20
00B2008500A3000C20
00B200210062000C20
008700000000000C20
0019CB000000000C20
000000000000000C20
000000000000000300
ENDCHAR
STARTCHAR uni0932094D092E
ENCODING -1
SWIDTH 931 0
DWIDTH 17 0
BBX 18 12 -1 -1
BITMAP
2CCCCCCCCCEDCCCECB
0000000000A3000C20
0000000000A3000C20
0019CB46CCE3000C20
008701B900A3000C20
00B2008500ADCCCF20
00B2008500A3000C20
00B200210062000C20
008700000000000C20
0019CB000000000C20
000000000000000C20
000000000000000300
ENDCHAR
STARTCHAR uni0932094D092F
ENCODING -1
SWIDTH 1033 0
DWIDTH 19 0
BBX 20 12 -1 -1
BITMAP
2CCCCCCCCCCCDECCCFC9
0000000000000B100D00
0000000000000A300D00
0019CC68CCA11C200D00
008701B8009DC6000D00
00B20085005800000D00
00B20053005900000E00
00B20000001D20007E00
008700000004BCCC7D00
0019CB00000000000D00
00000000000000000D00
00000000000000000300
ENDCHAR
STARTCHAR uni0932094D0932
ENCODING -1
SWIDTH 1112 0
DWIDTH 20 0
BBX 22 12 -1 -1
BITMAP
2CCCCCCCCCCCCCCCCCEDC2
0000000000000000008600
0000000000000000008600
0019CB47CC7ACB38CBA600
008701B900C501D701C600
00B2008500D000B3008600
00B2008500D000A2008600
00B2001000D00010008600
0087000000A50000008600
0019CB00002AC900008600
0000000000000000008600
0000000000000000002100
ENDCHAR
STARTCHAR uni0932094D0935
ENCODING -1
SWIDTH 940 0
DWIDTH 17 0
BBX 19 12 -1 -1
BITMAP
2CCCCCCCCCCCCCCEDC10
00000000000000084000
000000000007CC184000
0019CB46CCAA00084000
008701CA00B400084000
00B2009500A400084000
00B2008500A400084000
00B20063007400094000
008700000016002D4000
0019CB00000000194000
00000000000000084000
00000000000000021000
ENDCHAR
STARTCHAR uni0932094D0938
ENCODING -1
SWIDTH 1068 0
DWIDTH 19 0
BBX 21 12 -1 -1
BITMAP
2CCCCCCCCCCCCECCCDEC50
0000000000000C20049000
0000000000000C20049000
0019CC47CC500C10049000
008701BA01C12C00049000
00B20085008DDDCCCD9000
00B20085002C0000049000
00B2001000086000049000
008700000001D100049000
0019CB0000007800049000
0000000000000D20049000
0000000000000210012000
ENDCHAR
STARTCHAR uni0932094D0939
ENCODING -1
SWIDTH 922 0
DWIDTH 17 0
BBX 18 12 -1 -1
BITMAP
2CCCCCCCCCCCCCCFC9
000000000000000D00
000000000000000D00
0019CC47CB5BCCCC00
008701B900B6000000
00B200850076000000
00B20085001DDCC800
00B200210078000B30
0087000000B3000530
0019CB0000A3000000
000000000079000000
000000000008CCCC10
ENDCHAR
STARTCHAR uni0933094D092F
ENCODING -1
SWIDTH 1050 0
DWIDTH 19 0
BBX 21 12 -1 -1
BITMAP
2CCCCCCCCCCCDFCCCEDC10
0000000000000850094000
0018CC54CC800570094000
008701BB10770950094000
00B10077001EC900094000
00C10066000C0000094000
00C10066000D00000A4000
00B10077001F50003E4000
008701AA10769CCCAA4000
0019CB33BC800000094000
0000000000000000094000
0000000000000000021000
ENDCHAR
STARTCHAR uni0935094D092F
ENCODING -1
SWIDTH 852 0
DWIDTH 15 0
BBX 17 12 -1 -1
BITMAP
2CCCCCCCCEDCCDEC60
0000000002B003B000
0019CB0000D003B000
0087000003C003B000
00C10008CB3003B000
00D00009400003B000
00D00009500004B000
00C10009B1001AB000
008700285CCCC7B000
0019CCA1000003B000
00000000000003B000
000000000000002000
ENDCHAR
STARTCHAR uni0935094D0932
ENCODING -1
SWIDTH 961 0
DWIDTH 17 0
BBX 19 12 -1 -1
BITMAP
2CCCCCCCCCCCCCCDEC60
0000000000000003A000
0019CB0000000003A000
008700007CC55CB9A000
00C10005900AB108A000
00D0000840067004A000
00D0000940067003A000
00C1000940033003A000
0087002E90000003A000
0019CCA4ACC10003A000
0000000000000003A000
00000000000000002000
ENDCHAR
STARTCHAR uni0935094D0935
ENCODING -1
SWIDTH 776 0
DWIDTH 14 0
BBX 16 12 -1 -1
BITMAP
2CCCCCCCCCCCEDC2
0000000000008500
0019CB006CC18500
00870004B1008500
00C1000850008500
00D0000940008500
00D0000940008500
00C1000A50009500
0087002DB001D500
0019CCB37CCA9500
0000000000008500
0000000000002100
ENDCHAR
STARTCHAR uni0935094D0939
ENCODING -1
SWIDTH 754 0
DWIDTH 14 0
BBX 15 12 -1 -1
BITMAP
2CCCCCCCCCCCFC90
000000000000D000
0019CB000000D000
00870002ACCCC000
00C1000960000000
00D0000950000000
00D00001DDCC6000
00C100067001C100
0087003E20009400
0019CCAD20004100
0000000880000000
000000019CCCB000
ENDCHAR
STARTCHAR uni0936094D0915
ENCODING -1
SWIDTH 1093 0
DWIDTH 20 0
BBX 20 12 0 -1
BITMAP
02BCC506CCCCDECCCCCA
09501D00000049000000
09200C004BC44ABCC700
00000D01C2004D200A50
00003C04900049000580
2DCCB304800049000580
0B300004900059000580
03C00001C100A9000A50
008700004BCB891CC700
001C2000000049000000
0004B000000049000000
00003000000012000000
ENDCHAR
STARTCHAR uni0936094D091A
ENCODING -1
SWIDTH 950 0
DWIDTH 17 0
BBX 18 12 0 -1
BITMAP
02BCC506CCCCCCDDC4
09501D000000006700
0A300C000000006700
01000D06CCDC806700
00003C000B20006700
2DCCB3001B00006700
0C3000001B00007700
03C000000D3001C700
0087000003BCCB9700
001D20000000006700
0004B0000000006700
000030000000001100
ENDCHAR
STARTCHAR uni0936094D091B
ENCODING -1
SWIDTH 968 0
DWIDTH 17 0
BBX 18 12 0 -1
BITMAP
02BCC407CFCCCCDEC7
09401D007700004A00
0B200D00A300004A00
01000D0093000BD800
00003C004700001D00
3DCCB2003DD7000B20
0C3000009700000B20
03C000009300000B20
009600007700003D00
001D100019CCCCB300
0005A0000000000000
000030000000000000
ENDCHAR
STARTCHAR uni0936094D091F
ENCODING -1
SWIDTH 854 0
DWIDTH 15 0
BBX 16 12 0 -1
BITMAP
02BCC507CCCCDEC7
09501D0000006700
0A300C0000006700
02000D003BCCD600
00003C00D2000000
2DCCB302B0000000
0B300002B0000230
03C00002B0000670
00870000D2001B30
001C20003BCCC600
0004B00000000000
0000300000000000
ENDCHAR
STARTCHAR uni0936094D0924
ENCODING -1
SWIDTH 864 0
DWIDTH 16 0
BBX 16 11 0 0
BITMAP
01BCC507CCCCCFC9
08601D0000000D00
0A300C0000000D00
07200D0000000D00
00003C004BCCCE00
2DCCB301D1000D00
0B400003B0000D00
02C10003A0000D00
00690003B0000D00
000B4001D2000D00
0002B0004BA00B00
ENDCHAR
STARTCHAR uni0936094D092E
ENCODING -1
SWIDTH 885 0
DWIDTH 16 0
BBX 17 12 0 -1
BITMAP
01BCC507DDCCCEDC10
08601D007600094000
0A300C007600094000
03100D007600094000
00003C007600094000
2DCCB3007DCCCE4000
0B3000007600094000
03C000006500094000
008700000000094000
001C20000000094000
0004B0000000094000
000030000000021000
ENDCHAR
STARTCHAR uni0936094D092F
ENCODING -1
SWIDTH 940 0
DWIDTH 17 0
BBX 18 12 0 -1
BITMAP
01BCC507CDFCCCEDC1
08601D000085009400
0A300C000058009400
04100D000096009400
00003C00DC90009400
2DCCB300D000009400
0C300000D00000A400
03C00000A50003E400
0087000019CCCAA400
001D20000000009400
0004B0000000009400
000030000000002100
ENDCHAR
STARTCHAR uni0936094D0932
ENCODING -1
SWIDTH 1039 0
DWIDTH 19 0
BBX 19 12 0 -1
BITMAP
02BCC506CCCCCCCCFCA0
08501D0000000000C100
0A300C0000000000C100
02000D004BCA3BC9D100
00003C01D105E303F100
2DCCB303A000D000D100
0C300003A000D000C100
03C00003A0000000C100
00870001D2000000C100
001D20004BC50000C100
0004B00000000000C100
00003000000000003000
ENDCHAR
STARTCHAR uni0936094D0935
ENCODING -1
SWIDTH 850 0
DWIDTH 15 0
BBX 16 12 0 -1
BITMAP
02BCC506CCCCDEC6
09501D0000003A00
09200C003BC53A00
00000D01D2003A00
00003C03A0003A00
2DCCB30490003A00
0C30000490003A00
03C00003A0004A00
00870001D2009A00
001D20003BCB7A00
0004B00000003A00
0000300000000200
ENDCHAR
STARTCHAR uni0936094D0936
ENCODING -1
SWIDTH 1009 0
DWIDTH 18 0
BBX 19 12 0 -1
BITMAP
02BCC5001BCC6005EC40
09501D007700D1058000
0A300C008500B2058000
01000D001000B2058000
00003C000002D0058000
2DCCB301DCCB40058000
0C300000B50000058000
03C000002D1000058000
00870000079000058000
001D200000C300058000
0004B000003C00058000
00003000000300012000
ENDCHAR
STARTCHAR uni0937094D0915
ENCODING -1
SWIDTH 1039 0
DWIDTH 19 0
BBX 20 12 -1 -1
BITMAP
2CEDCCCCCCCCDECCCCCA
008B1000000049000000
008691003BC44AACC700
00851911C2004D200A50
008502A4900049000580
0086003C900049000490
004B002C900049000580
0007CCB6D20099000A50
000000005CCB890BC700
00000000000049000000
00000000000049000000
00000000000012000000
ENDCHAR
ENDFONT
